<svg width="43" height="46" viewBox="0 0 43 46" fill="none" xmlns="http://www.w3.org/2000/svg">
<g opacity="0.3" filter="url(#filter0_f_713_2788)">
<ellipse cx="21.5" cy="41.5" rx="17.5" ry="0.5" fill="black"/>
</g>
<path fill-rule="evenodd" clip-rule="evenodd" d="M16.1331 10.6667C17.188 10.6667 18.2191 10.3539 19.0962 9.76784C19.9732 9.18181 20.6568 8.34885 21.0605 7.37431C21.4642 6.39978 21.5698 5.32742 21.364 4.29285C21.1582 3.25829 20.6503 2.30798 19.9044 1.5621C19.1585 0.81622 18.2082 0.308269 17.1736 0.102481C16.1391 -0.103307 15.0667 0.00231084 14.0922 0.405978C13.1176 0.809646 12.2847 1.49323 11.6986 2.37029C11.1126 3.24736 10.7998 4.2785 10.7998 5.33334C10.8014 6.74735 11.3638 8.103 12.3636 9.10286C13.3635 10.1027 14.7191 10.6651 16.1331 10.6667ZM16.1331 1.06667C16.977 1.06667 17.8019 1.3169 18.5036 1.78573C19.2052 2.25456 19.7521 2.92092 20.075 3.70055C20.398 4.48018 20.4825 5.33807 20.3178 6.16572C20.1532 6.99337 19.7468 7.75362 19.1501 8.35033C18.5534 8.94703 17.7932 9.35339 16.9655 9.51802C16.1379 9.68265 15.28 9.59816 14.5004 9.27522C13.7207 8.95229 13.0544 8.40542 12.5855 7.70377C12.1167 7.00212 11.8665 6.1772 11.8665 5.33334C11.8677 4.20214 12.3177 3.11763 13.1176 2.31775C13.9174 1.51787 15.0019 1.06794 16.1331 1.06667ZM16.6663 14.4004H15.5996V15.4671H16.6663V14.4004ZM30.7837 12.3302C32.878 13.4446 35.166 14.1486 37.5245 14.4043C37.6551 14.4186 37.7759 14.4806 37.8635 14.5785C37.9512 14.6763 37.9997 14.803 37.9997 14.9344V21.2518C37.9852 23.5549 37.2874 25.802 35.9947 27.7082C34.7021 29.6145 32.8727 31.0943 30.7384 31.96C30.6734 31.9872 30.6036 32.0011 30.5331 32.0011C30.4626 32.0011 30.3928 31.9872 30.3277 31.96C28.1934 31.0943 26.3641 29.6145 25.0714 27.7082C23.7788 25.802 23.081 23.5549 23.0664 21.2518V14.9344C23.0664 14.803 23.1149 14.6763 23.2026 14.5785C23.2903 14.4806 23.411 14.4186 23.5416 14.4043C25.9001 14.1486 28.1881 13.4446 30.2824 12.3302C30.3596 12.2891 30.4457 12.2676 30.5331 12.2676C30.6205 12.2676 30.7066 12.2891 30.7837 12.3302ZM35.1694 27.0236C36.3061 25.3121 36.919 23.3063 36.9331 21.2518V15.4064C34.7008 15.11 32.536 14.4324 30.5331 13.4032C28.5301 14.4324 26.3653 15.1099 24.1331 15.4064V21.2518C24.1471 23.3063 24.76 25.3121 25.8968 27.0236C27.0335 28.7351 28.6447 30.0778 30.5331 30.8875C32.4214 30.0778 34.0326 28.7351 35.1694 27.0236ZM26.0629 20.905L25.3066 21.6608L28.5066 24.8608C28.6067 24.9608 28.7423 25.0169 28.8837 25.0169C29.0251 25.0169 29.1608 24.9608 29.2608 24.8608L35.6608 18.4608L34.9066 17.705L28.8858 23.7317L26.0629 20.905ZM16.9051 19.7326H19.3333C20.0406 19.7326 20.7189 20.0136 21.219 20.5137C21.719 21.0138 22 21.6921 22 22.3993C22 23.1066 21.719 23.7848 21.219 24.2849C20.7189 24.785 20.0406 25.066 19.3333 25.066H11.3333V29.866H10.2667V25.066H8.66667C7.95968 25.0651 7.2819 24.7839 6.78198 24.284C6.28207 23.7841 6.00085 23.1063 6 22.3993V15.9993C6.00155 14.5853 6.56395 13.2296 7.56381 12.2298C8.56367 11.2299 9.91932 10.6675 11.3333 10.666H12.4427C12.5434 10.6661 12.6421 10.6946 12.7275 10.7481C13.7511 11.3799 14.9304 11.7145 16.1333 11.7145C17.3363 11.7145 18.5155 11.3799 19.5392 10.7481C19.6246 10.6946 19.7232 10.6661 19.824 10.666H20.9333C21.7956 10.6662 22.645 10.8759 23.4084 11.2769C24.1717 11.678 24.8263 12.2584 25.3157 12.9684C24.9237 13.0558 24.5285 13.1326 24.1291 13.1934C23.7316 12.7359 23.2407 12.3688 22.6895 12.1168C22.1382 11.8648 21.5394 11.7338 20.9333 11.7326H19.9733C18.9122 12.3562 17.7153 12.7122 16.4859 12.7698C15.2565 12.8274 14.0316 12.5849 12.9168 12.0633L16.9051 19.7326ZM7.5353 23.5307C7.83535 23.8307 8.24232 23.9993 8.66667 23.9993H13.6549L11.9909 20.7993H10.2667V19.7326H11.4363L8.06933 13.2574C7.4214 14.0241 7.06615 14.9955 7.06667 15.9993V22.3993C7.06667 22.8237 7.23524 23.2306 7.5353 23.5307ZM8.88373 12.5118L14.8571 23.9993H17.9216L11.5429 11.7326H11.3333C10.4558 11.7325 9.59989 12.0047 8.88373 12.5118ZM19.1237 23.9993H19.3333C19.7577 23.9993 20.1646 23.8307 20.4647 23.5307C20.7648 23.2306 20.9333 22.8237 20.9333 22.3993C20.9333 21.975 20.7648 21.568 20.4647 21.2679C20.1646 20.9679 19.7577 20.7993 19.3333 20.7993H17.4597L19.1237 23.9993Z" fill="url(#paint0_linear_713_2788)"/>
<defs>
<filter id="filter0_f_713_2788" x="0" y="37" width="43" height="9" filterUnits="userSpaceOnUse" color-interpolation-filters="sRGB">
<feFlood flood-opacity="0" result="BackgroundImageFix"/>
<feBlend mode="normal" in="SourceGraphic" in2="BackgroundImageFix" result="shape"/>
<feGaussianBlur stdDeviation="2" result="effect1_foregroundBlur_713_2788"/>
</filter>
<linearGradient id="paint0_linear_713_2788" x1="16.8234" y1="-7.05698" x2="39.1345" y2="31.4094" gradientUnits="userSpaceOnUse">
<stop stop-color="#FFEF37"/>
<stop offset="0.559247" stop-color="#014280"/>
</linearGradient>
</defs>
</svg>
