<svg width="16" height="19" viewBox="0 0 16 19" fill="none" xmlns="http://www.w3.org/2000/svg">
<path d="M15.0714 14.059L13.7643 12.8911C13.7214 12.8337 13.6786 12.7762 13.6786 12.6997V8.14305C13.6786 5.76902 11.8357 3.75876 9.37143 3.20354C9.58572 2.95465 9.71429 2.62918 9.71429 2.28456C9.71429 1.44216 8.94286 0.75293 8 0.75293C7.05714 0.75293 6.28571 1.44216 6.28571 2.28456C6.28571 2.62918 6.41429 2.95465 6.62857 3.20354C4.14286 3.75876 2.32143 5.76902 2.32143 8.14305V12.6997C2.32143 12.7762 2.27857 12.8337 2.23571 12.8911L0.928571 14.059C0.65 14.3079 0.5 14.6333 0.5 14.978C0.5 15.7055 1.14286 16.2798 1.95714 16.2798H5.68571C5.9 17.2563 6.84286 18.0029 8 18.0029C9.15714 18.0029 10.1214 17.2563 10.3143 16.2798H14.0429C14.8571 16.2798 15.5 15.7055 15.5 14.978C15.5 14.6333 15.35 14.3079 15.0714 14.059ZM8 1.53789C8.47143 1.53789 8.85714 1.88251 8.85714 2.30371C8.85714 2.7249 8.47143 3.06952 8 3.06952C7.52857 3.06952 7.14286 2.7249 7.14286 2.30371C7.14286 1.88251 7.52857 1.53789 8 1.53789ZM3.17857 8.14305C3.17857 5.76902 5.34286 3.83534 8 3.83534C10.6571 3.83534 12.8214 5.76902 12.8214 8.14305V11.8764H3.17857V8.14305ZM8 17.2371C7.31429 17.2371 6.75714 16.8351 6.56429 16.2798H9.43571C9.24286 16.8351 8.68571 17.2371 8 17.2371ZM14.0429 15.514H1.95714C1.63571 15.514 1.35714 15.2843 1.35714 14.978C1.35714 14.8439 1.42143 14.7099 1.52857 14.595L2.83571 13.4272C3.05 13.2357 3.17857 12.9677 3.17857 12.6997V12.6422H12.8429V12.7188C12.8429 12.9868 12.9714 13.2549 13.1857 13.4463L14.4929 14.6142C14.6 14.7099 14.6643 14.8439 14.6643 14.9971C14.6429 15.2843 14.3857 15.514 14.0429 15.514Z" fill="#2D2D2D"/>
</svg>
