<svg width="20" height="20" viewBox="0 0 20 20" fill="none" xmlns="http://www.w3.org/2000/svg">
<g clip-path="url(#clip0_7205_19146)">
<path d="M0.968848 12.6211C2.27822 10.543 5.75635 9.05859 9.84385 9.05859C13.9313 9.05859 17.4095 10.543 18.7188 12.6211H19.2751V14.4492C19.2751 17.4273 15.0532 19.8398 9.84385 19.8398C4.63447 19.8398 0.412598 17.4273 0.412598 14.4492V12.6211H0.968848Z" fill="url(#paint0_linear_7205_19146)"/>
<path d="M9.84385 19.6338C15.0532 19.6338 19.2751 17.2213 19.2751 14.2432V14.4525C19.2751 17.4307 15.0532 19.8432 9.84385 19.8432C4.63447 19.8432 0.412598 17.4307 0.412598 14.4525V14.2432C0.412598 17.2213 4.63447 19.6338 9.84385 19.6338Z" fill="url(#paint1_linear_7205_19146)"/>
<path d="M9.84385 18.0127C15.0526 18.0127 19.2751 15.5992 19.2751 12.6221C19.2751 9.64491 15.0526 7.23145 9.84385 7.23145C4.63511 7.23145 0.412598 9.64491 0.412598 12.6221C0.412598 15.5992 4.63511 18.0127 9.84385 18.0127Z" fill="url(#paint2_linear_7205_19146)"/>
<path d="M9.84365 17.4312C14.4897 17.4312 18.2562 15.278 18.2562 12.6219C18.2562 9.96573 14.4897 7.8125 9.84365 7.8125C5.19756 7.8125 1.43115 9.96573 1.43115 12.6219C1.43115 15.278 5.19756 17.4312 9.84365 17.4312Z" fill="url(#paint3_linear_7205_19146)"/>
<path d="M9.84394 17.4308C14.2812 17.4308 17.8783 15.3755 17.8783 12.8401C17.8783 10.3048 14.2812 8.24951 9.84394 8.24951C5.40668 8.24951 1.80957 10.3048 1.80957 12.8401C1.80957 15.3755 5.40668 17.4308 9.84394 17.4308Z" fill="url(#paint4_linear_7205_19146)"/>
<path d="M4.49072 10.5786V11.0286L10.6095 15.3411L9.59072 15.6098V16.0598L10.6095 16.7786L15.7095 13.1848V12.7348L13.6688 13.1848L10.6095 11.0286L11.6282 10.3098V9.85984C11.6282 9.85984 9.5876 9.86297 8.48447 9.84422C7.23447 9.82234 4.49072 10.5786 4.49072 10.5786Z" fill="url(#paint5_linear_7205_19146)"/>
<path d="M6.52842 9.14033L4.48779 10.5778L10.6065 14.8903L9.58779 15.6091L10.6065 16.3278L15.7065 12.7341L14.6878 12.0153L13.669 12.7341L10.6097 10.5778L11.6284 9.85908L10.2628 8.91846C10.2628 8.91846 9.58779 9.41221 8.48467 9.39346C7.23467 9.37158 6.52842 9.14033 6.52842 9.14033Z" fill="url(#paint6_linear_7205_19146)"/>
<path d="M18.7188 10.4741C17.4095 8.396 13.9313 6.91162 9.84385 6.91162C5.75635 6.91162 2.27822 8.396 0.968848 10.4741H0.412598V12.3022C0.412598 15.2804 4.63447 17.6929 9.84385 17.6929C15.0532 17.6929 19.2751 15.2804 19.2751 12.3022V10.4741H18.7188Z" fill="url(#paint7_linear_7205_19146)"/>
<path d="M9.84385 17.4878C4.63447 17.4878 0.412598 15.0753 0.412598 12.0972V12.3065C0.412598 15.2847 4.63447 17.6972 9.84385 17.6972C15.0532 17.6972 19.2751 15.2847 19.2751 12.3065V12.0972C19.2751 15.0722 15.0532 17.4878 9.84385 17.4878Z" fill="url(#paint8_linear_7205_19146)"/>
<path d="M9.84385 15.8657C15.0526 15.8657 19.2751 13.4523 19.2751 10.4751C19.2751 7.49794 15.0526 5.08447 9.84385 5.08447C4.63511 5.08447 0.412598 7.49794 0.412598 10.4751C0.412598 13.4523 4.63511 15.8657 9.84385 15.8657Z" fill="url(#paint9_linear_7205_19146)"/>
<path d="M9.84365 15.2853C14.4897 15.2853 18.2562 13.132 18.2562 10.4759C18.2562 7.81973 14.4897 5.6665 9.84365 5.6665C5.19756 5.6665 1.43115 7.81973 1.43115 10.4759C1.43115 13.132 5.19756 15.2853 9.84365 15.2853Z" fill="url(#paint10_linear_7205_19146)"/>
<path d="M9.84394 15.2813C14.2812 15.2813 17.8783 13.2261 17.8783 10.6907C17.8783 8.15539 14.2812 6.1001 9.84394 6.1001C5.40668 6.1001 1.80957 8.15539 1.80957 10.6907C1.80957 13.2261 5.40668 15.2813 9.84394 15.2813Z" fill="url(#paint11_linear_7205_19146)"/>
<path d="M15.1973 8.43015V8.88015L9.07852 13.1927L10.0973 13.4614V13.9114L9.07852 14.6302L3.97852 11.0364V10.5864L6.01914 11.0364L9.07852 8.88015L8.05977 8.1614V7.7114C8.05977 7.7114 10.1004 7.71453 11.2035 7.69578C12.4535 7.6739 15.1973 8.43015 15.1973 8.43015Z" fill="url(#paint12_linear_7205_19146)"/>
<path d="M13.1562 6.99043L15.1968 8.42793L9.07803 12.7404L10.0968 13.4592L9.07803 14.1779L3.97803 10.5842L4.99678 9.86543L6.01553 10.5842L9.0749 8.42793L8.05615 7.70918L9.42178 6.76855C9.42178 6.76855 10.0968 7.2623 11.1999 7.24355C12.453 7.2248 13.1562 6.99043 13.1562 6.99043Z" fill="url(#paint13_linear_7205_19146)"/>
<path d="M1.5377 7.86914C2.84707 5.79102 6.3252 4.30664 10.4127 4.30664C14.5002 4.30664 17.9783 5.79102 19.2877 7.86914H19.8439V9.69727C19.8439 12.6754 15.6221 15.0879 10.4127 15.0879C5.20332 15.0879 0.981445 12.6754 0.981445 9.69727V7.86914H1.5377Z" fill="url(#paint14_linear_7205_19146)"/>
<path d="M10.4127 14.8804C15.6221 14.8804 19.8439 12.4679 19.8439 9.48975V9.69912C19.8439 12.6772 15.6221 15.0897 10.4127 15.0897C5.20332 15.0897 0.981447 12.6772 0.981447 9.69912V9.48975C0.978322 12.4647 5.20332 14.8804 10.4127 14.8804Z" fill="url(#paint15_linear_7205_19146)"/>
<path d="M10.4127 13.2593C15.6214 13.2593 19.8439 10.8458 19.8439 7.86865C19.8439 4.89149 15.6214 2.47803 10.4127 2.47803C5.20396 2.47803 0.981445 4.89149 0.981445 7.86865C0.981445 10.8458 5.20396 13.2593 10.4127 13.2593Z" fill="url(#paint16_linear_7205_19146)"/>
<path d="M10.4125 12.6778C15.0586 12.6778 18.825 10.5246 18.825 7.86846C18.825 5.21231 15.0586 3.05908 10.4125 3.05908C5.76641 3.05908 2 5.21231 2 7.86846C2 10.5246 5.76641 12.6778 10.4125 12.6778Z" fill="url(#paint17_linear_7205_19146)"/>
<path d="M10.4128 12.6749C14.8501 12.6749 18.4472 10.6196 18.4472 8.08428C18.4472 5.54895 14.8501 3.49365 10.4128 3.49365C5.97553 3.49365 2.37842 5.54895 2.37842 8.08428C2.37842 10.6196 5.97553 12.6749 10.4128 12.6749Z" fill="url(#paint18_linear_7205_19146)"/>
<path d="M5.05957 5.82127V6.27127L11.1783 10.5838L10.1596 10.8525V11.3025L11.1783 12.0213L16.2783 8.42752V7.97752L14.2377 8.42752L11.1783 6.27127L12.1971 5.55252V5.10252C12.1971 5.10252 10.1564 5.10564 9.05332 5.08689C7.80332 5.06502 5.05957 5.82127 5.05957 5.82127Z" fill="url(#paint19_linear_7205_19146)"/>
<path d="M7.09727 4.38447L5.05664 5.82197L11.1754 10.1345L10.1566 10.8532L11.1754 11.572L16.2754 7.97822L15.2566 7.25947L14.2379 7.97822L11.1785 5.82197L12.1973 5.10322L10.8316 4.1626C10.8316 4.1626 10.1566 4.65635 9.05352 4.6376C7.80352 4.61572 7.09727 4.38447 7.09727 4.38447Z" fill="url(#paint20_linear_7205_19146)"/>
<path d="M18.4625 5.54736C17.1531 3.46924 13.675 1.98486 9.5875 1.98486C5.5 1.98486 2.02188 3.46924 0.7125 5.54736H0.15625V7.37549C0.15625 10.3536 4.37813 12.7661 9.5875 12.7661C14.7969 12.7661 19.0188 10.3536 19.0188 7.37549V5.54736H18.4625Z" fill="url(#paint21_linear_7205_19146)"/>
<path d="M9.5875 12.5586C4.37813 12.5586 0.15625 10.1461 0.15625 7.16797V7.37734C0.15625 10.3555 4.37813 12.768 9.5875 12.768C14.7969 12.768 19.0188 10.3555 19.0188 7.37734V7.16797C19.0219 10.1461 14.7969 12.5586 9.5875 12.5586Z" fill="url(#paint22_linear_7205_19146)"/>
<path d="M9.5875 10.9375C14.7962 10.9375 19.0188 8.52403 19.0188 5.54688C19.0188 2.56972 14.7962 0.15625 9.5875 0.15625C4.37877 0.15625 0.15625 2.56972 0.15625 5.54688C0.15625 8.52403 4.37877 10.9375 9.5875 10.9375Z" fill="url(#paint23_linear_7205_19146)"/>
<path d="M9.58731 10.3561C14.2334 10.3561 17.9998 8.20282 17.9998 5.54668C17.9998 2.89054 14.2334 0.737305 9.58731 0.737305C4.94121 0.737305 1.1748 2.89054 1.1748 5.54668C1.1748 8.20282 4.94121 10.3561 9.58731 10.3561Z" fill="url(#paint24_linear_7205_19146)"/>
<path d="M9.5876 10.357C14.0249 10.357 17.622 8.30174 17.622 5.76641C17.622 3.23107 14.0249 1.17578 9.5876 1.17578C5.15033 1.17578 1.55322 3.23107 1.55322 5.76641C1.55322 8.30174 5.15033 10.357 9.5876 10.357Z" fill="url(#paint25_linear_7205_19146)"/>
<path d="M14.9404 3.5034V3.9534L8.82168 8.26589L9.84043 8.53464V8.98464L8.82168 9.70339L3.72168 6.10964V5.65964L5.7623 6.10964L8.82168 3.9534L7.80293 3.23465V2.78465C7.80293 2.78465 9.84355 2.78777 10.9467 2.76902C12.1967 2.74715 14.9404 3.5034 14.9404 3.5034Z" fill="url(#paint26_linear_7205_19146)"/>
<path d="M12.9032 2.06514L14.9438 3.50264L8.8251 7.81514L9.84385 8.53389L8.8251 9.25264L3.7251 5.65889L4.74385 4.94014L5.7626 5.65889L8.82197 3.50264L7.80322 2.78389L9.16885 1.84326C9.16885 1.84326 9.84385 2.33701 10.947 2.31826C12.197 2.29639 12.9032 2.06514 12.9032 2.06514Z" fill="url(#paint27_linear_7205_19146)"/>
</g>
<defs>
<linearGradient id="paint0_linear_7205_19146" x1="23.7592" y1="14.4511" x2="-3.61928" y2="14.4511" gradientUnits="userSpaceOnUse">
<stop stop-color="#FFC23F"/>
<stop offset="0.115" stop-color="#FFF19F"/>
<stop offset="0.148" stop-color="#BF5900"/>
<stop offset="0.242" stop-color="#BF5900"/>
<stop offset="0.357" stop-color="#DFA000"/>
<stop offset="0.494" stop-color="#FFF19F"/>
<stop offset="0.775" stop-color="#DFA000"/>
<stop offset="0.824" stop-color="#CB7400"/>
<stop offset="0.885" stop-color="white"/>
<stop offset="1" stop-color="#FFD75F"/>
</linearGradient>
<linearGradient id="paint1_linear_7205_19146" x1="23.7592" y1="17.0429" x2="-3.61928" y2="17.0429" gradientUnits="userSpaceOnUse">
<stop stop-color="#FFC23F"/>
<stop offset="0.115" stop-color="#FFF19F"/>
<stop offset="0.148" stop-color="#BF5900"/>
<stop offset="0.242" stop-color="#BF5900"/>
<stop offset="0.357" stop-color="#DFA000"/>
<stop offset="0.494" stop-color="#FFF19F"/>
<stop offset="0.775" stop-color="#DFA000"/>
<stop offset="0.824" stop-color="#CB7400"/>
<stop offset="0.885" stop-color="white"/>
<stop offset="1" stop-color="#FFD75F"/>
</linearGradient>
<linearGradient id="paint2_linear_7205_19146" x1="-7.64584" y1="12.6233" x2="24.7379" y2="12.6233" gradientUnits="userSpaceOnUse">
<stop stop-color="#FFC23F"/>
<stop offset="0.115" stop-color="#FFF19F"/>
<stop offset="0.148" stop-color="#BF5900"/>
<stop offset="0.242" stop-color="#BF5900"/>
<stop offset="0.357" stop-color="#DFA000"/>
<stop offset="0.494" stop-color="#FFF19F"/>
<stop offset="0.775" stop-color="#DFA000"/>
<stop offset="0.824" stop-color="#CB7400"/>
<stop offset="0.885" stop-color="white"/>
<stop offset="1" stop-color="#FFD75F"/>
</linearGradient>
<linearGradient id="paint3_linear_7205_19146" x1="18.2562" y1="12.6231" x2="1.43084" y2="12.6231" gradientUnits="userSpaceOnUse">
<stop stop-color="#FFC23F"/>
<stop offset="0.115" stop-color="#FFF19F"/>
<stop offset="0.148" stop-color="#BF5900"/>
<stop offset="0.242" stop-color="#BF5900"/>
<stop offset="0.357" stop-color="#DFA000"/>
<stop offset="0.494" stop-color="#FFF19F"/>
<stop offset="0.775" stop-color="#DFA000"/>
<stop offset="0.824" stop-color="#CB7400"/>
<stop offset="0.885" stop-color="white"/>
<stop offset="1" stop-color="#FFD75F"/>
</linearGradient>
<linearGradient id="paint4_linear_7205_19146" x1="1.82801" y1="2.54139" x2="16.7155" y2="21.667" gradientUnits="userSpaceOnUse">
<stop stop-color="#FFC23F"/>
<stop offset="0.115" stop-color="#FFF19F"/>
<stop offset="0.148" stop-color="#BF5900"/>
<stop offset="0.242" stop-color="#BF5900"/>
<stop offset="0.357" stop-color="#DFA000"/>
<stop offset="0.494" stop-color="#FFF19F"/>
<stop offset="0.775" stop-color="#DFA000"/>
<stop offset="0.824" stop-color="#CB7400"/>
<stop offset="0.885" stop-color="white"/>
<stop offset="1" stop-color="#FFD75F"/>
</linearGradient>
<linearGradient id="paint5_linear_7205_19146" x1="19.3317" y1="14.8205" x2="0.833536" y2="11.4389" gradientUnits="userSpaceOnUse">
<stop stop-color="#FFC23F"/>
<stop offset="0.115" stop-color="#FFF19F"/>
<stop offset="0.148" stop-color="#BF5900"/>
<stop offset="0.242" stop-color="#BF5900"/>
<stop offset="0.357" stop-color="#DFA000"/>
<stop offset="0.494" stop-color="#FFF19F"/>
<stop offset="0.775" stop-color="#DFA000"/>
<stop offset="0.824" stop-color="#CB7400"/>
<stop offset="0.885" stop-color="white"/>
<stop offset="1" stop-color="#FFD75F"/>
</linearGradient>
<linearGradient id="paint6_linear_7205_19146" x1="2.43311" y1="19.155" x2="15.4903" y2="6.38127" gradientUnits="userSpaceOnUse">
<stop stop-color="#FFC23F"/>
<stop offset="0.115" stop-color="#FFF19F"/>
<stop offset="0.148" stop-color="#BF5900"/>
<stop offset="0.242" stop-color="#BF5900"/>
<stop offset="0.357" stop-color="#DFA000"/>
<stop offset="0.494" stop-color="#FFF19F"/>
<stop offset="0.775" stop-color="#DFA000"/>
<stop offset="0.824" stop-color="#CB7400"/>
<stop offset="0.885" stop-color="white"/>
<stop offset="1" stop-color="#FFD75F"/>
</linearGradient>
<linearGradient id="paint7_linear_7205_19146" x1="-4.07178" y1="12.3035" x2="23.3067" y2="12.3035" gradientUnits="userSpaceOnUse">
<stop stop-color="#FFC23F"/>
<stop offset="0.115" stop-color="#FFF19F"/>
<stop offset="0.148" stop-color="#BF5900"/>
<stop offset="0.242" stop-color="#BF5900"/>
<stop offset="0.357" stop-color="#DFA000"/>
<stop offset="0.494" stop-color="#FFF19F"/>
<stop offset="0.775" stop-color="#DFA000"/>
<stop offset="0.824" stop-color="#CB7400"/>
<stop offset="0.885" stop-color="white"/>
<stop offset="1" stop-color="#FFD75F"/>
</linearGradient>
<linearGradient id="paint8_linear_7205_19146" x1="-4.07178" y1="14.8959" x2="23.3067" y2="14.8959" gradientUnits="userSpaceOnUse">
<stop stop-color="#FFC23F"/>
<stop offset="0.115" stop-color="#FFF19F"/>
<stop offset="0.148" stop-color="#BF5900"/>
<stop offset="0.242" stop-color="#BF5900"/>
<stop offset="0.357" stop-color="#DFA000"/>
<stop offset="0.494" stop-color="#FFF19F"/>
<stop offset="0.775" stop-color="#DFA000"/>
<stop offset="0.824" stop-color="#CB7400"/>
<stop offset="0.885" stop-color="white"/>
<stop offset="1" stop-color="#FFD75F"/>
</linearGradient>
<linearGradient id="paint9_linear_7205_19146" x1="27.3332" y1="10.4754" x2="-5.05053" y2="10.4754" gradientUnits="userSpaceOnUse">
<stop stop-color="#FFC23F"/>
<stop offset="0.115" stop-color="#FFF19F"/>
<stop offset="0.148" stop-color="#BF5900"/>
<stop offset="0.242" stop-color="#BF5900"/>
<stop offset="0.357" stop-color="#DFA000"/>
<stop offset="0.494" stop-color="#FFF19F"/>
<stop offset="0.775" stop-color="#DFA000"/>
<stop offset="0.824" stop-color="#CB7400"/>
<stop offset="0.885" stop-color="white"/>
<stop offset="1" stop-color="#FFD75F"/>
</linearGradient>
<linearGradient id="paint10_linear_7205_19146" x1="1.43084" y1="10.4762" x2="18.2562" y2="10.4762" gradientUnits="userSpaceOnUse">
<stop stop-color="#FFC23F"/>
<stop offset="0.115" stop-color="#FFF19F"/>
<stop offset="0.148" stop-color="#BF5900"/>
<stop offset="0.242" stop-color="#BF5900"/>
<stop offset="0.357" stop-color="#DFA000"/>
<stop offset="0.494" stop-color="#FFF19F"/>
<stop offset="0.775" stop-color="#DFA000"/>
<stop offset="0.824" stop-color="#CB7400"/>
<stop offset="0.885" stop-color="white"/>
<stop offset="1" stop-color="#FFD75F"/>
</linearGradient>
<linearGradient id="paint11_linear_7205_19146" x1="17.8596" y1="0.394473" x2="2.97207" y2="19.5198" gradientUnits="userSpaceOnUse">
<stop stop-color="#FFC23F"/>
<stop offset="0.115" stop-color="#FFF19F"/>
<stop offset="0.148" stop-color="#BF5900"/>
<stop offset="0.242" stop-color="#BF5900"/>
<stop offset="0.357" stop-color="#DFA000"/>
<stop offset="0.494" stop-color="#FFF19F"/>
<stop offset="0.775" stop-color="#DFA000"/>
<stop offset="0.824" stop-color="#CB7400"/>
<stop offset="0.885" stop-color="white"/>
<stop offset="1" stop-color="#FFD75F"/>
</linearGradient>
<linearGradient id="paint12_linear_7205_19146" x1="0.356016" y1="12.6711" x2="18.8541" y2="9.28984" gradientUnits="userSpaceOnUse">
<stop stop-color="#FFC23F"/>
<stop offset="0.115" stop-color="#FFF19F"/>
<stop offset="0.148" stop-color="#BF5900"/>
<stop offset="0.242" stop-color="#BF5900"/>
<stop offset="0.357" stop-color="#DFA000"/>
<stop offset="0.494" stop-color="#FFF19F"/>
<stop offset="0.775" stop-color="#DFA000"/>
<stop offset="0.824" stop-color="#CB7400"/>
<stop offset="0.885" stop-color="white"/>
<stop offset="1" stop-color="#FFD75F"/>
</linearGradient>
<linearGradient id="paint13_linear_7205_19146" x1="17.254" y1="17.0076" x2="4.19709" y2="4.23355" gradientUnits="userSpaceOnUse">
<stop stop-color="#FFC23F"/>
<stop offset="0.115" stop-color="#FFF19F"/>
<stop offset="0.148" stop-color="#BF5900"/>
<stop offset="0.242" stop-color="#BF5900"/>
<stop offset="0.357" stop-color="#DFA000"/>
<stop offset="0.494" stop-color="#FFF19F"/>
<stop offset="0.775" stop-color="#DFA000"/>
<stop offset="0.824" stop-color="#CB7400"/>
<stop offset="0.885" stop-color="white"/>
<stop offset="1" stop-color="#FFD75F"/>
</linearGradient>
<linearGradient id="paint14_linear_7205_19146" x1="24.3271" y1="9.69727" x2="-3.05168" y2="9.69727" gradientUnits="userSpaceOnUse">
<stop stop-color="#FFC23F"/>
<stop offset="0.115" stop-color="#FFF19F"/>
<stop offset="0.148" stop-color="#BF5900"/>
<stop offset="0.242" stop-color="#BF5900"/>
<stop offset="0.357" stop-color="#DFA000"/>
<stop offset="0.494" stop-color="#FFF19F"/>
<stop offset="0.775" stop-color="#DFA000"/>
<stop offset="0.824" stop-color="#CB7400"/>
<stop offset="0.885" stop-color="white"/>
<stop offset="1" stop-color="#FFD75F"/>
</linearGradient>
<linearGradient id="paint15_linear_7205_19146" x1="24.3271" y1="12.2876" x2="-3.05168" y2="12.2876" gradientUnits="userSpaceOnUse">
<stop stop-color="#FFC23F"/>
<stop offset="0.115" stop-color="#FFF19F"/>
<stop offset="0.148" stop-color="#BF5900"/>
<stop offset="0.242" stop-color="#BF5900"/>
<stop offset="0.357" stop-color="#DFA000"/>
<stop offset="0.494" stop-color="#FFF19F"/>
<stop offset="0.775" stop-color="#DFA000"/>
<stop offset="0.824" stop-color="#CB7400"/>
<stop offset="0.885" stop-color="white"/>
<stop offset="1" stop-color="#FFD75F"/>
</linearGradient>
<linearGradient id="paint16_linear_7205_19146" x1="-7.07793" y1="7.86771" x2="25.3058" y2="7.86771" gradientUnits="userSpaceOnUse">
<stop stop-color="#FFC23F"/>
<stop offset="0.115" stop-color="#FFF19F"/>
<stop offset="0.148" stop-color="#BF5900"/>
<stop offset="0.242" stop-color="#BF5900"/>
<stop offset="0.357" stop-color="#DFA000"/>
<stop offset="0.494" stop-color="#FFF19F"/>
<stop offset="0.775" stop-color="#DFA000"/>
<stop offset="0.824" stop-color="#CB7400"/>
<stop offset="0.885" stop-color="white"/>
<stop offset="1" stop-color="#FFD75F"/>
</linearGradient>
<linearGradient id="paint17_linear_7205_19146" x1="18.8241" y1="7.86752" x2="1.99875" y2="7.86752" gradientUnits="userSpaceOnUse">
<stop stop-color="#FFC23F"/>
<stop offset="0.115" stop-color="#FFF19F"/>
<stop offset="0.148" stop-color="#BF5900"/>
<stop offset="0.242" stop-color="#BF5900"/>
<stop offset="0.357" stop-color="#DFA000"/>
<stop offset="0.494" stop-color="#FFF19F"/>
<stop offset="0.775" stop-color="#DFA000"/>
<stop offset="0.824" stop-color="#CB7400"/>
<stop offset="0.885" stop-color="white"/>
<stop offset="1" stop-color="#FFD75F"/>
</linearGradient>
<linearGradient id="paint18_linear_7205_19146" x1="2.39561" y1="-2.21322" x2="17.2831" y2="16.9124" gradientUnits="userSpaceOnUse">
<stop stop-color="#FFC23F"/>
<stop offset="0.115" stop-color="#FFF19F"/>
<stop offset="0.148" stop-color="#BF5900"/>
<stop offset="0.242" stop-color="#BF5900"/>
<stop offset="0.357" stop-color="#DFA000"/>
<stop offset="0.494" stop-color="#FFF19F"/>
<stop offset="0.775" stop-color="#DFA000"/>
<stop offset="0.824" stop-color="#CB7400"/>
<stop offset="0.885" stop-color="white"/>
<stop offset="1" stop-color="#FFD75F"/>
</linearGradient>
<linearGradient id="paint19_linear_7205_19146" x1="19.8993" y1="10.0644" x2="1.40145" y2="6.68283" gradientUnits="userSpaceOnUse">
<stop stop-color="#FFC23F"/>
<stop offset="0.115" stop-color="#FFF19F"/>
<stop offset="0.148" stop-color="#BF5900"/>
<stop offset="0.242" stop-color="#BF5900"/>
<stop offset="0.357" stop-color="#DFA000"/>
<stop offset="0.494" stop-color="#FFF19F"/>
<stop offset="0.775" stop-color="#DFA000"/>
<stop offset="0.824" stop-color="#CB7400"/>
<stop offset="0.885" stop-color="white"/>
<stop offset="1" stop-color="#FFD75F"/>
</linearGradient>
<linearGradient id="paint20_linear_7205_19146" x1="3.00102" y1="14.4004" x2="16.0579" y2="1.62635" gradientUnits="userSpaceOnUse">
<stop stop-color="#FFC23F"/>
<stop offset="0.115" stop-color="#FFF19F"/>
<stop offset="0.148" stop-color="#BF5900"/>
<stop offset="0.242" stop-color="#BF5900"/>
<stop offset="0.357" stop-color="#DFA000"/>
<stop offset="0.494" stop-color="#FFF19F"/>
<stop offset="0.775" stop-color="#DFA000"/>
<stop offset="0.824" stop-color="#CB7400"/>
<stop offset="0.885" stop-color="white"/>
<stop offset="1" stop-color="#FFD75F"/>
</linearGradient>
<linearGradient id="paint21_linear_7205_19146" x1="-4.32688" y1="7.37736" x2="23.0519" y2="7.37736" gradientUnits="userSpaceOnUse">
<stop stop-color="#FFC23F"/>
<stop offset="0.115" stop-color="#FFF19F"/>
<stop offset="0.148" stop-color="#BF5900"/>
<stop offset="0.242" stop-color="#BF5900"/>
<stop offset="0.357" stop-color="#DFA000"/>
<stop offset="0.494" stop-color="#FFF19F"/>
<stop offset="0.775" stop-color="#DFA000"/>
<stop offset="0.824" stop-color="#CB7400"/>
<stop offset="0.885" stop-color="white"/>
<stop offset="1" stop-color="#FFD75F"/>
</linearGradient>
<linearGradient id="paint22_linear_7205_19146" x1="-4.32688" y1="9.96766" x2="23.0519" y2="9.96766" gradientUnits="userSpaceOnUse">
<stop stop-color="#FFC23F"/>
<stop offset="0.115" stop-color="#FFF19F"/>
<stop offset="0.148" stop-color="#BF5900"/>
<stop offset="0.242" stop-color="#BF5900"/>
<stop offset="0.357" stop-color="#DFA000"/>
<stop offset="0.494" stop-color="#FFF19F"/>
<stop offset="0.775" stop-color="#DFA000"/>
<stop offset="0.824" stop-color="#CB7400"/>
<stop offset="0.885" stop-color="white"/>
<stop offset="1" stop-color="#FFD75F"/>
</linearGradient>
<linearGradient id="paint23_linear_7205_19146" x1="27.0781" y1="5.54812" x2="-5.30531" y2="5.54812" gradientUnits="userSpaceOnUse">
<stop stop-color="#FFC23F"/>
<stop offset="0.115" stop-color="#FFF19F"/>
<stop offset="0.148" stop-color="#BF5900"/>
<stop offset="0.242" stop-color="#BF5900"/>
<stop offset="0.357" stop-color="#DFA000"/>
<stop offset="0.494" stop-color="#FFF19F"/>
<stop offset="0.775" stop-color="#DFA000"/>
<stop offset="0.824" stop-color="#CB7400"/>
<stop offset="0.885" stop-color="white"/>
<stop offset="1" stop-color="#FFD75F"/>
</linearGradient>
<linearGradient id="paint24_linear_7205_19146" x1="1.17574" y1="5.54793" x2="18.0011" y2="5.54793" gradientUnits="userSpaceOnUse">
<stop stop-color="#FFC23F"/>
<stop offset="0.115" stop-color="#FFF19F"/>
<stop offset="0.148" stop-color="#BF5900"/>
<stop offset="0.242" stop-color="#BF5900"/>
<stop offset="0.357" stop-color="#DFA000"/>
<stop offset="0.494" stop-color="#FFF19F"/>
<stop offset="0.775" stop-color="#DFA000"/>
<stop offset="0.824" stop-color="#CB7400"/>
<stop offset="0.885" stop-color="white"/>
<stop offset="1" stop-color="#FFD75F"/>
</linearGradient>
<linearGradient id="paint25_linear_7205_19146" x1="17.6048" y1="-4.53234" x2="2.71728" y2="14.5933" gradientUnits="userSpaceOnUse">
<stop stop-color="#FFC23F"/>
<stop offset="0.115" stop-color="#FFF19F"/>
<stop offset="0.148" stop-color="#BF5900"/>
<stop offset="0.242" stop-color="#BF5900"/>
<stop offset="0.357" stop-color="#DFA000"/>
<stop offset="0.494" stop-color="#FFF19F"/>
<stop offset="0.775" stop-color="#DFA000"/>
<stop offset="0.824" stop-color="#CB7400"/>
<stop offset="0.885" stop-color="white"/>
<stop offset="1" stop-color="#FFD75F"/>
</linearGradient>
<linearGradient id="paint26_linear_7205_19146" x1="0.100742" y1="7.74527" x2="18.5989" y2="4.36371" gradientUnits="userSpaceOnUse">
<stop stop-color="#FFC23F"/>
<stop offset="0.115" stop-color="#FFF19F"/>
<stop offset="0.148" stop-color="#BF5900"/>
<stop offset="0.242" stop-color="#BF5900"/>
<stop offset="0.357" stop-color="#DFA000"/>
<stop offset="0.494" stop-color="#FFF19F"/>
<stop offset="0.775" stop-color="#DFA000"/>
<stop offset="0.824" stop-color="#CB7400"/>
<stop offset="0.885" stop-color="white"/>
<stop offset="1" stop-color="#FFD75F"/>
</linearGradient>
<linearGradient id="paint27_linear_7205_19146" x1="16.9995" y1="12.0801" x2="3.9426" y2="-0.693925" gradientUnits="userSpaceOnUse">
<stop stop-color="#FFC23F"/>
<stop offset="0.115" stop-color="#FFF19F"/>
<stop offset="0.148" stop-color="#BF5900"/>
<stop offset="0.242" stop-color="#BF5900"/>
<stop offset="0.357" stop-color="#DFA000"/>
<stop offset="0.494" stop-color="#FFF19F"/>
<stop offset="0.775" stop-color="#DFA000"/>
<stop offset="0.824" stop-color="#CB7400"/>
<stop offset="0.885" stop-color="white"/>
<stop offset="1" stop-color="#FFD75F"/>
</linearGradient>
<clipPath id="clip0_7205_19146">
<rect width="20" height="20" fill="white"/>
</clipPath>
</defs>
</svg>
