<svg width="43" height="42" viewBox="0 0 43 42" fill="none" xmlns="http://www.w3.org/2000/svg">
<g opacity="0.3" filter="url(#filter0_f_6825_6502)">
<ellipse cx="21.5" cy="37.5" rx="17.5" ry="0.5" fill="black"/>
</g>
<path d="M27.1218 10.183L27.304 10.0668L27.1314 9.93674C25.5622 8.75483 23.6115 8.05313 21.5 8.05313C16.2807 8.05313 12.1215 12.3178 12.1215 17.4316C12.1215 17.9151 11.7295 18.307 11.2461 18.307H5.02539C4.54194 18.307 4.15 17.9151 4.15 17.4316C4.15 7.90323 11.9327 0.15 21.5 0.15C31.0673 0.15 38.85 7.90323 38.85 17.4316C38.85 17.9151 38.4581 18.307 37.9746 18.307H31.7539C31.2705 18.307 30.8785 17.9151 30.8785 17.4316C30.8785 15.3987 30.228 13.5148 29.1247 11.9769L28.9751 11.7685L28.8668 12.001L25.0836 20.1239C24.4373 21.5116 23.0303 22.4086 21.5 22.4086C19.3212 22.4086 17.5484 20.6358 17.5484 18.457C17.5484 17.1 18.2317 15.8543 19.377 15.1238L27.1218 10.183ZM10.2678 16.5562H10.4048L10.4172 16.4198C10.6264 14.1099 11.5439 12.0014 12.9513 10.314L13.039 10.2087L12.9421 10.1118L10.0075 7.17715L9.89465 7.06434L9.789 7.18388C7.585 9.67756 6.17 12.8785 5.93625 16.3963L5.92562 16.5562H6.08592H10.2678ZM20.4881 6.34883L20.6246 6.33647V6.19944V2.08551V1.92535L20.4648 1.93583C16.9545 2.16596 13.7576 3.55667 11.2593 5.72593L11.1378 5.83145L11.2516 5.94526L14.1802 8.87384L14.2771 8.97074L14.3823 8.88297C16.0697 7.47555 18.1782 6.55804 20.4881 6.34883ZM26.4678 13.0049L26.6852 12.5383L26.2512 12.8151L20.3185 16.5998C19.6806 17.0067 19.2992 17.7014 19.2992 18.457C19.2992 19.6707 20.2864 20.6578 21.5 20.6578C22.3529 20.6578 23.1363 20.1583 23.4965 19.3847L26.4678 13.0049ZM28.6177 8.88297L28.7229 8.97074L28.8198 8.87384L31.748 5.94567L31.8618 5.83186L31.7403 5.72634C29.242 3.55703 26.0455 2.16569 22.5352 1.93556L22.3754 1.92508V2.08523V6.19944V6.33647L22.5119 6.34883C24.8218 6.55804 26.9303 7.47562 28.6177 8.88297ZM32.5828 16.4198L32.5952 16.5562H32.7322H36.9152H37.0755L37.0649 16.3963C36.8311 12.8785 35.4151 9.67754 33.2111 7.18374L33.1054 7.0642L32.9926 7.17701L30.0578 10.1118L29.9609 10.2087L30.0487 10.314C31.4561 12.0014 32.3736 14.1099 32.5828 16.4198Z" fill="url(#paint0_linear_6825_6502)" stroke="#F6F9FC" stroke-width="0.3"/>
<defs>
<filter id="filter0_f_6825_6502" x="0" y="33" width="43" height="9" filterUnits="userSpaceOnUse" color-interpolation-filters="sRGB">
<feFlood flood-opacity="0" result="BackgroundImageFix"/>
<feBlend mode="normal" in="SourceGraphic" in2="BackgroundImageFix" result="shape"/>
<feGaussianBlur stdDeviation="2" result="effect1_foregroundBlur_6825_6502"/>
</filter>
<linearGradient id="paint0_linear_6825_6502" x1="16.8947" y1="-0.740793" x2="25.252" y2="12.0192" gradientUnits="userSpaceOnUse">
<stop stop-color="#95DFFF"/>
<stop offset="0.927083" stop-color="#014280"/>
</linearGradient>
</defs>
</svg>
