<svg width="43" height="45" viewBox="0 0 43 45" fill="none" xmlns="http://www.w3.org/2000/svg">
<g opacity="0.3" filter="url(#filter0_f_6825_6493)">
<ellipse cx="21.5" cy="40.5" rx="17.5" ry="0.5" fill="black"/>
</g>
<path fill-rule="evenodd" clip-rule="evenodd" d="M36.9641 0.673828C39.1893 0.673828 41 2.53135 41 4.81416V21.3464C41 23.6293 39.1893 25.4867 36.9641 25.4867H7.03592C4.81068 25.4867 3 23.6293 3 21.3464V4.81416C3 2.53135 4.81068 0.673828 7.03592 0.673828H36.9641ZM36.9641 23.8306C38.2994 23.8306 39.3856 22.7162 39.3856 21.3464V4.81416C39.3856 3.44429 38.2994 2.32996 36.9641 2.32996H7.03592C5.7006 2.32996 4.61437 3.44429 4.61437 4.81416V21.3464C4.61437 22.7162 5.7006 23.8306 7.03592 23.8306H36.9641ZM13.7574 4.77008C14.411 4.45699 15.1368 4.27696 15.9044 4.27696C18.7146 4.27696 21.0013 6.62288 21.0013 9.50662C21.0013 12.3895 18.7146 14.7354 15.9044 14.7354C15.1352 14.7354 14.408 14.5546 13.7535 14.2403C13.085 14.5579 12.3562 14.733 11.6139 14.733C8.80607 14.733 6.52246 12.3903 6.52246 9.50985C6.52246 6.62371 8.80607 4.27539 11.6139 4.27539C12.3568 4.27539 13.0872 4.45127 13.7574 4.77008ZM11.6139 5.93152C9.6968 5.93152 8.13683 7.53665 8.13683 9.50985C8.13683 11.4765 9.6968 13.0768 11.6139 13.0768C11.7961 13.0768 11.9743 13.0588 12.1501 13.0312C11.3188 12.1005 10.8067 10.8651 10.8067 9.50662C10.8067 8.14594 11.32 6.90914 12.1531 5.97781C11.9762 5.94991 11.7972 5.93152 11.6139 5.93152ZM12.421 9.50662C12.421 11.4765 13.9834 13.0792 15.9044 13.0792C17.8247 13.0792 19.387 11.4765 19.387 9.50662C19.387 7.5359 17.8247 5.9331 15.9044 5.9331C13.9834 5.9331 12.421 7.5359 12.421 9.50662ZM7.72379 18.6202H20.1942C20.6403 18.6202 21.0013 18.9906 21.0013 19.4482C21.0013 19.9059 20.6403 20.2763 20.1942 20.2763H7.72379C7.27766 20.2763 6.91661 19.9059 6.91661 19.4482C6.91661 18.9906 7.27766 18.6202 7.72379 18.6202ZM27.0962 14.5486H35.0333C35.4794 14.5486 35.8405 14.919 35.8405 15.3766C35.8405 15.8344 35.4794 16.2047 35.0333 16.2047H27.0962C26.6501 16.2047 26.289 15.8344 26.289 15.3766C26.289 14.919 26.6501 14.5486 27.0962 14.5486ZM27.0962 18.6202H35.0333C35.4794 18.6202 35.8405 18.9906 35.8405 19.4482C35.8405 19.9059 35.4794 20.2763 35.0333 20.2763H27.0962C26.6501 20.2763 26.289 19.9059 26.289 19.4482C26.289 18.9906 26.6501 18.6202 27.0962 18.6202Z" fill="url(#paint0_linear_6825_6493)"/>
<defs>
<filter id="filter0_f_6825_6493" x="0" y="36" width="43" height="9" filterUnits="userSpaceOnUse" color-interpolation-filters="sRGB">
<feFlood flood-opacity="0" result="BackgroundImageFix"/>
<feBlend mode="normal" in="SourceGraphic" in2="BackgroundImageFix" result="shape"/>
<feGaussianBlur stdDeviation="2" result="effect1_foregroundBlur_6825_6493"/>
</filter>
<linearGradient id="paint0_linear_6825_6493" x1="17" y1="-0.140991" x2="26.2396" y2="13.7839" gradientUnits="userSpaceOnUse">
<stop stop-color="#95DFFF"/>
<stop offset="0.927083" stop-color="#014280"/>
</linearGradient>
</defs>
</svg>
