<svg width="43" height="48" viewBox="0 0 43 48" fill="none" xmlns="http://www.w3.org/2000/svg">
<g opacity="0.3" filter="url(#filter0_f_713_2703)">
<ellipse cx="21.5" cy="43.5" rx="17.5" ry="0.5" fill="black"/>
</g>
<path fill-rule="evenodd" clip-rule="evenodd" d="M13.2319 8.2798L15.9877 11.0302C16.1832 11.2253 16.4999 11.225 16.6951 11.0295C16.8903 10.8339 16.8899 10.5172 16.6944 10.3221L13.9394 7.57244C13.2231 6.84496 12.8285 5.8826 12.8285 4.86253C12.8285 2.73302 14.5613 1.00054 16.6912 1.00054C18.2737 1.00054 19.6793 1.94882 20.2721 3.4164C20.3484 3.60546 20.5319 3.72924 20.7358 3.72931H20.7359C20.9397 3.72931 21.1232 3.60559 21.1996 3.4166C21.793 1.94896 23.1989 1.00061 24.7813 1.00061C26.9111 1.00061 28.6439 2.73308 28.6439 4.8626C28.6439 5.88266 28.2494 6.84502 27.5331 7.57244L20.736 14.3569L18.2373 11.8629C18.0417 11.6676 17.7249 11.668 17.5298 11.8635C17.3347 12.0591 17.3349 12.3758 17.5305 12.571L20.3826 15.4177C20.678 15.688 20.8114 15.688 21.0895 15.4177L28.2408 8.27973L28.2461 8.27435C29.1479 7.35861 29.6446 6.14689 29.6446 4.86246C29.6445 2.18131 27.4629 0 24.7813 0C23.1267 0 21.6254 0.82357 20.7361 2.16119C19.8473 0.823437 18.3462 0 16.6913 0C14.0097 0 11.8281 2.18131 11.8281 4.86253C11.8281 6.14696 12.3248 7.35861 13.2266 8.27442L13.2319 8.2798ZM21.8724 4.14258H19.8006C19.5243 4.14258 19.3003 4.36657 19.3003 4.64282V6.21445H17.7288C17.4525 6.21445 17.2285 6.43844 17.2285 6.71469V8.78657C17.2285 9.06282 17.4525 9.28681 17.7288 9.28681H19.3003V10.8584C19.3003 11.1347 19.5243 11.3587 19.8006 11.3587H21.8724C22.1487 11.3587 22.3727 11.1347 22.3727 10.8584V9.28681H23.9442C24.2205 9.28681 24.4445 9.06282 24.4445 8.78657V6.71469C24.4445 6.43844 24.2205 6.21445 23.9442 6.21445H22.3727V4.64288C22.3727 4.36657 22.1487 4.14258 21.8724 4.14258ZM23.444 7.215V8.28633H21.8724C21.5962 8.28633 21.3722 8.51032 21.3722 8.78657V10.3582H20.3008V8.78657C20.3008 8.51032 20.0768 8.28633 19.8006 8.28633H18.229V7.215H19.8006C20.0768 7.215 20.3008 6.99101 20.3008 6.71476V5.14312H21.3722V6.71476C21.3722 6.99101 21.5962 7.215 21.8724 7.215H23.444ZM35.9069 19.2959C36.2948 19.1006 36.7241 18.9992 37.1595 19C38.2349 19 39.2072 19.5925 39.6968 20.5462C40.3978 21.9114 39.8416 23.5863 38.457 24.28L29.7321 28.6378C29.6706 28.6686 29.6048 28.6904 29.5369 28.7025L15.3101 31.2435C15.2681 31.2509 15.2256 31.2547 15.183 31.2547H8.42897V31.3615C8.42897 32.3141 7.61513 33.089 6.61479 33.089H3.75875C2.77255 33.089 2 32.3302 2 31.3615V22.3353C2 21.3407 2.78898 20.5314 3.75875 20.5314H6.61486C7.5982 20.5314 8.42897 21.3575 8.42897 22.3354V22.4756L14.5128 19.5446C14.6104 19.4976 14.7174 19.4732 14.826 19.4732H23.7337C25.2789 19.4732 26.5361 20.7074 26.5361 22.2246C26.5366 22.6942 26.4141 23.1559 26.1805 23.565H27.3344L35.9069 19.2959ZM6.61486 31.678C6.80023 31.678 7.00031 31.557 7.00031 31.3615L7.00024 22.3353C7.00024 22.137 6.80937 21.9424 6.61479 21.9424H3.75875C3.56424 21.9424 3.42866 22.1494 3.42866 22.3353V31.3615C3.42866 31.5538 3.55824 31.678 3.75875 31.678H6.61486ZM29.1803 27.3323L37.8116 23.0213C38.493 22.6799 38.7674 21.8557 38.4228 21.1843C38.1815 20.7145 37.6857 20.411 37.1595 20.411C36.9482 20.4107 36.7398 20.46 36.5516 20.555L27.826 24.9004C27.7262 24.9501 27.6161 24.9759 27.5044 24.9759H15.7866C15.392 24.9759 15.0722 24.66 15.0722 24.2705C15.0722 23.8809 15.392 23.565 15.7866 23.565H23.7338C24.4913 23.565 25.1075 22.9637 25.1075 22.2246C25.1075 21.4854 24.4913 20.8841 23.7338 20.8841H14.9909L8.42897 24.0455V29.8438H15.1189L29.1803 27.3323Z" fill="url(#paint0_linear_713_2703)"/>
<defs>
<filter id="filter0_f_713_2703" x="0" y="39" width="43" height="9" filterUnits="userSpaceOnUse" color-interpolation-filters="sRGB">
<feFlood flood-opacity="0" result="BackgroundImageFix"/>
<feBlend mode="normal" in="SourceGraphic" in2="BackgroundImageFix" result="shape"/>
<feGaussianBlur stdDeviation="2" result="effect1_foregroundBlur_713_2703"/>
</filter>
<linearGradient id="paint0_linear_713_2703" x1="14.8529" y1="-7.29688" x2="36.2423" y2="35.0555" gradientUnits="userSpaceOnUse">
<stop stop-color="#FFEF37"/>
<stop offset="0.559247" stop-color="#014280"/>
</linearGradient>
</defs>
</svg>
