<svg width="113" height="63" viewBox="0 0 113 63" fill="none" xmlns="http://www.w3.org/2000/svg">
<g style="mix-blend-mode:multiply" opacity="0.1">
<path fill-rule="evenodd" clip-rule="evenodd" d="M111.872 33.842C112.987 40.4513 111.846 46.7678 108.705 53.007L108.677 52.9883C105.624 58.6273 101.318 63.1293 95.6935 66.2838C89.9461 69.6438 84.0243 70.5774 77.943 69.3831C71.1994 68.0696 65.2738 64.219 60.2513 57.5591C58.5046 55.6334 56.8357 52.153 55.5372 47.2746C54.1861 42.4843 52.1573 39.0897 49.6433 36.7678C46.5544 34.18 43.0302 33.3582 38.8306 34.0573C35.1536 34.657 32.0112 36.2374 29.3884 38.9531C26.2081 32.1813 27.4497 24.9847 33.3732 17.251C41.3671 6.75703 51.527 1.11092 63.8626 0.813937C75.1635 0.310368 84.9062 2.87301 93.0835 8.57924C98.9666 12.5659 103.182 16.3709 105.984 19.9591C109.1 23.9256 111.056 28.6723 111.872 33.842ZM36.7414 32.1881C37.466 33.1738 38.1285 33.2929 38.956 32.6171C39.591 32.2642 39.5511 31.6188 38.9189 30.737C37.8744 29.5758 37.4921 28.987 37.4921 28.987L36.6772 29.3828C34.9821 30.9958 34.3343 32.082 34.8266 32.7454C35.1288 33.4037 35.7213 33.1868 36.4788 32.6284L36.7414 32.1881ZM44.8904 31.4036C45.3825 32.5202 46.0148 32.9487 46.7198 32.4783L46.7373 32.449C47.5347 32.0826 47.6474 31.3757 47.1952 30.451C46.5806 29.0865 46.2109 28.2176 46.2109 28.2176L45.396 28.6134C43.451 29.4801 42.636 30.3292 42.6633 31.2546C43.058 32.0167 43.6104 32.0613 44.4779 31.5774L44.8904 31.4036ZM56.3938 40.2706C55.9485 41.5352 56.0983 42.2551 56.8831 42.622L56.9106 42.6406C57.5854 42.933 58.138 42.5242 58.6631 41.6435L59.2036 39.248L58.4189 38.8811C56.4669 38.0118 55.1996 37.9362 54.8544 38.774C54.6043 39.3877 54.8941 39.8726 56.0214 40.1831L56.3938 40.2706ZM59.3583 50.3174C59.7406 50.9062 60.4729 50.9079 61.3404 50.424L61.3579 50.3947L62.9032 48.5152L62.3934 47.8812C61.1166 45.9442 60.072 45.2363 59.3144 45.7947C58.8594 46.1047 58.8992 46.75 59.5314 47.6318L59.8738 48.0287C58.8662 48.7474 58.7261 49.4356 59.3583 50.3174ZM83.4283 65.1034C91.6072 64.4628 98.087 60.6511 102.893 53.5616L102.911 53.5322C104.818 50.7855 106.144 47.8503 106.772 44.8547C107.51 41.9336 107.403 39.7177 106.651 37.8067C104.673 41.5775 102.078 44.7652 98.5903 47.1834C93.6402 50.6303 87.8859 51.8009 81.2921 51.2073C78.5075 51.2164 76.1803 51.9477 74.1828 52.9025C72.2378 54.2225 70.4357 53.6196 68.789 51.2672C67.8872 49.0897 67.7678 47.1538 68.4581 45.4781C72.1739 39.9582 77.1154 40.6687 83.2251 47.9005C82.3333 45.771 81.8838 44.065 81.6242 42.8173C80.698 38.0264 81.6414 34.049 84.2943 30.5706C85.3846 29.001 86.887 28.1643 88.7193 28.0044C89.9991 27.8 91.6788 28.155 93.7406 29.5522L94.043 29.7571C95.2925 30.7688 96.0445 32.6798 96.3013 35.1622C96.6106 37.5565 96.2227 39.4371 95.3251 40.6837C94.0123 42.4322 92.7723 43.2819 91.505 43.2064C91.2551 42.9134 91.1452 42.8388 91.0227 43.0443L91.545 43.3983C92.4522 44.0131 93.6494 44.2061 95.1092 43.9587C96.7215 43.6498 97.9741 42.9734 99.0517 41.6839C101.775 38.0881 102.788 33.9932 101.889 29.6744C101.021 25.0461 98.2496 20.6951 93.4939 16.5655C84.3324 8.62594 73.9999 5.04543 62.669 5.85838C51.4081 6.5539 42.8634 10.6564 37.2424 18.1417C33.4343 23.1044 31.4135 27.4646 31.3075 31.2676L31.6099 31.4725C31.7828 29.6935 32.5132 27.7564 33.9661 25.3197L35.1663 23.8247C40.7173 16.4569 48.9418 13.0854 59.775 13.6252C70.6606 14.0769 78.8913 16.0683 84.2646 19.421C90.2301 23.4635 93.6089 26.5363 94.1283 28.5783C88.8132 22.2148 83.9018 20.7415 79.3942 24.1585C75.479 27.3586 74.7808 30.925 77.2794 34.7617C69.7528 26.2812 61.4627 21.7351 52.5718 21.11C43.6108 20.6023 37.3011 22.9631 33.558 28.011L32.8529 28.9347C32.3403 29.5354 31.8726 30.5788 31.5798 31.7819L31.8396 32.5762C36.3502 27.4712 42.7172 25.273 50.8233 25.9845C59.0968 26.4798 66.0301 29.1584 71.703 33.9507L75.1915 37.5513L75.1615 37.8607C72.2294 37.7287 69.2369 39.5755 66.4614 43.2594C65.0787 45.1254 64.5506 47.6942 64.9573 50.8964C65.4737 54.6265 67.0777 57.5683 69.5918 59.8903C71.6509 62.0688 74.2651 63.5106 77.3868 64.5543C79.8337 65.3056 81.8984 65.4682 83.4283 65.1034ZM73.5942 80.3698C77.3936 80.0178 80.536 78.4375 83.0187 75.9566L83.0537 75.8979C86.1915 82.8058 84.66 89.9708 78.5041 97.3821C70.1378 107.789 59.7756 112.803 47.5226 112.702C36.1769 112.763 26.5341 109.774 18.5494 103.745C12.8064 99.5232 8.61558 95.6116 5.98196 91.8071C3.01844 87.7791 1.22492 83.0188 0.588841 77.8062C-0.264359 71.2099 1.07451 64.8212 4.41801 58.7604C7.65143 53.0784 12.0793 48.8242 17.8541 45.9362C23.7515 42.8427 29.7132 42.1011 35.6719 43.5009C42.3854 45.1238 48.1185 49.2973 52.961 56.0002C54.7601 58.2911 56.1666 61.7586 57.3552 66.5624C58.4039 71.1478 60.3101 74.7479 62.8641 77.2618C65.7905 79.8632 69.3122 81.013 73.5942 80.3698ZM75.5158 82.4551C74.8436 81.3814 74.1813 81.2623 73.4238 81.8207L73.4413 81.7914C72.7363 82.2617 72.7761 82.9069 73.4083 83.7887C74.3428 84.8755 74.7252 85.4643 74.7252 85.4643L75.4701 85.1859C77.2752 83.6474 77.9404 82.5318 77.5006 81.7804C77.2283 81.2661 76.6059 81.3389 75.8484 81.8973L75.5158 82.4551ZM67.4594 82.8903C66.9398 81.755 66.265 81.4626 65.5901 81.6235L65.5726 81.6528C64.7051 82.1367 64.5924 82.8435 65.1147 83.6508L66.0464 85.9723L66.8614 85.5765C68.7638 84.8459 69.7138 83.9645 69.6341 83.1273C69.2643 82.2584 68.7119 82.2139 67.8445 82.6977L67.4594 82.8903ZM60.9288 79.9899C61.0415 78.8297 60.6691 78.2888 59.8443 78.1833L59.8893 78.1725C59.117 77.9789 58.6745 78.4622 58.4393 79.3745C58.4363 81.0626 58.3361 81.9427 58.3361 81.9427L59.1909 82.1923C61.4356 82.3118 62.6054 82.0329 62.5656 81.3876C62.7882 80.7553 62.4284 80.3878 61.3012 80.0773L60.9288 79.9899ZM56.2186 73.5828C56.7038 72.5101 56.5141 71.5984 55.8393 71.3059L55.8492 71.3539C55.0644 70.987 54.6519 71.1609 54.0568 72.1591L53.5163 74.5546L54.1211 74.9644C56.173 75.8603 57.3703 76.0533 57.7155 75.2155C58.0081 74.4657 57.6483 74.0982 56.591 73.6703L56.2186 73.5828ZM53.5865 63.4315C53.2042 62.8427 52.5419 62.7236 51.6744 63.2074L51.7119 63.2741C51.0243 64.1684 50.4018 64.6946 49.9468 65.0046L50.4115 65.6493C51.7283 67.7782 52.7204 68.5741 53.4779 68.0157C54.0029 67.5883 53.8931 67.0605 53.3709 66.2532L52.9886 65.6644C54.0786 65.0015 54.2187 64.3133 53.5865 63.4315ZM48.5987 107.661C59.957 107.32 68.554 103.583 74.5874 96.3768L74.6349 96.4914C78.553 91.6032 80.7538 87.2001 80.9821 83.645L80.7498 83.3227C80.3869 85.0965 79.4865 87.1244 78.1736 89.3263L76.821 90.8829C71.1026 98.0136 62.7981 101.001 51.8951 100.125C41.0095 99.2204 32.8089 96.9197 27.6681 93.436C21.7326 89.084 18.5164 85.9977 18.067 83.8383C23.1321 90.3621 28.0834 92.0274 32.731 88.8289C36.7136 85.8393 37.4944 82.3288 35.1357 78.2573C42.2724 87.133 50.3973 92.0206 59.3582 92.9817C68.1791 93.7242 74.6562 91.6006 78.6317 86.875L79.3368 85.9513C79.8919 85.2145 80.3171 84.3073 80.7623 83.0426C80.7427 82.9483 80.7032 82.8405 80.6565 82.7132C80.6081 82.5814 80.5521 82.4286 80.5025 82.2483C75.7995 87.2229 69.3926 89.2291 61.2591 88.0456C53.0431 87.2595 46.2499 84.3461 40.6995 79.3483L37.281 75.6303L37.3111 75.3209C40.3806 75.546 43.3855 73.8725 46.201 70.3805C47.8437 68.4022 48.3443 65.8148 48.0476 62.6871C47.6586 59.0022 46.1346 55.9909 43.7731 53.6074C41.7665 51.3408 39.2098 49.6082 36.1706 48.6204C33.6837 47.6771 31.6616 47.3786 29.9792 47.8049C21.8129 48.1655 15.1831 51.7107 10.2547 58.5524C8.20931 61.2059 6.75633 64.096 6.06321 67.0063C5.37008 69.9167 5.33696 72.3675 6.04891 74.0866C8.09202 70.401 10.8424 67.2771 14.3424 65.0322C19.4149 61.8332 25.1442 60.7692 31.7904 61.7281C34.53 61.7297 36.9973 61.2169 38.9122 60.2063C40.8972 59.0782 42.6992 59.6811 44.2759 62.151C45.0276 64.5153 45.0121 66.4834 44.2644 67.9965C40.5086 73.3244 35.5797 72.3339 29.72 64.9417C30.3794 66.7489 30.8014 68.4364 31.141 70.0679C31.7772 74.8272 30.7913 78.9407 28.0984 82.2271C26.8982 83.7221 25.3957 84.5589 23.6335 84.6013C22.2561 84.9045 20.634 84.2587 18.5721 82.8615L18.2698 82.6566C16.9353 81.4638 16.2933 79.6272 16.1464 77.2194C15.8896 74.737 16.2951 72.827 17.3027 71.655C18.7954 69.8635 20.1179 69.0697 21.2452 69.3802C21.4376 69.5106 21.6175 69.4677 21.6175 69.4677L21.1653 68.9963C20.2581 68.3815 19.0608 68.1885 17.601 68.4358C15.9487 68.5528 14.6963 69.2292 13.6886 70.4013C10.8032 74.0107 9.75986 77.9616 10.3162 82.3369C11.1049 87.0346 13.6958 91.4285 18.229 95.737C27.3255 104.045 37.3503 108.076 48.5987 107.661Z" fill="black"/>
</g>
</svg>
