<svg width="38" height="53" viewBox="0 0 38 53" fill="none" xmlns="http://www.w3.org/2000/svg">
<g clip-path="url(#clip0_7205_19127)">
<g style="mix-blend-mode:multiply" opacity="0.1">
<path d="M47.3549 30.5862C49.1126 28.7091 50.1302 26.6033 50.332 24.167C50.5109 22.2671 50.2243 20.401 49.4312 18.6924C48.7204 17.1485 47.5012 15.3858 45.676 13.3912C43.1546 10.5607 39.754 8.67782 35.4842 7.71596C30.8471 6.57717 26.5223 7.53841 22.5531 10.4224C19.6159 12.5446 18.4785 14.9498 19.033 17.6512C20.2672 16.9607 21.5893 16.7218 23.0194 16.8815C24.654 17.0589 25.894 17.703 26.8059 18.9242C27.528 19.994 27.9684 21.392 28.0249 23.2124C28.0535 25.0585 28.3513 26.4504 28.8238 27.3035C30.0772 30.1513 31.9309 32.1024 34.3278 33.2438C36.4884 34.2766 38.7885 34.5451 41.2505 33.943C43.6476 33.4008 45.6777 32.2518 47.3464 30.5769L47.3549 30.5862ZM23.201 16.3877C22.8286 16.542 22.5922 16.4333 22.4137 16.0137L22.2743 16.1421C21.939 16.2621 21.6974 16.2786 21.646 16.0167C21.5242 15.7339 21.8679 15.4172 22.6522 15.0209L22.9938 14.9639C22.9938 14.9639 23.0815 15.2094 23.3631 15.723C23.5168 16.0967 23.4713 16.3277 23.201 16.3877ZM26.115 17.1214C25.8076 17.2157 25.6114 17.0014 25.532 16.5592L25.3616 16.5787C24.9922 16.6614 24.79 16.5901 24.7138 16.2823C24.7902 15.9542 25.1742 15.7378 25.9821 15.6291L26.3236 15.5721C26.3236 15.5721 26.3805 15.9148 26.4824 16.4565C26.5648 16.8272 26.4566 17.0644 26.1243 17.1129L26.115 17.1214ZM28.9633 21.7122C28.7044 21.5041 28.7157 21.2359 29.0005 20.8361L28.8695 20.7678C28.4774 20.5451 28.4145 20.3454 28.5654 20.1548C28.7728 19.895 29.2392 20.0493 29.8872 20.5517L30.1461 20.7598L29.72 21.5475C29.4413 21.8043 29.1966 21.8923 28.9718 21.7215L28.9633 21.7122ZM29.8986 24.9046C29.5291 24.9873 29.2556 24.9129 29.1679 24.6673C29.0142 24.2936 29.131 24.0657 29.5747 23.9146L29.4839 23.7405C29.3302 23.3668 29.3758 23.1359 29.5748 23.0727C29.9101 22.9528 30.2342 23.3069 30.53 24.1166L30.6612 24.3909L29.9078 24.896L29.8986 24.9046ZM45.1314 30.1955C42.6721 32.2038 39.894 32.8909 36.778 32.2919C36.1722 32.2659 35.4159 32.0007 34.5719 31.4899C33.5031 30.8084 32.6613 30.038 32.0958 29.0645C31.3737 27.9947 31.0497 26.7987 31.2058 25.4352C31.3536 24.2683 31.7913 23.4183 32.4826 22.9016C33.8645 21.8861 35.1555 21.5384 36.2387 21.8802L36.2789 21.7745L35.3124 20.1569C33.6412 17.9002 31.3012 16.2597 28.2561 15.2518C25.2938 14.1846 22.709 14.3158 20.5458 15.6562L20.523 15.3507C20.745 14.9572 21.0174 14.6375 21.2652 14.478L21.6151 14.2242C23.4862 12.8266 26.0648 12.6325 29.3657 13.7141C32.6293 14.8299 35.3015 17.2638 37.3202 21.0041C36.7456 19.4033 37.3403 18.2197 39.1028 17.4891C41.1069 16.742 42.8042 17.755 44.1946 20.5281C44.1917 19.7578 43.2168 18.3369 41.3661 16.3143C39.6721 14.594 36.783 13.0643 32.7577 11.8084C28.7604 10.5269 25.3716 10.8834 22.6079 12.9144L22.0195 13.3191C21.2485 14.0294 20.7943 14.6369 20.5632 15.245L20.4694 15.1424C20.8649 13.816 22.0281 12.4866 23.9155 11.1255C26.7164 9.06023 30.2932 8.47894 34.5661 9.36928C38.876 10.2254 42.4017 12.5256 45.0819 16.2405C46.4724 18.1717 47.1006 19.9808 46.992 21.6956C46.9237 23.3047 46.1617 24.6423 44.8077 25.6322C44.2844 25.977 43.753 26.0885 43.1217 26.0347C42.553 25.9745 42.1238 25.786 41.8423 25.4784L41.6803 25.3013C41.7453 25.2414 41.7794 25.2787 41.8453 25.4069C42.3118 25.5612 42.8547 25.3874 43.5088 24.9049C43.9609 24.5571 44.2819 23.935 44.3904 23.062C44.5268 22.1633 44.4247 21.4156 44.0524 20.934L43.9586 20.8314C43.319 20.1324 42.7246 19.8383 42.2272 19.7812C41.5276 19.6527 40.8879 19.7955 40.3336 20.2375C39.0168 21.1931 38.292 22.4965 38.1897 24.2743C38.1699 24.7391 38.1782 25.3843 38.3121 26.2229C36.706 23.0645 34.9261 22.3166 33.021 23.8829C32.6063 24.4025 32.4697 25.0952 32.6029 25.9517C32.998 26.9448 33.6149 27.3384 34.4653 27.0703C35.301 26.9359 36.239 26.9133 37.2804 27.1907C39.6886 28.064 41.9484 28.2323 44.1206 27.5193C45.6501 27.0205 46.9183 26.1613 48.0103 25.0349C48.1124 25.7826 47.945 26.5724 47.3958 27.5251C46.8807 28.515 46.1107 29.4135 45.1407 30.1869L45.1314 30.1955Z" fill="black"/>
</g>
<g style="mix-blend-mode:multiply" opacity="0.1">
<path d="M35.6091 36.0659C34.4492 36.6879 33.1271 36.9269 31.6745 36.6677C30.0143 36.4623 28.806 35.7031 27.956 34.4936C27.2369 33.3523 26.8616 31.8944 26.8989 30.1765C26.9044 28.3677 26.7034 27.0068 26.2455 26.02C25.0634 23.1752 23.3118 21.13 20.9551 19.8828C18.8596 18.7901 16.5626 18.45 14.0695 18.9434C11.6413 19.3768 9.58866 20.4263 7.84867 22.0982C6.03209 23.8922 4.93387 26.0035 4.63531 28.4088C4.38512 30.3056 4.60975 32.1601 5.3401 33.875C5.9681 35.4781 7.16792 37.2757 8.91874 39.3388C11.338 42.2634 14.6613 44.2863 18.9065 45.4083C23.4755 46.6785 27.8167 45.9598 31.9168 43.1441C34.9107 41.1586 36.1536 38.7938 35.6277 36.0488L35.6091 36.0659ZM31.475 37.1607C31.8103 37.0407 32.0467 37.1493 32.1973 37.5946L32.3738 37.432C32.7091 37.312 32.9485 37.3491 33.0021 37.5574C33.0961 37.8659 32.7431 38.1911 31.9247 38.5501L31.6203 38.5729C31.6203 38.5729 31.5325 38.3274 31.285 37.8511C31.1313 37.4773 31.1768 37.2464 31.4843 37.1521L31.475 37.1607ZM28.5663 36.3019C28.8336 36.3133 29.0584 36.4841 29.1463 36.9357L29.3081 36.9068C29.6776 36.8241 29.8798 36.8954 29.9367 37.2381C29.8881 37.5406 29.4506 37.7547 28.6714 37.8199L28.3298 37.8769L28.1989 36.9668C28.0794 36.6303 28.1876 36.3931 28.557 36.3104L28.5663 36.3019ZM26.7413 34.5132C27.0397 34.6334 27.1282 34.8611 26.9775 35.2577L27.1084 35.326C27.5006 35.5487 27.6007 35.7142 27.4583 35.9141C27.4128 36.145 26.9495 36.1252 26.122 35.8569L25.8259 35.683C25.8259 35.683 25.9458 35.3837 26.1048 34.7905C26.2781 34.4934 26.4887 34.3681 26.7592 34.514L26.7413 34.5132ZM25.8885 31.6915C26.1133 31.8623 26.0988 32.202 25.8171 32.5303L25.9481 32.5986C26.3031 32.8556 26.4032 33.0211 26.2237 33.2552C26.0163 33.515 25.587 33.3265 24.9041 32.8047L24.7165 32.5996L25.1426 31.8118C25.4584 31.5209 25.6288 31.5013 25.8877 31.7094L25.8885 31.6915ZM25.0902 28.4244C25.4597 28.3417 25.696 28.4503 25.7837 28.6958C25.9374 29.0696 25.8207 29.2975 25.3513 29.4207L25.4391 29.6662C25.5586 30.0027 25.5503 30.1993 25.3141 30.2967C24.9788 30.4167 24.6826 30.0369 24.3898 29.1556L24.2765 28.8821C24.4755 28.819 24.7574 28.6967 25.098 28.4516L25.0902 28.4244ZM30.5474 42.3959C27.6186 44.3214 24.0564 44.769 19.7804 43.7441C15.5385 42.7566 12.1699 40.3288 9.54851 36.491C8.25789 34.5193 7.70099 32.7133 7.84596 30.9821C8.04759 29.3877 8.80722 28.1037 10.2232 27.1254C10.7094 26.8149 11.2407 26.7033 11.8691 26.8287C12.4377 26.8888 12.867 27.0774 13.1484 27.385L13.2733 27.5963C13.2733 27.5963 13.2021 27.5932 13.1424 27.528C12.7502 27.3052 12.1817 27.451 11.4563 27.9305C10.9701 28.241 10.6398 28.8717 10.5035 29.7704C10.333 30.6318 10.401 31.3422 10.788 31.8961L10.8818 31.9986C11.5214 32.6977 12.0671 33.0882 12.6102 33.1204C13.2726 33.2831 13.9123 33.1403 14.5007 32.7356C15.8145 31.8515 16.5679 30.5046 16.7756 28.7671C16.8015 28.1592 16.8017 27.5234 16.7244 26.8215C18.2221 30.0111 19.9712 30.8562 21.8732 29.3614C22.2942 28.9047 22.4842 28.2143 22.4246 27.3073C22.0666 26.28 21.4497 25.8864 20.6024 26.083C19.7923 26.2453 18.8224 26.1769 17.7989 25.9003C15.4052 24.8933 13.1648 24.69 10.97 25.3036C9.45208 25.7401 8.13201 26.5613 7.02364 27.6512C6.91851 26.9751 7.16026 26.1167 7.69165 25.1633C8.22303 24.2099 9.03644 23.3402 10.0491 22.6133C12.5309 20.7045 15.34 20.1262 18.4252 20.8224C19.0937 20.842 19.8214 21.1508 20.6623 21.7331C21.7055 22.3867 22.4987 23.2535 23.0363 24.2527C23.6957 25.3287 23.9833 26.5411 23.7838 27.8759C23.6019 29.0055 23.1727 29.8648 22.3737 30.3948C20.9948 31.3388 19.7154 31.6244 18.5895 31.2359L18.5493 31.3416L19.4787 32.9934C21.0849 35.31 23.3506 37.019 26.347 38.1234C29.2753 39.3592 31.8571 39.2995 34.08 38.0244C34.0832 38.1589 34.1058 38.2584 34.1028 38.3299C33.818 38.7297 33.5742 39.0058 33.2978 39.2089L32.9479 39.4626C31.0202 40.7235 28.4012 40.8174 25.1747 39.6673C21.9163 38.4263 19.3378 35.889 17.5018 32.0491C18.0021 33.7183 17.3818 34.8739 15.6138 35.5237C13.5779 36.1799 11.8836 35.0954 10.6016 32.2911C10.5674 33.0957 11.4803 34.5049 13.2909 36.6333C14.8857 38.3762 17.7346 40.0116 21.7174 41.4269C25.7095 42.8336 29.0921 42.6202 31.8962 40.6893L32.5473 40.2783C33.244 39.6365 33.7702 39.0142 34.0718 38.4271L34.1285 38.5638C33.7104 39.7908 32.476 41.1171 30.5545 42.4409L30.5474 42.3959Z" fill="black"/>
</g>
</g>
<defs>
<clipPath id="clip0_7205_19127">
<rect x="38" width="53" height="38" transform="rotate(90 38 0)" fill="white"/>
</clipPath>
</defs>
</svg>
