<svg width="93" height="80" viewBox="0 0 93 80" fill="none" xmlns="http://www.w3.org/2000/svg">
<g style="mix-blend-mode:multiply" opacity="0.1">
<path d="M53.6694 -3.51725C50.3756 -6.61708 46.6805 -8.41189 42.4055 -8.76764C39.0718 -9.08319 35.7973 -8.57773 32.7992 -7.17901C30.09 -5.92535 26.997 -3.77515 23.497 -0.556279C18.5304 3.89063 15.2264 9.88811 13.5386 17.4185C11.5404 25.5966 13.2271 33.224 18.2877 40.2241C22.0115 45.4042 26.2319 47.4104 30.9722 46.4323C29.7606 44.2557 29.3413 41.924 29.6215 39.4018C29.9329 36.5189 31.0631 34.3321 33.2059 32.7237C35.0831 31.4502 37.5362 30.6736 40.7305 30.5739C43.9698 30.5234 46.4123 29.9982 47.9092 29.1649C52.9063 26.9544 56.3298 23.6851 58.3327 19.4578C60.145 15.6475 60.6163 11.5909 59.5597 7.24872C58.6082 3.02122 56.5921 -0.559176 53.653 -3.50219L53.6694 -3.51725ZM28.7551 39.0815C29.0258 39.7384 28.8351 40.1552 28.0989 40.4701L28.3241 40.7158C28.5346 41.3072 28.5636 41.7334 28.1041 41.8239C27.6078 42.0388 27.0521 41.4327 26.3567 40.0493L26.2567 39.4469C26.2567 39.4469 26.6875 39.2922 27.5887 38.7956C28.2445 38.5245 28.6497 38.6048 28.7551 39.0815ZM30.0425 33.9423C30.208 34.4845 29.8319 34.8304 29.0559 34.9704L29.0902 35.271C29.2354 35.9225 29.1102 36.2792 28.5702 36.4135C27.9945 36.2787 27.6147 35.6014 27.4239 34.1767L27.3239 33.5743C27.3239 33.5743 27.9253 33.4741 28.8758 33.2943C29.5263 33.149 29.9425 33.3399 30.0275 33.9259L30.0425 33.9423ZM38.0981 28.919C37.7329 29.3756 37.2623 29.3555 36.5608 28.8533L36.441 29.0843C36.0501 29.7759 35.6997 29.8868 35.3653 29.6207C34.9094 29.255 35.1801 28.4323 36.0617 27.2894L36.4268 26.8329L37.8091 27.5845C38.2596 28.0759 38.4141 28.5075 38.1144 28.904L38.0981 28.919ZM43.6998 27.2695C43.8449 27.921 43.7144 28.4034 43.2835 28.5581C42.6277 28.8292 42.2278 28.6232 41.9626 27.8406L41.6572 28.0007C41.0014 28.2717 40.5962 28.1915 40.4854 27.8405C40.2749 27.2491 40.8964 26.6775 42.3172 26.1558L42.7985 25.9245L43.6848 27.2531L43.6998 27.2695ZM52.9838 0.40424C56.5078 4.74163 57.7135 9.64104 56.6624 15.1366C56.6169 16.205 56.1515 17.5388 55.2552 19.0273C54.0593 20.9123 52.7074 22.397 50.9992 23.3944C49.1221 24.6679 47.0235 25.2393 44.6308 24.9639C42.5833 24.7033 41.0919 23.9313 40.1852 22.7121C38.4032 20.275 37.793 17.9981 38.3929 16.0877L38.2074 16.0168L35.369 17.7214C31.4092 20.6688 28.5305 24.7956 26.7618 30.1662C24.8893 35.3906 25.1195 39.9493 27.4714 43.7644L26.9354 43.8045C26.245 43.413 25.684 42.9325 25.404 42.4956L24.9588 41.8785C22.5064 38.5785 22.1658 34.0308 24.0637 28.2093C26.0216 22.4534 30.2924 17.7406 36.8555 14.1804C34.0466 15.1937 31.9698 14.1449 30.6878 11.0365C29.3768 7.50198 31.1543 4.50859 36.0203 2.05636C34.6686 2.06159 32.1753 3.78095 28.6263 7.04495C25.6076 10.0325 22.9235 15.1278 20.7197 22.2269C18.4709 29.2768 19.0965 35.2533 22.6605 40.1276L23.3706 41.1653C24.617 42.5249 25.6829 43.326 26.7499 43.7336L26.57 43.899C24.2425 43.2015 21.9098 41.1501 19.5215 37.8213C15.8974 32.8815 14.8774 26.5734 16.4397 19.0377C17.942 11.4364 21.9782 5.21841 28.4967 0.491512C31.8855 -1.96085 35.0599 -3.06873 38.069 -2.87723C40.8925 -2.75663 43.2396 -1.41288 44.9765 0.975102C45.5815 1.89813 45.7773 2.83517 45.6828 3.94868C45.5772 4.95154 45.2464 5.70863 44.7067 6.205L44.396 6.49079C44.2908 6.37612 44.3563 6.31597 44.5812 6.19966C44.852 5.377 44.547 4.41955 43.7004 3.26585C43.09 2.46851 41.9984 1.90247 40.4665 1.71111C38.8896 1.47061 37.5776 1.65068 36.7325 2.30715L36.5526 2.47258C35.326 3.60069 34.8099 4.64898 34.7097 5.52614C34.4843 6.75998 34.7348 7.88824 35.5103 8.86577C37.1872 11.1882 39.4743 12.4664 42.5938 12.6469C43.4095 12.6817 44.5415 12.6672 46.0131 12.431C40.4709 15.2635 39.1587 18.4027 41.9071 21.7625C42.8188 22.494 44.0343 22.7349 45.5372 22.5C47.2798 21.8032 47.9704 20.7151 47.5 19.2154C47.2641 17.7415 47.2246 16.0872 47.7113 14.2506C49.2436 10.0033 49.539 6.01797 48.2878 2.18691C47.4127 -0.510548 45.905 -2.74711 43.9284 -4.67313C45.2404 -4.85319 46.6264 -4.55787 48.2981 -3.58928C50.0351 -2.68086 51.6116 -1.32284 52.9688 0.387842L52.9838 0.40424Z" fill="black"/>
</g>
<g style="mix-blend-mode:multiply" opacity="0.1">
<path d="M63.285 17.1986C64.3765 19.2442 64.7958 21.5759 64.341 24.1378C63.9807 27.0658 62.6485 29.1968 60.526 30.6959C58.5234 31.964 55.9652 32.6259 52.9508 32.5601C49.7769 32.5505 47.3888 32.905 45.6573 33.7125C40.6655 35.7973 37.0768 38.8864 34.8883 43.0428C32.971 46.7385 32.3742 50.7896 33.2398 55.1866C34.0004 59.4689 35.842 63.0891 38.7757 66.1578C41.9236 69.3616 45.6284 71.2985 49.8489 71.825C53.1774 72.2663 56.4314 71.8701 59.4406 70.582C62.2536 69.4745 65.408 67.3584 69.0281 64.2706C74.1598 60.0039 77.7095 54.1428 79.6783 46.6559C81.9072 38.5978 80.646 30.9414 75.7052 23.7103C72.2214 18.4302 68.0717 16.2383 63.255 17.1658L63.285 17.1986ZM65.2061 24.4896C64.9955 23.8982 65.1861 23.4814 65.9674 23.2157L65.6821 22.9044C65.4716 22.3131 65.5367 21.8908 65.9022 21.7963C66.4435 21.6305 67.0142 22.253 67.6442 23.6965L67.6842 24.2334C67.6842 24.2334 67.2533 24.3881 66.4175 24.8247C65.7617 25.0957 65.3566 25.0154 65.1911 24.4732L65.2061 24.4896ZM63.6991 29.6194C63.7191 29.1481 64.0189 28.7517 64.8112 28.5966L64.7605 28.3111C64.6154 27.6596 64.7406 27.3029 65.342 27.2027C65.8726 27.2883 66.2484 28.0599 66.3627 29.4341L66.4628 30.0365L64.8658 30.2674C64.2754 30.4782 63.8592 30.2873 63.7141 29.6358L63.6991 29.6194ZM60.5605 32.838C60.7715 32.3119 61.171 32.1557 61.8669 32.4216L61.9867 32.1906C62.3776 31.499 62.6679 31.3225 63.0187 31.5736C63.4238 31.6539 63.3891 32.4709 62.9183 33.9303L62.6132 34.4525C62.6132 34.4525 62.0879 34.2411 61.047 33.9606C60.5257 33.655 60.3058 33.2836 60.5618 32.8066L60.5605 32.838ZM55.6092 34.3421C55.909 33.9457 56.505 33.9712 57.081 34.468L57.2009 34.237C57.6518 33.6109 57.9422 33.4344 58.353 33.751C58.8089 34.1168 58.4781 34.8739 57.5625 36.0783L57.2027 36.4092L55.8204 35.6576C55.3098 35.1006 55.2754 34.8001 55.6406 34.3435L55.6092 34.3421ZM49.8763 35.75C49.7312 35.0984 49.9218 34.6816 50.3527 34.5269C51.0085 34.2558 51.4083 34.4618 51.6245 35.2895L52.0554 35.1348C52.6458 34.9239 52.9909 34.9386 53.1617 35.3552C53.3723 35.9465 52.7058 36.469 51.1595 36.9853L50.6795 37.1851C50.5688 36.8341 50.3542 36.337 49.9241 35.7363L49.8763 35.75ZM74.3923 26.1254C77.771 31.2909 78.5564 37.5732 76.7582 45.1146C75.0253 52.5958 70.7651 58.5367 64.031 63.1599C60.5712 65.4361 57.4022 66.4183 54.3644 66.1626C51.5666 65.807 49.3136 64.4673 47.5971 61.97C47.0521 61.1125 46.8563 60.1755 47.0763 59.0673C47.1819 58.0645 47.5127 57.3073 48.0524 56.811L48.4232 56.5908C48.4232 56.5908 48.4179 56.7164 48.3034 56.8217C47.9125 57.5133 48.1684 58.5159 49.0096 59.7953C49.5546 60.6528 50.6612 61.2352 52.2382 61.4757C53.7497 61.7764 54.9963 61.6565 55.9682 60.974L56.1481 60.8085C57.3747 59.6804 58.06 58.718 58.1165 57.7603C58.402 56.592 58.1514 55.4637 57.4413 54.426C55.8899 52.1089 53.5265 50.7803 50.4777 50.4139C49.4111 50.3684 48.2953 50.3679 47.0638 50.5042C52.6607 47.8628 54.1434 44.7782 51.5205 41.4237C50.7192 40.6812 49.5078 40.3461 47.9161 40.4512C46.1135 41.0825 45.4228 42.1706 45.7678 43.6649C46.0527 45.0936 45.9327 46.8042 45.4473 48.6093C43.6803 52.8309 43.3236 56.7821 44.4002 60.6529C45.1662 63.33 46.6071 65.6581 48.5197 67.6129C47.3332 67.7983 45.827 67.3719 44.154 66.4348C42.481 65.4976 40.955 64.063 39.6795 62.2772C36.3301 57.9 35.3153 52.9458 36.537 47.5047C36.5715 46.3256 37.1133 45.0423 38.135 43.5592C39.2819 41.7194 40.8029 40.3205 42.5562 39.3723C44.4443 38.2095 46.5717 37.7022 48.9139 38.0541C50.896 38.3749 52.4038 39.1319 53.3338 40.541C54.9903 42.9728 55.4914 45.2293 54.8097 47.2149L54.9953 47.2858L57.8937 45.6467C61.9586 42.814 64.9574 38.8182 66.8953 33.5336C69.0638 28.369 68.9591 23.8157 66.7217 19.8953C66.9577 19.8896 67.1322 19.8498 67.2577 19.8552C67.9592 20.3574 68.4437 20.7873 68.8001 21.2747L69.2453 21.8918C71.4578 25.2918 71.6225 29.9107 69.6045 35.6011C67.4269 41.3476 62.9746 45.8952 56.2366 49.1331C59.1657 48.2509 61.1935 49.3449 62.3336 52.4629C63.485 56.0536 61.582 59.0416 56.6614 61.3026C58.0731 61.3629 60.546 59.7529 64.2806 56.5598C67.339 53.747 70.2087 48.7226 72.6921 41.6984C75.1605 34.6579 74.7859 28.6921 71.3978 23.7467L70.6767 22.5984C69.5504 21.3697 68.4585 20.4416 67.4283 19.9097L67.6682 19.8098C69.8212 20.5471 72.1485 22.7242 74.4714 26.1131L74.3923 26.1254Z" fill="black"/>
</g>
</svg>
