<svg width="43" height="53" viewBox="0 0 43 53" fill="none" xmlns="http://www.w3.org/2000/svg">
<g opacity="0.3" filter="url(#filter0_f_713_2799)">
<ellipse cx="21.5" cy="48.5" rx="17.5" ry="0.5" fill="black"/>
</g>
<path fill-rule="evenodd" clip-rule="evenodd" d="M37.875 19.2812C37.875 28.6701 30.2638 36.2812 20.875 36.2812C11.4862 36.2812 3.875 28.6701 3.875 19.2812C3.875 9.89241 11.4862 2.28125 20.875 2.28125C30.2638 2.28125 37.875 9.89241 37.875 19.2812ZM39.375 19.2812C39.375 29.4985 31.0923 37.7812 20.875 37.7812C10.6577 37.7812 2.375 29.4985 2.375 19.2812C2.375 9.06398 10.6577 0.78125 20.875 0.78125C31.0923 0.78125 39.375 9.06398 39.375 19.2812ZM31.2352 17.5624C31.0143 18.0334 30.6963 18.4523 30.3021 18.7917C30.8609 19.2517 31.2643 19.8729 31.4573 20.5706C31.6502 21.2682 31.6234 22.0084 31.3805 22.6902C31.1375 23.3721 30.6902 23.9625 30.0996 24.3809C29.5089 24.7993 28.8036 25.0254 28.0798 25.0285C27.7097 25.0353 27.3397 25.017 26.9721 24.9737C27.0171 25.3407 27.0362 25.7103 27.0291 26.0799C27.0258 26.8036 26.7994 27.5087 26.3809 28.0991C25.9623 28.6895 25.372 29.1365 24.6902 29.3793C24.0084 29.6221 23.2684 29.6488 22.5709 29.4557C21.8734 29.2627 21.2523 28.8594 20.7923 28.3007C20.453 28.6952 20.034 29.0135 19.5629 29.2346C19.0918 29.4556 18.5793 29.5745 18.059 29.5833C17.1427 29.5432 16.2747 29.1611 15.6262 28.5126C14.9777 27.8641 14.5957 26.9962 14.5555 26.0799C14.5487 25.7096 14.567 25.3393 14.6102 24.9714C14.2436 25.0164 13.8742 25.0355 13.5049 25.0285C12.781 25.0254 12.0757 24.7993 11.4851 24.3809C10.8944 23.9625 10.4471 23.3721 10.2042 22.6902C9.96123 22.0084 9.93441 21.2682 10.1274 20.5706C10.3204 19.8729 10.7237 19.2517 11.2826 18.7917C10.8883 18.4523 10.5703 18.0334 10.3494 17.5624C10.1285 17.0915 10.0096 16.5792 10.0007 16.0591C10.0408 15.1426 10.4229 14.2744 11.0716 13.6258C11.7202 12.9771 12.5884 12.595 13.5049 12.5549C13.8749 12.5481 14.245 12.5663 14.6126 12.6096C14.5676 12.2427 14.5485 11.873 14.5555 11.5034C14.5957 10.5872 14.9777 9.71922 15.6262 9.0707C16.2747 8.42219 17.1427 8.04018 18.059 8C18.5793 8.00883 19.0918 8.12769 19.5629 8.34876C20.034 8.56983 20.453 8.88811 20.7923 9.28267C21.2523 8.72394 21.8734 8.3206 22.5709 8.12759C23.2684 7.93457 24.0084 7.96127 24.6902 8.20403C25.372 8.4468 25.9623 8.89383 26.3809 9.48424C26.7994 10.0747 27.0258 10.7797 27.0291 11.5034C27.0359 11.8737 27.0176 12.2441 26.9744 12.6119C27.3411 12.5669 27.7104 12.5479 28.0798 12.5549C28.9962 12.595 29.8644 12.9771 30.5131 13.6258C31.1617 14.2744 31.5438 15.1426 31.584 16.0591C31.575 16.5792 31.4561 17.0915 31.2352 17.5624ZM16.7231 10.1676C16.3647 10.526 16.1432 10.9987 16.0972 11.5034C16.0441 11.8964 16.0782 12.2962 16.1972 12.6744C16.3161 13.0527 16.517 13.4001 16.7855 13.6918L20.7939 17.7002L24.8022 13.6918C25.076 13.4036 25.2801 13.0565 25.3989 12.6772C25.5177 12.2978 25.548 11.8963 25.4875 11.5034C25.4414 10.9987 25.22 10.526 24.8616 10.1676C24.5031 9.80917 24.0305 9.5877 23.5257 9.54167C23.0965 9.58804 22.6853 9.73973 22.3288 9.98327C21.9723 10.2268 21.6815 10.5546 21.4822 10.9376C21.411 11.0571 21.31 11.156 21.189 11.2247C21.0681 11.2934 20.9314 11.3295 20.7923 11.3295C20.6532 11.3295 20.5165 11.2934 20.3956 11.2247C20.2747 11.156 20.1737 11.0571 20.1024 10.9376C19.9032 10.5546 19.6123 10.2268 19.2558 9.98327C18.8993 9.73973 18.4882 9.58804 18.059 9.54167C17.5542 9.5877 17.0815 9.80917 16.7231 10.1676ZM12.1685 22.8607C12.527 23.2192 12.9999 23.4408 13.5049 23.4868C13.8977 23.5398 14.2974 23.5056 14.6755 23.3867C15.0536 23.2677 15.4008 23.0669 15.6925 22.7985L19.7008 18.7901L15.6925 14.7818C15.4044 14.508 15.0575 14.3039 14.6783 14.1851C14.299 14.0663 13.8976 14.036 13.5049 14.0965C12.9999 14.1426 12.527 14.3641 12.1685 14.7227C11.8099 15.0812 11.5884 15.5541 11.5423 16.0591C11.5885 16.4886 11.74 16.9 11.9836 17.2568C12.2271 17.6136 12.5551 17.9047 12.9383 18.1041C13.066 18.1682 13.1733 18.2666 13.2483 18.3883C13.3233 18.5099 13.363 18.6499 13.363 18.7928C13.363 18.9357 13.3233 19.0758 13.2483 19.1974C13.1733 19.319 13.066 19.4174 12.9383 19.4816C12.5554 19.6808 12.2276 19.9715 11.9841 20.3278C11.7406 20.6842 11.5888 21.0952 11.5423 21.5243C11.5884 22.0292 11.8099 22.5021 12.1685 22.8607ZM24.8616 27.4158C25.22 27.0573 25.4414 26.5847 25.4875 26.0799C25.5406 25.687 25.5065 25.2871 25.3875 24.9089C25.2685 24.5306 25.0676 24.1833 24.7991 23.8915L20.7908 19.8832L16.7825 23.8915C16.5087 24.1797 16.3046 24.5268 16.1858 24.9061C16.067 25.2855 16.0367 25.687 16.0972 26.0799C16.1432 26.5847 16.3647 27.0573 16.7231 27.4158C17.0815 27.7742 17.5542 27.9956 18.059 28.0417C18.4889 27.9959 18.9008 27.8445 19.258 27.6009C19.6152 27.3574 19.9067 27.0292 20.1063 26.6457C20.1702 26.5174 20.2686 26.4095 20.3905 26.3341C20.5124 26.2587 20.6529 26.2187 20.7962 26.2187C20.9395 26.2187 21.08 26.2587 21.2019 26.3341C21.3237 26.4095 21.4221 26.5174 21.4861 26.6457C21.685 27.0282 21.9752 27.3557 22.331 27.5992C22.6868 27.8427 23.0971 27.9947 23.5257 28.0417C24.0305 27.9956 24.5031 27.7742 24.8616 27.4158ZM29.5997 20.326C29.3556 19.9692 29.027 19.6783 28.6433 19.4792H28.6463C28.5187 19.4151 28.4114 19.3167 28.3364 19.1951C28.2614 19.0735 28.2217 18.9334 28.2217 18.7905C28.2217 18.6476 28.2614 18.5076 28.3364 18.3859C28.4114 18.2643 28.5187 18.1659 28.6463 18.1018C29.0292 17.9026 29.357 17.6119 29.6006 17.2555C29.8441 16.8992 29.9958 16.4882 30.0423 16.0591C29.9956 15.5546 29.7738 15.0825 29.4153 14.7246C29.0568 14.3666 28.5843 14.1455 28.0798 14.0996C27.6872 14.0462 27.2877 14.0799 26.9096 14.1983C26.5315 14.3168 26.1841 14.517 25.8922 14.7849L21.8838 18.7932L25.8922 22.8015C26.1802 23.0753 26.5272 23.2794 26.9064 23.3982C27.2856 23.517 27.687 23.5473 28.0798 23.4868C28.5848 23.4408 29.0576 23.2192 29.4162 22.8607C29.7747 22.5021 29.9963 22.0292 30.0423 21.5243C29.9959 21.0944 29.8438 20.6828 29.5997 20.326Z" fill="url(#paint0_linear_713_2799)"/>
<defs>
<filter id="filter0_f_713_2799" x="0" y="44" width="43" height="9" filterUnits="userSpaceOnUse" color-interpolation-filters="sRGB">
<feFlood flood-opacity="0" result="BackgroundImageFix"/>
<feBlend mode="normal" in="SourceGraphic" in2="BackgroundImageFix" result="shape"/>
<feGaussianBlur stdDeviation="2" result="effect1_foregroundBlur_713_2799"/>
</filter>
<linearGradient id="paint0_linear_713_2799" x1="14.8897" y1="-7.3781" x2="40.6854" y2="37.0981" gradientUnits="userSpaceOnUse">
<stop stop-color="#9B79DD"/>
<stop offset="0.559247" stop-color="#014280"/>
</linearGradient>
</defs>
</svg>
