<svg width="43" height="52" viewBox="0 0 43 52" fill="none" xmlns="http://www.w3.org/2000/svg">
<path fill-rule="evenodd" clip-rule="evenodd" d="M20.4975 0.955078C20.9117 0.955078 21.2475 1.29086 21.2475 1.70508V6.92716C21.2475 7.34137 20.9117 7.67716 20.4975 7.67716C20.0832 7.67716 19.7475 7.34137 19.7475 6.92716V1.70508C19.7475 1.29086 20.0832 0.955078 20.4975 0.955078ZM9.2053 1.67387C9.56862 1.47495 10.0244 1.60823 10.2233 1.97155L12.7393 6.56699C12.9382 6.93031 12.805 7.3861 12.4416 7.58502C12.0783 7.78393 11.6225 7.65066 11.4236 7.28733L8.90762 2.6919C8.7087 2.32858 8.84198 1.87279 9.2053 1.67387ZM31.79 1.68041C32.1532 1.87954 32.2862 2.33541 32.0871 2.69861L29.5711 7.28772C29.372 7.65092 28.9161 7.78394 28.5529 7.58481C28.1897 7.38568 28.0567 6.92981 28.2558 6.5666L30.7718 1.9775C30.9709 1.61429 31.4268 1.48128 31.79 1.68041ZM34.733 7.99503C34.8658 7.98745 34.9926 8.01493 35.1042 8.06942C35.3539 8.19093 35.5237 8.44618 35.5262 8.73672C35.5286 8.7935 35.5288 8.85016 35.5268 8.9066C35.5416 9.06151 35.6045 9.20847 35.7075 9.32569C35.8315 9.46697 36.0036 9.55381 36.1876 9.57026H36.2544C36.6686 9.57026 37.0044 9.90605 37.0044 10.3203C37.0044 10.3277 37.0043 10.3351 37.0041 10.3424C37.0043 10.3498 37.0044 10.3572 37.0044 10.3646C37.0044 10.7788 36.6686 11.1146 36.2544 11.1146H36.1876C36.0036 11.131 35.8315 11.2179 35.7075 11.3591C35.6044 11.4766 35.5414 11.6238 35.5267 11.779C35.5285 11.8331 35.5284 11.8875 35.5263 11.9421C35.5259 12.335 35.2197 12.6649 34.8221 12.6893C34.5084 12.7085 34.228 12.532 34.0998 12.2651C34.0531 12.1683 34.0266 12.0603 34.0256 11.9468C34.0232 11.8914 34.0228 11.8361 34.0245 11.7811C34.0093 11.6252 33.9459 11.4775 33.8424 11.3596C33.7183 11.2182 33.5464 11.1308 33.3624 11.1133H33.2911C32.8769 11.1133 32.5411 10.7775 32.5411 10.3633C32.5411 10.3551 32.5412 10.347 32.5415 10.339L32.5413 10.3199C32.5413 9.90572 32.8771 9.56993 33.2913 9.56993H33.3625C33.5465 9.55239 33.7184 9.46502 33.8425 9.32364C33.9457 9.20611 34.0091 9.05895 34.0245 8.90369C34.0228 8.84735 34.0232 8.79079 34.0257 8.73414C34.0304 8.34345 34.337 8.0176 34.733 7.99503ZM6.33108 20.2293L6.33243 20.2293H11.4986C11.5014 20.1691 11.5078 20.1091 11.518 20.0494L11.5192 20.0428L11.5192 20.0428L13.1546 10.9722L13.1558 10.9655L13.1558 10.9655C13.2188 10.6332 13.3952 10.3325 13.6558 10.1156C13.9164 9.89861 14.2448 9.77934 14.5845 9.7793H14.5846H26.4097H26.4098C26.7495 9.77934 27.0779 9.89861 27.3386 10.1156C27.5991 10.3325 27.7755 10.6332 27.8385 10.9655L27.8398 10.9722L27.8397 10.9722L29.4751 20.0428L29.4763 20.0494L29.4763 20.0494C29.4864 20.1088 29.4929 20.1686 29.4957 20.2285H35.1639H35.1663C35.5079 20.2296 35.8376 20.3518 36.0975 20.5726C36.3563 20.7924 36.5294 21.0959 36.5879 21.4295L36.5885 21.4333L38.2354 30.5166L38.2367 30.5239L38.2367 30.5239C38.2727 30.7345 38.2622 30.9504 38.2059 31.1565C38.1496 31.3626 38.0487 31.554 37.9102 31.7171C37.7717 31.8801 37.5989 32.0108 37.4038 32.0995C37.2107 32.1873 37.0007 32.2318 36.7885 32.2296H21.697H21.6958C21.483 32.2293 21.273 32.1819 21.0807 32.091C20.9617 32.0347 20.8513 31.9626 20.7524 31.877C20.6478 31.9674 20.5305 32.0427 20.4038 32.1003C20.2107 32.1881 20.0007 32.2326 19.7885 32.2304H4.69703L4.69579 32.2304C4.48298 32.2301 4.27299 32.1827 4.0807 32.0918C3.88845 32.0009 3.71878 31.8688 3.58348 31.7051C3.44819 31.5415 3.35051 31.3503 3.29705 31.1451C3.2437 30.9403 3.23561 30.7263 3.27333 30.5181L3.27355 30.5169L4.90229 21.4293L4.90244 21.4285C4.9628 21.0939 5.138 20.7901 5.39877 20.5706C5.65965 20.3511 5.98952 20.2299 6.33108 20.2293ZM20.7516 27.8489L21.8438 21.7551H19.6468L20.7516 27.8489ZM27.9844 20.2285H23.3324L23.3311 20.2285C23.2386 20.2287 23.1469 20.2377 23.0572 20.2551H18.4334C18.3459 20.2383 18.2565 20.2296 18.1663 20.2293H18.1639H13.0097L14.6234 11.2793H26.3709L27.9844 20.2285ZM23.3677 21.7551L21.7592 30.7296H36.7496L35.1177 21.7285H28.3192C28.23 21.7458 28.1391 21.7548 28.0477 21.7551L28.0476 21.7285H28.0451V21.7551H23.3677ZM6.37243 21.7293H12.6792C12.7671 21.7461 12.8566 21.7548 12.9466 21.7551L12.9492 21.7551H18.1223L19.7496 30.7304H4.75918L6.37243 21.7293ZM19.793 31.4804L19.8032 30.7797L19.8032 30.7774L19.8032 30.7771L19.803 30.7771L19.8021 30.7773L19.793 30.779V31.4804ZM19.793 30.7718V30.7711V30.7687V30.7572V30.7316C19.7965 30.7308 19.8002 30.7305 19.8039 30.7305L19.8034 30.77L19.7991 30.7708L19.7961 30.7713L19.7945 30.7716L19.793 30.7718ZM7.61066 12.2575C7.61303 12.3126 7.61338 12.3677 7.61173 12.4225C7.62593 12.5819 7.6902 12.7331 7.79591 12.8535C7.92014 12.995 8.09179 13.0829 8.27585 13.1015H8.33898C8.7532 13.1015 9.08898 13.4373 9.08898 13.8515C9.08898 13.8589 9.08887 13.8663 9.08866 13.8737C9.08887 13.881 9.08898 13.8884 9.08898 13.8958C9.08898 14.31 8.7532 14.6458 8.33898 14.6458H8.27402C8.08999 14.6634 7.91814 14.7507 7.794 14.8921C7.69037 15.0101 7.62691 15.1581 7.61187 15.3141C7.61385 15.3744 7.61341 15.4349 7.61051 15.4955C7.60938 15.5329 7.60548 15.5696 7.59902 15.6055C7.53359 15.9743 7.2012 16.2442 6.81798 16.2224C6.42427 16.1999 6.11884 15.8777 6.11078 15.49C6.10809 15.4314 6.10768 15.373 6.10953 15.3148C6.09435 15.1588 6.03085 15.0109 5.92733 14.8929C5.80315 14.7514 5.63132 14.664 5.44744 14.6465H5.40137C4.98715 14.6465 4.65137 14.3107 4.65137 13.8965C4.65137 13.8889 4.65148 13.8813 4.65171 13.8737C4.65148 13.8662 4.65137 13.8586 4.65137 13.851C4.65137 13.4368 4.98715 13.101 5.40137 13.101H5.44563C5.62969 13.0824 5.80134 12.9945 5.92557 12.853C6.03122 12.7327 6.09548 12.5815 6.10973 12.4222C6.10812 12.368 6.10845 12.3136 6.11077 12.259C6.11859 11.8697 6.42603 11.5468 6.82106 11.5259C7.15826 11.5081 7.45519 11.7159 7.56526 12.0174C7.5929 12.0927 7.60874 12.1735 7.61066 12.2575Z" fill="url(#paint0_linear_713_2798)"/>
<g opacity="0.3" filter="url(#filter0_f_713_2798)">
<ellipse cx="21.5" cy="47.5" rx="17.5" ry="0.5" fill="black"/>
</g>
<defs>
<filter id="filter0_f_713_2798" x="0" y="43" width="43" height="9" filterUnits="userSpaceOnUse" color-interpolation-filters="sRGB">
<feFlood flood-opacity="0" result="BackgroundImageFix"/>
<feBlend mode="normal" in="SourceGraphic" in2="BackgroundImageFix" result="shape"/>
<feGaussianBlur stdDeviation="2" result="effect1_foregroundBlur_713_2798"/>
</filter>
<linearGradient id="paint0_linear_713_2798" x1="15.0908" y1="-5.94187" x2="35.6136" y2="33.6655" gradientUnits="userSpaceOnUse">
<stop stop-color="#9B79DD"/>
<stop offset="0.559247" stop-color="#014280"/>
</linearGradient>
</defs>
</svg>
