<svg width="43" height="49" viewBox="0 0 43 49" fill="none" xmlns="http://www.w3.org/2000/svg">
<path fill-rule="evenodd" clip-rule="evenodd" d="M25.7276 0.6445C25.7276 0.288543 26.0116 0 26.3618 0C31.125 0 35.0001 3.9379 35.0001 8.77816C35.0001 9.13411 34.7161 9.42266 34.3659 9.42266C34.0157 9.42266 33.7316 9.13411 33.7316 8.77816C33.7316 4.64859 30.4255 1.289 26.3618 1.289C26.0116 1.289 25.7276 1.00046 25.7276 0.6445ZM26.3618 3.44531C26.0116 3.44531 25.7276 3.73386 25.7276 4.08981C25.7276 4.44577 26.0116 4.73431 26.3618 4.73431C28.5586 4.73431 30.3458 6.55045 30.3458 8.78281C30.3458 9.13876 30.6298 9.42731 30.9801 9.42731C31.3303 9.42731 31.6143 9.13876 31.6143 8.78281C31.6144 5.8397 29.2581 3.44531 26.3618 3.44531ZM22.8341 24.9096C23.0848 24.9256 23.3335 24.9336 23.5806 24.9336C26.4165 24.9335 28.9976 23.8851 30.9121 21.9397C31.4158 21.4279 31.9088 20.4109 31.3971 18.4731C31.0451 17.1403 30.2676 15.5604 29.1487 13.904C28.9504 13.6105 28.5557 13.5359 28.2669 13.7374C27.9781 13.9388 27.9047 14.3401 28.1029 14.6336C29.1414 16.1708 29.8568 17.614 30.1719 18.8071C30.4486 19.8554 30.3929 20.6442 30.0149 21.0283C29.444 21.6085 28.0227 21.4355 26.2133 20.5657C24.8602 19.9154 23.3926 18.9349 21.9321 17.7158C22.7925 16.6466 22.8567 15.1326 22.125 13.9969L25.4258 10.6427C25.7159 10.7922 26.0339 10.8674 26.3521 10.8674C26.8759 10.8674 27.3997 10.6648 27.7984 10.2597C28.5959 9.4492 28.5959 8.13061 27.7984 7.32022C27.001 6.50989 25.7033 6.50982 24.9058 7.32022C24.2649 7.97155 24.1395 8.951 24.5289 9.73123L21.2283 13.0852C20.728 12.751 20.1426 12.5712 19.5299 12.5712C18.8081 12.5712 18.1242 12.8203 17.5727 13.2779C16.3892 11.8079 15.4366 10.3323 14.8028 8.97059C13.947 7.1317 13.7768 5.68757 14.3476 5.10746C15.2015 4.23964 18.1995 5.0035 22.0733 8.12836C22.3477 8.34962 22.7467 8.30308 22.9644 8.02427C23.1822 7.74546 23.1363 7.34007 22.862 7.11875C20.9602 5.58458 19.1037 4.47211 17.4935 3.9016C15.1942 3.08682 14.0263 3.61157 13.4513 4.19549L13.4508 4.19594C11.3696 6.31087 10.3316 9.22607 10.5282 12.4046C10.7229 15.5525 12.1086 18.5854 14.4301 20.9446C14.8418 21.363 15.2748 21.7508 15.7252 22.108L15.7233 22.1131C15.7221 22.1162 15.7209 22.1193 15.7199 22.1225L13.9543 27.8394H12.4444C9.99371 27.8394 8 29.8655 8 32.3558C8 32.7117 8.28401 33.0003 8.63423 33.0003H26.0005C26.3507 33.0003 26.6347 32.7117 26.6347 32.3558C26.6347 29.8654 24.6409 27.8394 22.1904 27.8394H20.1109V24.4167C20.999 24.6836 21.9114 24.8507 22.8341 24.9096ZM25.8027 8.23154C25.9542 8.07757 26.1531 8.00062 26.3521 8.00062C26.551 8.00062 26.75 8.07757 26.9014 8.23148C27.2044 8.53929 27.2044 9.0402 26.9014 9.34801C26.5986 9.65582 26.1056 9.65582 25.8027 9.34801C25.4997 9.04026 25.4997 8.53936 25.8027 8.23154ZM19.5299 13.8601C20.0191 13.8601 20.4792 14.0536 20.8252 14.405L20.8258 14.4056L20.8264 14.4062C21.489 15.0801 21.536 16.1456 20.9685 16.8756C20.5303 16.4772 20.0951 16.0592 19.6663 15.6235C19.2241 15.1742 18.8005 14.7179 18.3974 14.2585C18.7192 14.0005 19.1138 13.8601 19.5299 13.8601ZM16.8129 22.888C17.4633 23.3074 18.1424 23.6662 18.8424 23.9608V27.8394H18.8423H15.2836L16.8129 22.888ZM22.1902 29.1284C23.7243 29.1284 25.0079 30.2394 25.3025 31.7113H9.33195C9.62661 30.2394 10.9102 29.1284 12.4443 29.1284H22.1902ZM15.327 20.0331C13.224 17.8961 11.9693 15.1582 11.794 12.3237C11.6778 10.4428 12.0482 8.6709 12.8537 7.14956C12.987 7.86231 13.2542 8.65801 13.6561 9.52164C14.6911 11.7452 16.507 14.236 18.7694 16.535C21.0318 18.834 23.4828 20.6794 25.671 21.731C26.5192 22.1387 27.3008 22.4099 28.0012 22.5457C24.1808 24.6238 18.9538 23.7187 15.327 20.0331Z" fill="url(#paint0_linear_713_2605)"/>
<g opacity="0.3" filter="url(#filter0_f_713_2605)">
<ellipse cx="21.5" cy="44.5" rx="17.5" ry="0.5" fill="black"/>
</g>
<defs>
<filter id="filter0_f_713_2605" x="0" y="40" width="43" height="9" filterUnits="userSpaceOnUse" color-interpolation-filters="sRGB">
<feFlood flood-opacity="0" result="BackgroundImageFix"/>
<feBlend mode="normal" in="SourceGraphic" in2="BackgroundImageFix" result="shape"/>
<feGaussianBlur stdDeviation="2" result="effect1_foregroundBlur_713_2605"/>
</filter>
<linearGradient id="paint0_linear_713_2605" x1="17.1324" y1="-7.27731" x2="42.1434" y2="28.0051" gradientUnits="userSpaceOnUse">
<stop stop-color="#F36D39"/>
<stop offset="0.559247" stop-color="#014280"/>
</linearGradient>
</defs>
</svg>
