<svg width="43" height="45" viewBox="0 0 43 45" fill="none" xmlns="http://www.w3.org/2000/svg">
<g opacity="0.3" filter="url(#filter0_f_713_2604)">
<ellipse cx="21.5" cy="40.5" rx="17.5" ry="0.5" fill="black"/>
</g>
<path d="M40.4434 5.56641H17.6211V2.7832C17.6211 1.24851 16.3726 0 14.8379 0H8.00977C6.47507 0 5.22656 1.24851 5.22656 2.7832V25.6614C3.95772 25.92 3 27.0446 3 28.3887C3 28.6962 3.24915 28.9453 3.55664 28.9453H19.291C19.5985 28.9453 19.8477 28.6962 19.8477 28.3887C19.8477 27.0446 18.8899 25.9201 17.6211 25.6615V11.1328H40.4434C40.7508 11.1328 41 10.8837 41 10.5762V6.12305C41 5.81556 40.7508 5.56641 40.4434 5.56641ZM14.2812 8.34961C14.2812 9.8843 13.0327 11.1328 11.498 11.1328C9.96335 11.1328 8.71484 9.8843 8.71484 8.34961C8.71484 6.81491 9.96335 5.56641 11.498 5.56641C13.0327 5.56641 14.2812 6.81491 14.2812 8.34961ZM15.0178 6.67969H18.7344V10.0195H15.0178C15.2591 9.51306 15.3945 8.94692 15.3945 8.34961C15.3945 7.7523 15.2591 7.18616 15.0178 6.67969ZM19.8477 6.67969H25.7852V10.0195H19.8477V6.67969ZM26.8984 6.67969H32.8359V10.0195H26.8984V6.67969ZM8.00977 1.11328H14.8379C15.5635 1.11328 16.1823 1.57871 16.4121 2.22656H6.43559C6.66537 1.57871 7.28413 1.11328 8.00977 1.11328V1.11328ZM16.5078 25.6055H8.00977C7.70228 25.6055 7.45312 25.8546 7.45312 26.1621C7.45312 26.4696 7.70228 26.7188 8.00977 26.7188H17.0645C17.7902 26.7188 18.4092 27.1841 18.639 27.832H4.20865C4.43843 27.1841 5.05749 26.7188 5.7832 26.7188C6.09069 26.7188 6.33984 26.4696 6.33984 26.1621V3.33984H16.5078V5.56641H14.2213C13.5183 4.8784 12.5571 4.45312 11.498 4.45312C9.34956 4.45312 7.60156 6.20113 7.60156 8.34961C7.60156 10.4981 9.34956 12.2461 11.498 12.2461C12.5571 12.2461 13.5182 11.8208 14.2213 11.1328H16.5078V25.6055ZM39.8867 10.0195H33.9492V6.67969H39.8867V10.0195Z" fill="url(#paint0_linear_713_2604)"/>
<defs>
<filter id="filter0_f_713_2604" x="0" y="36" width="43" height="9" filterUnits="userSpaceOnUse" color-interpolation-filters="sRGB">
<feFlood flood-opacity="0" result="BackgroundImageFix"/>
<feBlend mode="normal" in="SourceGraphic" in2="BackgroundImageFix" result="shape"/>
<feGaussianBlur stdDeviation="2" result="effect1_foregroundBlur_713_2604"/>
</filter>
<linearGradient id="paint0_linear_713_2604" x1="15.8529" y1="-6.38311" x2="33.0407" y2="32.5218" gradientUnits="userSpaceOnUse">
<stop stop-color="#F36D39"/>
<stop offset="0.559247" stop-color="#014280"/>
</linearGradient>
</defs>
</svg>
