<svg width="43" height="51" viewBox="0 0 43 51" fill="none" xmlns="http://www.w3.org/2000/svg">
<g opacity="0.3" filter="url(#filter0_f_713_2796)">
<ellipse cx="21.5" cy="46.5" rx="17.5" ry="0.5" fill="black"/>
</g>
<path fill-rule="evenodd" clip-rule="evenodd" d="M34.2414 9.59439C34.1776 9.54006 34.1029 9.50013 34.0224 9.47732C33.9418 9.45451 33.8572 9.44936 33.7745 9.46222C33.6063 9.4833 33.4369 9.49336 33.2675 9.49235C32.0692 9.48983 30.9209 9.01213 30.0744 8.16406C29.2278 7.31599 28.7523 6.16678 28.7519 4.96852C28.7504 4.28119 28.9073 3.60276 29.2107 2.98599C29.2467 2.91237 29.2667 2.83192 29.2693 2.74998C29.2719 2.66804 29.2571 2.58649 29.2258 2.51073C29.1944 2.43497 29.1473 2.36674 29.0876 2.31057C29.0279 2.2544 28.9569 2.21157 28.8794 2.18493L27.9453 1.86356C22.9997 0.169715 17.6285 0.186716 12.6937 1.91183L12.0883 2.12422C12.0106 2.1515 11.9397 2.19506 11.8802 2.25197C11.8207 2.30889 11.7741 2.37785 11.7434 2.45424C11.7127 2.53063 11.6987 2.6127 11.7023 2.69494C11.7059 2.77719 11.727 2.85772 11.7642 2.93114C12.0865 3.56182 12.2541 4.26008 12.2533 4.96831C12.2524 6.16712 11.7761 7.31665 10.9288 8.16473C10.0815 9.01281 8.93244 9.49018 7.73363 9.49214C7.56453 9.49314 7.39555 9.48307 7.22777 9.462C7.14487 9.449 7.06014 9.45399 6.97934 9.47666C6.89855 9.49932 6.82358 9.53911 6.75953 9.59333C6.69549 9.64755 6.64387 9.71493 6.60818 9.79088C6.5725 9.86683 6.55359 9.94957 6.55273 10.0335V15.7368C6.55588 19.519 7.6606 23.2184 9.73192 26.383C11.8032 29.5476 14.7515 32.0404 18.2164 33.5568L20.0288 34.3504C20.1017 34.3822 20.1805 34.3987 20.2601 34.3989C20.3397 34.3991 20.4185 34.383 20.4916 34.3515L22.5451 33.4638L22.5591 33.458C22.5684 33.4542 22.5782 33.4503 22.5862 33.4462C26.1031 31.9583 29.1037 29.4673 31.2132 26.2842C33.3227 23.101 34.4475 19.3669 34.4473 15.5482V10.0335C34.4466 9.94979 34.4278 9.86723 34.3923 9.79146C34.3567 9.71568 34.3053 9.64846 34.2414 9.59439ZM33.291 15.5482C33.291 19.148 32.228 22.6676 30.2355 25.6656C28.2429 28.6636 25.4095 31.0066 22.0906 32.4006C22.0752 32.4071 22.0582 32.4143 22.0436 32.4222L20.265 33.1906L18.6807 32.4981C15.4215 31.0719 12.6483 28.7272 10.6998 25.7506C8.75139 22.774 7.71212 19.2944 7.70898 15.7368V10.6342H7.73363C9.23824 10.6335 10.6811 10.0357 11.7453 8.97208C12.8095 7.90844 13.4081 6.46591 13.4095 4.9613C13.4106 4.29364 13.2918 3.63121 13.0587 3.00557L13.0768 3.00095C17.766 1.36208 22.8698 1.34625 27.5691 2.956L27.9192 3.0769C27.7035 3.68161 27.594 4.31901 27.5953 4.96101C27.5961 6.46504 28.1938 7.90726 29.2571 8.97095C30.3205 10.0346 31.7625 10.6328 33.2665 10.6342H33.291V15.5482ZM20.4996 9.53906C18.9252 9.53906 17.3861 10.0059 16.077 10.8807C14.7679 11.7554 13.7475 12.9986 13.145 14.4532C12.5425 15.9079 12.3849 17.5085 12.692 19.0527C12.9992 20.5969 13.7574 22.0153 14.8707 23.1286C15.984 24.2419 17.4024 25.0001 18.9466 25.3072C20.4908 25.6144 22.0914 25.4567 23.546 24.8542C25.0006 24.2517 26.2439 23.2314 27.1186 21.9223C27.9933 20.6132 28.4602 19.0741 28.4602 17.4996C28.4578 15.3891 27.6184 13.3657 26.126 11.8733C24.6336 10.3809 22.6102 9.54143 20.4996 9.53906ZM20.4996 24.3039C19.1539 24.3039 17.8383 23.9049 16.7194 23.1572C15.6004 22.4095 14.7283 21.3468 14.2133 20.1035C13.6983 18.8602 13.5635 17.4921 13.8261 16.1722C14.0886 14.8523 14.7367 13.6398 15.6883 12.6882C16.6399 11.7366 17.8523 11.0886 19.1722 10.8261C20.4921 10.5635 21.8602 10.6983 23.1035 11.2133C24.3469 11.7283 25.4095 12.6004 26.1572 13.7194C26.9049 14.8383 27.3039 16.1539 27.3039 17.4996C27.3019 19.3036 26.5844 21.0331 25.3087 22.3087C24.0331 23.5844 22.3036 24.3019 20.4996 24.3039ZM23.4457 14.0065C23.3373 14.1149 23.1902 14.1758 23.0369 14.1758H21.6566C21.8755 14.4782 22.0294 14.8227 22.1087 15.1875H23.0369C23.1902 15.1875 23.3373 15.2484 23.4457 15.3568C23.5541 15.4652 23.615 15.6123 23.615 15.7656C23.615 15.919 23.5541 16.066 23.4457 16.1744C23.3373 16.2828 23.1902 16.3438 23.0369 16.3438H22.1087C21.9739 16.9591 21.6343 17.5105 21.1454 17.9077C20.6564 18.3049 20.0472 18.5243 19.4173 18.5301L21.9891 20.9702C22.0455 21.022 22.091 21.0845 22.1231 21.154C22.1551 21.2236 22.173 21.2988 22.1756 21.3753C22.1783 21.4519 22.1657 21.5282 22.1386 21.5998C22.1114 21.6714 22.0703 21.7369 22.0176 21.7925C21.9649 21.848 21.9017 21.8925 21.8316 21.9234C21.7616 21.9543 21.686 21.9709 21.6095 21.9723C21.5329 21.9737 21.4568 21.9599 21.3857 21.9316C21.3145 21.9033 21.2497 21.8611 21.195 21.8075L17.5668 18.3754C17.483 18.294 17.425 18.1897 17.4001 18.0756C17.3752 17.9615 17.3846 17.8425 17.427 17.7337C17.4693 17.6248 17.5429 17.5309 17.6384 17.4636C17.7339 17.3963 17.8471 17.3587 17.9639 17.3555H19.4152C20.0928 17.3555 20.6728 16.9941 20.9051 16.3438H17.9639C17.8105 16.3438 17.6635 16.2828 17.5551 16.1744C17.4467 16.066 17.3857 15.919 17.3857 15.7656C17.3857 15.6123 17.4467 15.4652 17.5551 15.3568C17.6635 15.2484 17.8105 15.1875 17.9639 15.1875H20.9051C20.7847 14.8904 20.5789 14.6358 20.3138 14.4557C20.0486 14.2756 19.7361 14.1782 19.4155 14.1758H17.9639C17.8105 14.1758 17.6635 14.1149 17.5551 14.0065C17.4467 13.898 17.3857 13.751 17.3857 13.5977C17.3857 13.4443 17.4467 13.2973 17.5551 13.1889C17.6635 13.0804 17.8105 13.0195 17.9639 13.0195H23.0369C23.1902 13.0195 23.3373 13.0804 23.4457 13.1889C23.5541 13.2973 23.615 13.4443 23.615 13.5977C23.615 13.751 23.5541 13.898 23.4457 14.0065Z" fill="url(#paint0_linear_713_2796)"/>
<defs>
<filter id="filter0_f_713_2796" x="0" y="42" width="43" height="9" filterUnits="userSpaceOnUse" color-interpolation-filters="sRGB">
<feFlood flood-opacity="0" result="BackgroundImageFix"/>
<feBlend mode="normal" in="SourceGraphic" in2="BackgroundImageFix" result="shape"/>
<feGaussianBlur stdDeviation="2" result="effect1_foregroundBlur_713_2796"/>
</filter>
<linearGradient id="paint0_linear_713_2796" x1="15.9877" y1="-6.84676" x2="41.5241" y2="29.4967" gradientUnits="userSpaceOnUse">
<stop stop-color="#9B79DD"/>
<stop offset="0.559247" stop-color="#014280"/>
</linearGradient>
</defs>
</svg>
