<svg width="44" height="53" viewBox="0 0 44 53" fill="none" xmlns="http://www.w3.org/2000/svg">
<g opacity="0.3" filter="url(#filter0_f_6825_6521)">
<ellipse cx="22.25" cy="48.5" rx="17.5" ry="0.5" fill="black"/>
</g>
<path fill-rule="evenodd" clip-rule="evenodd" d="M21.2475 0.955078C21.6617 0.955078 21.9975 1.29086 21.9975 1.70508V6.92716C21.9975 7.34137 21.6617 7.67716 21.2475 7.67716C20.8332 7.67716 20.4975 7.34137 20.4975 6.92716V1.70508C20.4975 1.29086 20.8332 0.955078 21.2475 0.955078ZM9.9553 1.67387C10.3186 1.47495 10.7744 1.60823 10.9733 1.97155L13.4893 6.56699C13.6882 6.93031 13.555 7.3861 13.1916 7.58502C12.8283 7.78393 12.3725 7.65066 12.1736 7.28733L9.65762 2.6919C9.4587 2.32858 9.59198 1.87279 9.9553 1.67387ZM32.54 1.68041C32.9032 1.87954 33.0362 2.33541 32.8371 2.69861L30.3211 7.28772C30.122 7.65092 29.6661 7.78394 29.3029 7.58481C28.9397 7.38568 28.8067 6.92981 29.0058 6.5666L31.5218 1.9775C31.7209 1.61429 32.1768 1.48128 32.54 1.68041ZM35.483 7.99503C35.6158 7.98745 35.7426 8.01493 35.8542 8.06942C36.1039 8.19093 36.2737 8.44618 36.2762 8.73672C36.2786 8.7935 36.2788 8.85016 36.2768 8.9066C36.2916 9.06151 36.3545 9.20847 36.4575 9.32569C36.5815 9.46697 36.7536 9.55381 36.9376 9.57026H37.0044C37.4186 9.57026 37.7544 9.90605 37.7544 10.3203C37.7544 10.3277 37.7543 10.3351 37.7541 10.3424C37.7543 10.3498 37.7544 10.3572 37.7544 10.3646C37.7544 10.7788 37.4186 11.1146 37.0044 11.1146H36.9376C36.7536 11.131 36.5815 11.2179 36.4575 11.3591C36.3544 11.4766 36.2914 11.6238 36.2767 11.779C36.2785 11.8331 36.2784 11.8875 36.2763 11.9421C36.2759 12.335 35.9697 12.6649 35.5721 12.6893C35.2584 12.7085 34.978 12.532 34.8498 12.2651C34.8031 12.1683 34.7766 12.0603 34.7756 11.9468C34.7732 11.8914 34.7728 11.8361 34.7745 11.7811C34.7593 11.6252 34.6959 11.4775 34.5924 11.3596C34.4683 11.2182 34.2964 11.1308 34.1124 11.1133H34.0411C33.6269 11.1133 33.2911 10.7775 33.2911 10.3633C33.2911 10.3551 33.2912 10.347 33.2915 10.339L33.2913 10.3199C33.2913 9.90572 33.6271 9.56993 34.0413 9.56993H34.1125C34.2965 9.55239 34.4684 9.46502 34.5925 9.32364C34.6957 9.20611 34.7591 9.05895 34.7745 8.90369C34.7728 8.84735 34.7732 8.79079 34.7757 8.73414C34.7804 8.34345 35.087 8.0176 35.483 7.99503ZM7.08108 20.2293L7.08243 20.2293H12.2486C12.2514 20.1691 12.2578 20.1091 12.268 20.0494L12.2692 20.0428L12.2692 20.0428L13.9046 10.9722L13.9058 10.9655L13.9058 10.9655C13.9688 10.6332 14.1452 10.3325 14.4058 10.1156C14.6664 9.89861 14.9948 9.77934 15.3345 9.7793H15.3346H27.1597H27.1598C27.4995 9.77934 27.8279 9.89861 28.0886 10.1156C28.3491 10.3325 28.5255 10.6332 28.5885 10.9655L28.5898 10.9722L28.5897 10.9722L30.2251 20.0428L30.2263 20.0494L30.2263 20.0494C30.2364 20.1088 30.2429 20.1686 30.2457 20.2285H35.9139H35.9163C36.2579 20.2296 36.5876 20.3518 36.8475 20.5726C37.1063 20.7924 37.2794 21.0959 37.3379 21.4295L37.3385 21.4333L38.9854 30.5166L38.9867 30.5239L38.9867 30.5239C39.0227 30.7345 39.0122 30.9504 38.9559 31.1565C38.8996 31.3626 38.7987 31.554 38.6602 31.7171C38.5217 31.8801 38.3489 32.0108 38.1538 32.0995C37.9607 32.1873 37.7507 32.2318 37.5385 32.2296H22.447H22.4458C22.233 32.2293 22.023 32.1819 21.8307 32.091C21.7117 32.0347 21.6013 31.9626 21.5024 31.877C21.3978 31.9674 21.2805 32.0427 21.1538 32.1003C20.9607 32.1881 20.7507 32.2326 20.5385 32.2304H5.44703L5.44579 32.2304C5.23298 32.2301 5.02299 32.1827 4.8307 32.0918C4.63845 32.0009 4.46878 31.8688 4.33348 31.7051C4.19819 31.5415 4.10051 31.3503 4.04705 31.1451C3.9937 30.9403 3.98561 30.7263 4.02333 30.5181L4.02355 30.5169L5.65229 21.4293L5.65244 21.4285C5.7128 21.0939 5.888 20.7901 6.14877 20.5706C6.40965 20.3511 6.73952 20.2299 7.08108 20.2293ZM21.5016 27.8489L22.5938 21.7551H20.3968L21.5016 27.8489ZM28.7344 20.2285H24.0824L24.0811 20.2285C23.9886 20.2287 23.8969 20.2377 23.8072 20.2551H19.1834C19.0959 20.2383 19.0065 20.2296 18.9163 20.2293H18.9139H13.7597L15.3734 11.2793H27.1209L28.7344 20.2285ZM24.1177 21.7551L22.5092 30.7296H37.4996L35.8677 21.7285H29.0692C28.98 21.7458 28.8891 21.7548 28.7977 21.7551L28.7976 21.7285H28.7951V21.7551H24.1177ZM7.12243 21.7293H13.4292C13.5171 21.7461 13.6066 21.7548 13.6966 21.7551L13.6992 21.7551H18.8723L20.4996 30.7304H5.50918L7.12243 21.7293ZM8.36066 12.2575C8.36303 12.3126 8.36338 12.3677 8.36173 12.4225C8.37593 12.5819 8.4402 12.7331 8.54591 12.8535C8.67014 12.995 8.84179 13.0829 9.02585 13.1015H9.08898C9.5032 13.1015 9.83898 13.4373 9.83898 13.8515C9.83898 13.8589 9.83887 13.8663 9.83866 13.8737C9.83887 13.881 9.83898 13.8884 9.83898 13.8958C9.83898 14.31 9.5032 14.6458 9.08898 14.6458H9.02402C8.83999 14.6634 8.66814 14.7507 8.544 14.8921C8.44037 15.0101 8.37691 15.1581 8.36187 15.3141C8.36385 15.3744 8.36341 15.4349 8.36051 15.4955C8.35938 15.5329 8.35548 15.5696 8.34902 15.6055C8.28359 15.9743 7.9512 16.2442 7.56798 16.2224C7.17427 16.1999 6.86884 15.8777 6.86078 15.49C6.85809 15.4314 6.85768 15.373 6.85953 15.3148C6.84435 15.1588 6.78085 15.0109 6.67733 14.8929C6.55315 14.7514 6.38132 14.664 6.19744 14.6465H6.15137C5.73715 14.6465 5.40137 14.3107 5.40137 13.8965C5.40137 13.8889 5.40148 13.8813 5.40171 13.8737C5.40148 13.8662 5.40137 13.8586 5.40137 13.851C5.40137 13.4368 5.73715 13.101 6.15137 13.101H6.19563C6.37969 13.0824 6.55134 12.9945 6.67557 12.853C6.78122 12.7327 6.84548 12.5815 6.85973 12.4222C6.85812 12.368 6.85845 12.3136 6.86077 12.259C6.86859 11.8697 7.17603 11.5468 7.57106 11.5259C7.90826 11.5081 8.20519 11.7159 8.31526 12.0174C8.3429 12.0927 8.35874 12.1735 8.36066 12.2575Z" fill="url(#paint0_linear_6825_6521)"/>
<defs>
<filter id="filter0_f_6825_6521" x="0.75" y="44" width="43" height="9" filterUnits="userSpaceOnUse" color-interpolation-filters="sRGB">
<feFlood flood-opacity="0" result="BackgroundImageFix"/>
<feBlend mode="normal" in="SourceGraphic" in2="BackgroundImageFix" result="shape"/>
<feGaussianBlur stdDeviation="2" result="effect1_foregroundBlur_6825_6521"/>
</filter>
<linearGradient id="paint0_linear_6825_6521" x1="16.8976" y1="-0.0719632" x2="29.4783" y2="13.786" gradientUnits="userSpaceOnUse">
<stop stop-color="#95DFFF"/>
<stop offset="0.927083" stop-color="#014280"/>
</linearGradient>
</defs>
</svg>
