<svg width="16" height="18" viewBox="0 0 16 18" fill="none" xmlns="http://www.w3.org/2000/svg">
<path fill-rule="evenodd" clip-rule="evenodd" d="M6.08585 1.27087C7.19859 0.388877 8.77879 0.388877 9.89153 1.27087L9.8929 1.27195L15.0242 5.36415C15.6291 5.82862 15.9894 6.54222 15.9999 7.30401L16 7.31204L15.9999 14.121C15.9999 15.9318 14.5187 17.3898 12.704 17.3898H11.2023L11.1887 17.3896C10.3542 17.3702 9.67824 16.6932 9.67839 15.8529V13.452C9.67839 13.1691 9.44514 12.9298 9.14499 12.9298H6.89477C6.59686 12.9326 6.36656 13.1709 6.36657 13.452V15.8455C6.36657 15.9574 6.33972 16.0681 6.31568 16.1774C6.16247 16.8741 5.53694 17.3898 4.7976 17.3898H3.29591C1.48119 17.3898 0 15.9318 0 14.121V7.31369C0.00754003 6.55047 0.3685 5.83499 0.975775 5.37151L6.08585 1.27087ZM5.18083 15.8455C5.18083 15.7568 5.19585 15.6684 5.19585 15.5797V13.452C5.19583 12.5159 5.95737 11.7652 6.88857 11.7591L6.89246 11.759L9.14499 11.759C10.0806 11.759 10.8491 12.5115 10.8491 13.452V15.8529C10.8491 16.0448 11.0039 16.2115 11.2106 16.219H12.704C13.8833 16.219 14.8292 15.2742 14.8292 14.121V7.31642C14.8226 6.91569 14.6321 6.53776 14.3084 6.29058L14.2987 6.28302L9.16432 2.18834C8.47805 1.64486 7.5008 1.64419 6.81435 2.18733L1.70257 6.28935L1.68973 6.29936C1.36567 6.54491 1.17549 6.92259 1.17072 7.32263V14.121C1.17072 15.2742 2.11664 16.219 3.29591 16.219H4.7976C5.01481 16.219 5.18083 16.0463 5.18083 15.8455Z" fill="url(#paint0_linear_438_1087)"/>
<defs>
<linearGradient id="paint0_linear_438_1087" x1="0.556521" y1="1.29429" x2="22.0889" y2="15.7104" gradientUnits="userSpaceOnUse">
<stop offset="0.307481" stop-color="#004280"/>
<stop offset="1" stop-color="#00C376"/>
</linearGradient>
</defs>
</svg>
