<svg width="21" height="20" viewBox="0 0 21 20" fill="none" xmlns="http://www.w3.org/2000/svg">
<path fill-rule="evenodd" clip-rule="evenodd" d="M14.5625 8.4C16.3367 8.4 17.775 6.96171 17.775 5.1875C17.775 3.41329 16.3367 1.975 14.5625 1.975C12.7883 1.975 11.35 3.41329 11.35 5.1875C11.35 6.96171 12.7883 8.4 14.5625 8.4ZM14.5625 9.5C16.9442 9.5 18.875 7.56923 18.875 5.1875C18.875 2.80577 16.9442 0.875 14.5625 0.875C12.1808 0.875 10.25 2.80577 10.25 5.1875C10.25 7.56923 12.1808 9.5 14.5625 9.5ZM19.8876 12.6116C19.4531 12.4345 18.9704 12.4346 18.5359 12.6276L18.3428 12.7081C18.1497 12.3702 17.844 12.1127 17.49 11.9679C17.0555 11.7909 16.5728 11.7909 16.1383 11.984L14.2717 12.7725C14.0303 12.869 13.9177 13.1587 14.0142 13.4C14.0947 13.577 14.2717 13.6897 14.4648 13.6897C14.5291 13.6897 14.5935 13.6736 14.6579 13.6575L16.5245 12.869C16.7176 12.7886 16.9429 12.7886 17.136 12.869C17.2647 12.9173 17.3612 12.9978 17.4417 13.0943L13.6441 14.6874C13.6602 14.4299 13.628 14.1724 13.5315 13.9311C13.3545 13.4966 13.0326 13.1426 12.5982 12.9495L8.43046 11.099C6.66039 10.3105 4.60068 10.5518 3.05589 11.7265L2.42833 12.2093L2.38005 12.2575L2.21914 12.4185C2.12259 12.515 2.07431 12.6276 2.07431 12.7564V17.9057H1.09273C0.819175 17.9057 0.609985 18.1149 0.609985 18.3884C0.609985 18.662 0.819175 18.8712 1.09273 18.8712H2.54097C2.81452 18.8712 3.02371 18.662 3.02371 18.3884V12.9495L3.63519 12.4828C4.90642 11.5173 6.57994 11.3242 8.04426 11.9679L12.1959 13.8345C12.389 13.915 12.5499 14.0759 12.6143 14.2851C12.6947 14.4782 12.6786 14.7035 12.5982 14.8966C12.5177 15.0896 12.3568 15.2345 12.1637 15.3149C11.9706 15.3954 11.7453 15.3793 11.5522 15.2988L8.33391 13.8667C8.09254 13.7541 7.80289 13.8667 7.69025 14.1081C7.57761 14.3494 7.69025 14.6391 7.93162 14.7517L11.1499 16.1839C11.5844 16.377 12.0671 16.3931 12.5016 16.2161C12.566 16.2 18.906 13.4966 18.906 13.4966C19.0991 13.4161 19.3244 13.4161 19.5175 13.4966C19.7106 13.577 19.8715 13.738 19.952 13.9311C20.0324 14.1242 20.0324 14.3494 19.952 14.5425C19.8715 14.7356 19.7106 14.8966 19.5175 14.977L10.458 18.8229C9.73387 19.1286 8.89711 19.1125 8.18909 18.7585L4.35931 16.8919C4.11793 16.7793 3.82829 16.8758 3.71565 17.1172C3.60301 17.3586 3.69956 17.6482 3.94093 17.7608L7.77071 19.6275C8.28563 19.8688 8.83275 19.9976 9.39595 19.9976C9.87869 19.9976 10.3775 19.901 10.8442 19.7079L19.9198 15.8781C20.3543 15.7011 20.6922 15.3471 20.8692 14.9126C21.0462 14.4782 21.0462 13.9954 20.8531 13.561C20.66 13.1265 20.3221 12.7886 19.8876 12.6116ZM14.6626 7.23029C14.899 7.23029 15.0907 7.03864 15.0907 6.80222V3.70107C15.0907 3.41305 14.8572 3.17957 14.5691 3.17957C14.4511 3.17957 14.3366 3.21958 14.2443 3.29308L13.3404 4.01277C13.1978 4.12633 13.1745 4.33414 13.2885 4.47643C13.4023 4.61857 13.6099 4.64134 13.7519 4.52726L13.9602 4.35987C14.0138 4.31369 14.071 4.26198 14.132 4.20472C14.1948 4.14561 14.2364 4.10405 14.2567 4.08003C14.253 4.16131 14.2493 4.25274 14.2456 4.35433C14.2419 4.45408 14.2391 4.55197 14.2373 4.64802C14.2354 4.74223 14.2345 4.82165 14.2345 4.8863V6.80222C14.2345 7.03864 14.4262 7.23029 14.6626 7.23029Z" fill="#666666"/>
</svg>
