<svg width="43" height="49" viewBox="0 0 43 49" fill="none" xmlns="http://www.w3.org/2000/svg">
<g opacity="0.3" filter="url(#filter0_f_6825_6476)">
<ellipse cx="21.5" cy="44.5" rx="17.5" ry="0.5" fill="black"/>
</g>
<path fill-rule="evenodd" clip-rule="evenodd" d="M27.1187 16.3876L32.0022 22.6619C33.1379 24.1209 33.3179 26.0424 32.4713 27.6737C31.6237 29.305 29.9217 30.3184 28.0289 30.3184H15.8881C13.9953 30.3184 12.2922 29.305 11.4457 27.6737C10.5991 26.0424 10.7791 24.1219 11.9148 22.6619L17.3102 15.7313C17.4123 15.6001 17.3179 15.3907 17.1982 15.2754L16.5602 14.6607C16.3648 14.4724 16.1041 14.3673 15.8328 14.3673H15.3161C15.0225 14.3673 14.7844 14.6053 14.7844 14.899C14.7844 15.1925 14.5372 15.4307 14.2326 15.4307H6.55185C6.24613 15.4307 6 15.1925 6 14.899C6 14.6055 6.24723 14.3673 6.55185 14.3673C8.05076 14.3673 9.26587 13.1522 9.26587 11.6533V8.57403C9.26587 7.07512 8.05076 5.86001 6.55185 5.86001C6.24613 5.86001 6 5.62181 6 5.32831C6 5.03481 6.24723 4.7966 6.55185 4.7966H14.2326C14.5372 4.7966 14.7844 5.03481 14.7844 5.32831C14.7844 5.62196 15.0225 5.86001 15.3161 5.86001H15.3815C15.8501 5.86001 16.2796 5.59898 16.4955 5.18307L17.0956 4.02669C17.1894 3.84698 17.3803 3.73319 17.5889 3.73319H18.0386C18.5024 3.73319 18.8279 3.27603 18.6761 2.8378C18.6573 2.78357 18.6474 2.72721 18.6474 2.66979V2.13808C18.6474 1.25864 19.3902 0.542969 20.3029 0.542969H22.5104H24.7178C25.6305 0.542969 26.3733 1.25864 26.3733 2.13808V2.66979C26.3733 2.72721 26.3634 2.78357 26.3446 2.8378L25.8005 4.41484C25.6321 5.06422 26.0574 5.72286 26.444 6.32153C26.518 6.43613 26.5906 6.54853 26.6573 6.65825C26.7995 6.89201 26.881 7.16402 26.881 7.45512V9.58194V11.7088V13.8356C26.881 14.0518 26.8626 14.281 26.8439 14.5135C26.7897 15.1888 26.7331 15.8922 27.1187 16.3876ZM19.7511 2.13753C19.7511 2.13783 19.7508 2.13808 19.7505 2.13808C19.7502 2.13808 19.75 2.13833 19.75 2.13863V2.51957C19.75 2.56199 19.7571 2.60412 19.7709 2.64421L20.2731 4.09688C20.2742 4.09954 20.2742 4.10246 20.2742 4.10552C20.2742 4.10858 20.2742 4.11177 20.2753 4.11496C20.2765 4.11868 20.2784 4.12214 20.2803 4.12559C20.2822 4.12905 20.2842 4.1325 20.2853 4.13623C20.5486 5.1491 21.464 5.86001 22.5105 5.86001C23.5564 5.86001 24.4715 5.14934 24.7354 4.13729C24.7361 4.13289 24.7383 4.12924 24.7404 4.12567C24.7419 4.1232 24.7434 4.12076 24.7443 4.11815C24.7454 4.11443 24.7454 4.1107 24.7454 4.10711C24.7454 4.10353 24.7454 4.10007 24.7465 4.09688L25.124 3.00476C25.2204 2.72597 25.2696 2.43306 25.2696 2.13808C25.2696 1.84564 25.0224 1.60638 24.7178 1.60638C24.4131 1.60638 24.1659 1.84564 24.1659 2.13808V2.66979C24.1659 2.96329 23.9187 3.20149 23.6141 3.20149C23.3094 3.20149 23.0622 2.96329 23.0622 2.66979V2.13808C23.0622 1.84564 22.815 1.60638 22.5104 1.60638C22.2057 1.60638 21.9585 1.84564 21.9585 2.13808V2.66979C21.9585 2.96329 21.7113 3.20149 21.4066 3.20149C21.102 3.20149 20.8548 2.96329 20.8548 2.66979V2.13808C20.8548 1.84564 20.6076 1.60638 20.3029 1.60638C19.9985 1.60638 19.7514 1.84534 19.7511 2.13753ZM13.149 14.3673C13.4426 14.3673 13.6807 14.1292 13.6807 13.8356V6.39171C13.6807 6.09806 13.4426 5.86001 13.149 5.86001H12.0251C11.1108 5.86001 10.3696 6.60123 10.3696 7.51557V12.7117C10.3696 13.6261 11.1108 14.3673 12.0251 14.3673H13.149ZM16.696 13.3443C16.7634 13.3719 16.8252 13.4113 16.8759 13.4602L17.2205 13.7917C17.6042 14.161 18.116 14.3673 18.6485 14.3673H20.5667H22.6351H23.3525H24.2112H25.2244C25.529 14.3673 25.7762 14.128 25.7762 13.8356C25.7762 13.5431 25.529 13.3039 25.2244 13.3039H22.634C22.3293 13.3039 22.0821 13.0657 22.0821 12.7722C22.0821 12.4787 22.3293 12.2405 22.634 12.2405H25.2244C25.529 12.2405 25.7762 12.0012 25.7762 11.7088C25.7762 11.4163 25.529 11.1771 25.2244 11.1771H22.634C22.3293 11.1771 22.0821 10.9388 22.0821 10.6453C22.0821 10.3518 22.3293 10.1136 22.634 10.1136H25.2244C25.529 10.1136 25.7762 9.87438 25.7762 9.58194C25.7762 9.2895 25.529 9.05023 25.2244 9.05023H22.634C22.3293 9.05023 22.0821 8.81203 22.0821 8.51853C22.0821 8.22503 22.3293 7.98683 22.634 7.98683H25.2244C25.529 7.98683 25.7751 7.74756 25.7751 7.45512C25.7751 7.16268 25.5279 6.92342 25.2233 6.92342H24.7167H20.3018C20.2323 6.92342 20.1661 6.90853 20.1043 6.88301C20.0889 6.87781 20.0756 6.87003 20.0623 6.86218C20.0565 6.85879 20.0507 6.85538 20.0447 6.85217C20.0373 6.84844 20.0298 6.84499 20.0223 6.84154C20.0041 6.83319 19.986 6.82487 19.9696 6.81282C19.9685 6.81176 19.9663 6.81176 19.9652 6.8107C19.9602 6.80644 19.9561 6.80166 19.952 6.79687C19.9478 6.79209 19.9437 6.7873 19.9387 6.78305C19.92 6.7671 19.9034 6.74796 19.8868 6.72881C19.8615 6.69904 19.8394 6.6682 19.8206 6.63417C19.8074 6.61078 19.7963 6.58738 19.7875 6.56186C19.7852 6.55616 19.7824 6.55065 19.7795 6.54509C19.7755 6.53716 19.7713 6.52914 19.7687 6.52039L19.5166 5.55027C19.4012 5.10643 19.0005 4.7966 18.5419 4.7966C18.1659 4.7966 17.8213 5.00605 17.6481 5.33977L16.9786 6.62992C16.9756 6.63622 16.9704 6.64036 16.9652 6.6445C16.9607 6.64805 16.9562 6.65159 16.9532 6.6565C16.9146 6.72031 16.8638 6.77241 16.802 6.81601C16.7977 6.81893 16.7935 6.82185 16.7894 6.82474C16.7754 6.8345 16.7619 6.84397 16.7457 6.85217C16.6673 6.89364 16.5812 6.92342 16.4852 6.92342H15.3815C15.0517 6.92342 14.7844 7.19075 14.7844 7.52052V11.6031C14.7844 12.5424 15.5459 13.3039 16.4852 13.3039C16.557 13.3039 16.6276 13.3177 16.696 13.3443ZM28.0289 29.255C29.5244 29.255 30.8146 28.4851 31.4835 27.1973C32.1523 25.9095 32.0155 24.4516 31.1182 23.2988L25.4733 16.0482C25.17 15.6585 24.7038 15.4307 24.2101 15.4307C24.1579 15.4307 24.1209 15.4817 24.1372 15.5313L24.5765 16.8652C24.6681 17.146 24.5059 17.4437 24.2156 17.532C23.9264 17.6202 23.6152 17.465 23.5236 17.1853L23.0461 15.7285C22.9879 15.5508 22.8221 15.4307 22.6351 15.4307C22.5668 15.4307 22.5115 15.486 22.5115 15.5543V17.0258C22.5115 17.3193 22.2642 17.5575 21.9596 17.5575C21.655 17.5575 21.4078 17.3193 21.4078 17.0258V15.6842C21.4078 15.5442 21.2943 15.4307 21.1543 15.4307C21.0447 15.4307 20.9476 15.501 20.9134 15.6051L20.3945 17.1853C20.3206 17.4118 20.1021 17.5575 19.8681 17.5575C19.814 17.5575 19.7577 17.5501 19.7025 17.533C19.4122 17.4448 19.2511 17.147 19.3427 16.8663L19.6084 16.0549C19.7093 15.7471 19.4799 15.4307 19.156 15.4307C19.0092 15.4307 18.8706 15.4984 18.7804 15.6143L12.7977 23.2988C11.9015 24.4516 11.7647 25.9095 12.4335 27.1973C13.1013 28.4861 14.3937 29.255 15.8881 29.255H28.0289ZM12.5773 12.7723C12.5773 13.0661 12.3303 13.3043 12.0255 13.3043C11.7207 13.3043 11.4736 13.0661 11.4736 12.7723C11.4736 12.4784 11.7207 12.2402 12.0255 12.2402C12.3303 12.2402 12.5773 12.4784 12.5773 12.7723Z" fill="url(#paint0_linear_6825_6476)"/>
<defs>
<filter id="filter0_f_6825_6476" x="0" y="40" width="43" height="9" filterUnits="userSpaceOnUse" color-interpolation-filters="sRGB">
<feFlood flood-opacity="0" result="BackgroundImageFix"/>
<feBlend mode="normal" in="SourceGraphic" in2="BackgroundImageFix" result="shape"/>
<feGaussianBlur stdDeviation="2" result="effect1_foregroundBlur_6825_6476"/>
</filter>
<linearGradient id="paint0_linear_6825_6476" x1="15.9474" y1="-0.434815" x2="27.9031" y2="10.234" gradientUnits="userSpaceOnUse">
<stop stop-color="#95DFFF"/>
<stop offset="0.927083" stop-color="#014280"/>
</linearGradient>
</defs>
</svg>
