<svg width="414" height="277" viewBox="0 0 414 277" fill="none" xmlns="http://www.w3.org/2000/svg">
<mask id="mask0_7461_5428" style="mask-type:alpha" maskUnits="userSpaceOnUse" x="0" y="0" width="414" height="277">
<path d="M0 12C0 5.37259 5.37258 0 12 0H402C408.627 0 414 5.37258 414 12V265C414 271.627 408.627 277 402 277H12C5.37258 277 0 271.627 0 265V12Z" fill="url(#paint0_radial_7461_5428)"/>
</mask>
<g mask="url(#mask0_7461_5428)">
<g style="mix-blend-mode:multiply" opacity="0.1">
<path fill-rule="evenodd" clip-rule="evenodd" d="M130.405 -8.76795C134.68 -8.4122 138.375 -6.61739 141.669 -3.51756L141.653 -3.5025C144.592 -0.559484 146.608 3.02091 147.559 7.24841C148.616 11.5906 148.145 15.6471 146.332 19.4575C144.329 23.6848 140.906 26.9541 135.909 29.1646C134.412 29.9979 131.969 30.5231 128.73 30.5736C125.536 30.6733 123.083 31.4499 121.206 32.7234C119.063 34.3318 117.932 36.5186 117.621 39.4015C117.341 41.9237 117.76 44.2554 118.972 46.432C114.232 47.4101 110.011 45.4039 106.287 40.2238C101.227 33.2236 99.54 25.5963 101.538 17.4182C103.226 9.8878 106.53 3.89032 111.497 -0.556588C114.997 -3.77546 118.09 -5.92566 120.799 -7.17932C123.797 -8.57804 127.071 -9.08349 130.405 -8.76795ZM116.098 40.4698C116.835 40.1549 117.025 39.7381 116.755 39.0812C116.649 38.6045 116.244 38.5242 115.588 38.7953C114.687 39.2919 114.256 39.4466 114.256 39.4466L114.356 40.049C115.052 41.4324 115.607 42.0385 116.104 41.8236C116.563 41.7331 116.534 41.3069 116.324 40.7155L116.098 40.4698ZM117.056 34.9701C117.832 34.8301 118.208 34.4842 118.042 33.9419L118.027 33.9256C117.942 33.3396 117.526 33.1486 116.875 33.294C115.925 33.4738 115.323 33.574 115.323 33.574L115.424 34.1764C115.614 35.6011 115.994 36.2784 116.57 36.4132C117.11 36.2788 117.235 35.9222 117.09 35.2706L117.056 34.9701ZM124.56 28.853C125.262 29.3552 125.733 29.3753 126.098 28.9187L126.114 28.9037C126.414 28.5072 126.259 28.0756 125.809 27.5841L124.426 26.8326L124.061 27.2891C123.18 28.432 122.909 29.2547 123.365 29.6204C123.699 29.8865 124.05 29.7756 124.441 29.084L124.56 28.853ZM131.283 28.5578C131.714 28.4031 131.845 27.9207 131.699 27.2691L131.684 27.2528L130.798 25.9242L130.317 26.1555C128.896 26.6772 128.275 27.2488 128.485 27.8401C128.596 28.1912 129.001 28.2714 129.657 28.0004L129.962 27.8403C130.227 28.6229 130.627 28.8288 131.283 28.5578ZM144.662 15.1363C145.713 9.64073 144.507 4.74132 140.983 0.403932L140.968 0.387533C139.611 -1.32315 138.035 -2.68117 136.298 -3.58959C134.626 -4.55818 133.24 -4.8535 131.928 -4.67344C133.905 -2.74742 135.412 -0.510855 136.287 2.1866C137.539 6.01766 137.243 10.003 135.711 14.2503C135.224 16.0869 135.264 17.7412 135.5 19.2151C135.97 20.7148 135.279 21.8029 133.537 22.4997C132.034 22.7346 130.818 22.4937 129.907 21.7622C127.158 18.4024 128.471 15.2632 134.013 12.4306C132.541 12.6669 131.409 12.6814 130.593 12.6466C127.474 12.4661 125.187 11.1879 123.51 8.86546C122.734 7.88793 122.484 6.75967 122.709 5.52584C122.809 4.64867 123.326 3.60038 124.552 2.47227L124.732 2.30684C125.577 1.65038 126.889 1.4703 128.466 1.7108C129.998 1.90216 131.09 2.4682 131.7 3.26554C132.547 4.41925 132.852 5.3767 132.581 6.19936C132.356 6.31567 132.29 6.37581 132.396 6.49048L132.706 6.20469C133.246 5.70832 133.577 4.95123 133.682 3.94837C133.777 2.83487 133.581 1.89782 132.976 0.974794C131.239 -1.41319 128.892 -2.75693 126.069 -2.87754C123.06 -3.06904 119.885 -1.96115 116.496 0.491204C109.978 5.2181 105.942 11.4361 104.439 19.0374C102.877 26.5731 103.897 32.8812 107.521 37.821C109.909 41.1498 112.242 43.2012 114.57 43.8987L114.749 43.7333C113.683 43.3257 112.617 42.5246 111.37 41.165L110.66 40.1272C107.096 35.253 106.471 29.2765 108.719 22.2266C110.923 15.1275 113.607 10.0322 116.626 7.04464C120.175 3.78064 122.668 2.06128 124.02 2.05606C119.154 4.50828 117.376 7.50167 118.687 11.0362C119.969 14.1446 122.046 15.1934 124.855 14.1801C118.292 17.7403 114.021 22.4531 112.063 28.209C110.165 34.0304 110.506 38.5782 112.958 41.8782L113.404 42.4953C113.684 42.9322 114.245 43.4127 114.935 43.8042L115.471 43.7641C113.119 39.949 112.889 35.3903 114.761 30.1659C116.53 24.7953 119.409 20.6685 123.369 17.7211L126.207 16.0165L126.393 16.0874C125.793 17.9978 126.403 20.2747 128.185 22.7118C129.091 23.931 130.583 24.703 132.63 24.9636C135.023 25.239 137.122 24.6676 138.999 23.3941C140.707 22.3967 142.059 20.912 143.255 19.027C144.151 17.5385 144.617 16.2047 144.662 15.1363ZM152.341 24.138C152.796 21.576 152.376 19.2444 151.285 17.1988L151.255 17.166C156.072 16.2384 160.221 18.4304 163.705 23.7105C168.646 30.9416 169.907 38.598 167.678 46.6561C165.709 54.143 162.16 60.0041 157.028 64.2708C153.408 67.3586 150.253 69.4747 147.44 70.5822C144.431 71.8703 141.177 72.2665 137.849 71.8252C133.628 71.2987 129.924 69.3618 126.776 66.158C123.842 63.0893 122 59.4691 121.24 55.1868C120.374 50.7898 120.971 46.7387 122.888 43.043C125.077 38.8866 128.665 35.7975 133.657 33.7126C135.389 32.9052 137.777 32.5507 140.951 32.5603C143.965 32.6261 146.523 31.9642 148.526 30.6961C150.648 29.197 151.981 27.066 152.341 24.138ZM153.967 23.2159C153.186 23.4816 152.995 23.8984 153.206 24.4897L153.191 24.4734C153.356 25.0156 153.762 25.0959 154.417 24.8248C155.253 24.3883 155.684 24.2336 155.684 24.2336L155.644 23.6967C155.014 22.2532 154.443 21.6307 153.902 21.7965C153.537 21.891 153.471 22.3132 153.682 22.9046L153.967 23.2159ZM152.811 28.5968C152.019 28.7518 151.719 29.1483 151.699 29.6196L151.714 29.636C151.859 30.2875 152.275 30.4784 152.866 30.2675L154.463 30.0367L154.363 29.4343C154.248 28.06 153.873 27.2885 153.342 27.2029C152.74 27.3031 152.615 27.6598 152.76 28.3113L152.811 28.5968ZM149.867 32.4218C149.171 32.1559 148.771 32.3121 148.56 32.8382L148.562 32.8068C148.306 33.2838 148.526 33.6552 149.047 33.9608C150.088 34.2413 150.613 34.4527 150.613 34.4527L150.918 33.9305C151.389 32.471 151.424 31.654 151.019 31.5738C150.668 31.3227 150.377 31.4992 149.987 32.1908L149.867 32.4218ZM145.081 34.4682C144.505 33.9714 143.909 33.9459 143.609 34.3423L143.64 34.3437C143.275 34.8003 143.31 35.1008 143.82 35.6578L145.203 36.4094L145.562 36.0785C146.478 34.8741 146.809 34.117 146.353 33.7512C145.942 33.4346 145.652 33.6111 145.201 34.2372L145.081 34.4682ZM138.353 34.5271C137.922 34.6818 137.731 35.0986 137.876 35.7502L137.924 35.7364C138.354 36.3372 138.569 36.8343 138.679 37.1853L139.159 36.9855C140.706 36.4691 141.372 35.9467 141.162 35.3554C140.991 34.9388 140.646 34.9241 140.055 35.135L139.624 35.2897C139.408 34.462 139.008 34.256 138.353 34.5271ZM164.758 45.1148C166.556 37.5734 165.771 31.291 162.392 26.1256L162.471 26.1133C160.148 22.7244 157.821 20.5473 155.668 19.8099L155.428 19.9099C156.458 20.4418 157.55 21.3699 158.677 22.5985L159.398 23.7469C162.786 28.6923 163.16 34.6581 160.692 41.6986C158.209 48.7228 155.339 53.7472 152.28 56.56C148.546 59.7531 146.073 61.3631 144.661 61.3028C149.582 59.0418 151.485 56.0538 150.333 52.4631C149.193 49.345 147.166 48.2511 144.236 49.1333C150.974 45.8954 155.427 41.3478 157.604 35.6013C159.622 29.9109 159.458 25.2919 157.245 21.892L156.8 21.2749C156.444 20.7875 155.959 20.3575 155.258 19.8554C155.196 19.8527 155.122 19.861 155.036 19.8707C154.946 19.8809 154.842 19.8926 154.722 19.8954C156.959 23.8159 157.064 28.3692 154.895 33.5337C152.957 38.8183 149.959 42.8142 145.894 45.6469L142.995 47.2859L142.81 47.2151C143.491 45.2295 142.99 42.9729 141.334 40.5412C140.404 39.1321 138.896 38.3751 136.914 38.0543C134.572 37.7024 132.444 38.2097 130.556 39.3725C128.803 40.3207 127.282 41.7195 126.135 43.5594C125.113 45.0425 124.571 46.3258 124.537 47.5048C123.315 52.9459 124.33 57.9002 127.679 62.2773C128.955 64.0632 130.481 65.4978 132.154 66.435C133.827 67.3721 135.333 67.7985 136.52 67.6131C134.607 65.6583 133.166 63.3302 132.4 60.6531C131.323 56.7823 131.68 52.8311 133.447 48.6095C133.933 46.8044 134.053 45.0938 133.768 43.665C133.423 42.1707 134.113 41.0827 135.916 40.4514C137.508 40.3463 138.719 40.6813 139.52 41.4239C142.143 44.7784 140.661 47.863 135.064 50.5044C136.295 50.3681 137.411 50.3685 138.478 50.4141C141.526 50.7804 143.89 52.1091 145.441 54.4262C146.151 55.4639 146.402 56.5922 146.116 57.7605C146.06 58.7182 145.375 59.6806 144.148 60.8087L143.968 60.9742C142.996 61.6567 141.75 61.7766 140.238 61.4759C138.661 61.2354 137.554 60.653 137.009 59.7955C136.168 58.5161 135.912 57.5135 136.303 56.8219C136.418 56.7166 136.423 56.5909 136.423 56.5909L136.052 56.8111C135.513 57.3075 135.182 58.0647 135.076 59.0675C134.856 60.1757 135.052 61.1127 135.597 61.9702C137.313 64.4675 139.566 65.8072 142.364 66.1628C145.402 66.4185 148.571 65.4363 152.031 63.1601C158.765 58.5369 163.025 52.596 164.758 45.1148Z" fill="black"/>
</g>
<g style="mix-blend-mode:multiply" opacity="0.1">
<path fill-rule="evenodd" clip-rule="evenodd" d="M426.332 107.167C426.13 109.603 425.113 111.709 423.355 113.586L423.347 113.577C421.678 115.252 419.648 116.401 417.251 116.943C414.789 117.545 412.488 117.276 410.328 116.244C407.931 115.102 406.077 113.151 404.824 110.303C404.351 109.45 404.054 108.058 404.025 106.212C403.968 104.392 403.528 102.994 402.806 101.924C401.894 100.703 400.654 100.059 399.02 99.8813C397.589 99.7216 396.267 99.9605 395.033 100.651C394.479 97.9496 395.616 95.5444 398.553 93.4222C402.522 90.5382 406.847 89.577 411.484 90.7158C415.754 91.6776 419.155 93.5605 421.676 96.391C423.501 98.3856 424.72 100.148 425.431 101.692C426.224 103.401 426.511 105.267 426.332 107.167ZM398.414 99.0135C398.592 99.4331 398.829 99.5418 399.201 99.3876C399.471 99.3275 399.517 99.0966 399.363 98.7228C399.082 98.2092 398.994 97.9637 398.994 97.9637L398.652 98.0207C397.868 98.417 397.524 98.7337 397.646 99.0165C397.697 99.2784 397.939 99.2619 398.274 99.1419L398.414 99.0135ZM401.532 99.559C401.612 100.001 401.808 100.216 402.115 100.121L402.124 100.113C402.457 100.064 402.565 99.827 402.483 99.4563C402.381 98.9146 402.324 98.5719 402.324 98.5719L401.982 98.6289C401.174 98.7376 400.79 98.954 400.714 99.2821C400.79 99.5899 400.992 99.6612 401.362 99.5785L401.532 99.559ZM405.001 103.836C404.716 104.236 404.704 104.504 404.963 104.712L404.972 104.721C405.197 104.892 405.441 104.804 405.72 104.547L406.146 103.76L405.887 103.551C405.239 103.049 404.773 102.895 404.565 103.155C404.415 103.345 404.477 103.545 404.87 103.768L405.001 103.836ZM405.168 107.667C405.256 107.913 405.529 107.987 405.899 107.904L405.908 107.896L406.661 107.391L406.53 107.116C406.234 106.307 405.91 105.953 405.575 106.073C405.376 106.136 405.33 106.367 405.484 106.74L405.575 106.914C405.131 107.066 405.014 107.293 405.168 107.667ZM412.778 115.292C415.894 115.891 418.672 115.204 421.132 113.195L421.141 113.187C422.111 112.413 422.881 111.515 423.396 110.525C423.945 109.572 424.113 108.782 424.01 108.035C422.918 109.161 421.65 110.02 420.121 110.519C417.948 111.232 415.689 111.064 413.28 110.191C412.239 109.913 411.301 109.936 410.465 110.07C409.615 110.338 408.998 109.945 408.603 108.952C408.47 108.095 408.606 107.402 409.021 106.883C410.926 105.316 412.706 106.064 414.312 109.223C414.178 108.384 414.17 107.739 414.19 107.274C414.292 105.496 415.017 104.193 416.334 103.237C416.888 102.795 417.528 102.653 418.227 102.781C418.725 102.838 419.319 103.132 419.959 103.831L420.053 103.934C420.425 104.415 420.527 105.163 420.391 106.062C420.282 106.935 419.961 107.557 419.509 107.905C418.855 108.387 418.312 108.561 417.845 108.407C417.78 108.279 417.745 108.241 417.68 108.301L417.842 108.478C418.124 108.786 418.553 108.974 419.122 109.034C419.753 109.088 420.284 108.977 420.808 108.632C422.162 107.642 422.924 106.305 422.992 104.695C423.101 102.981 422.473 101.172 421.082 99.2403C418.402 95.5254 414.876 93.2252 410.566 92.3691C406.293 91.4787 402.717 92.06 399.916 94.1254C398.028 95.4864 396.865 96.8158 396.47 98.1422L396.563 98.2448C396.794 97.6367 397.249 97.0293 398.02 96.3189L398.608 95.9143C401.372 93.8832 404.76 93.5267 408.758 94.8082C412.783 96.0641 415.672 97.5938 417.366 99.3141C419.217 101.337 420.192 102.758 420.195 103.528C418.804 100.755 417.107 99.7418 415.103 100.489C413.34 101.22 412.746 102.403 413.32 104.004C411.302 100.264 408.629 97.8297 405.366 96.7139C402.065 95.6323 399.486 95.8264 397.615 97.2241L397.265 97.4778C397.018 97.6373 396.745 97.957 396.523 98.3505L396.546 98.656C398.709 97.3156 401.294 97.1845 404.256 98.2516C407.301 99.2595 409.641 100.9 411.313 103.157L412.279 104.774L412.239 104.88C411.156 104.538 409.865 104.886 408.483 105.901C407.791 106.418 407.354 107.268 407.206 108.435C407.05 109.799 407.374 110.995 408.096 112.064C408.661 113.038 409.503 113.808 410.572 114.49C411.416 115.001 412.172 115.266 412.778 115.292ZM407.675 119.667C409.127 119.926 410.449 119.687 411.609 119.065L411.628 119.048C412.154 121.793 410.911 124.157 407.917 126.143C403.817 128.959 399.476 129.677 394.907 128.407C390.661 127.285 387.338 125.262 384.919 122.338C383.168 120.275 381.968 118.477 381.34 116.874C380.61 115.159 380.385 113.304 380.635 111.408C380.934 109.002 382.032 106.891 383.849 105.097C385.589 103.425 387.641 102.376 390.07 101.942C392.563 101.449 394.86 101.789 396.955 102.882C399.312 104.129 401.064 106.174 402.246 109.019C402.704 110.006 402.905 111.367 402.899 113.175C402.862 114.893 403.237 116.351 403.956 117.492C404.806 118.702 406.014 119.461 407.675 119.667ZM408.197 120.593C408.047 120.148 407.81 120.04 407.475 120.16L407.484 120.151C407.177 120.245 407.131 120.476 407.285 120.85C407.533 121.326 407.62 121.572 407.62 121.572L407.925 121.549C408.743 121.19 409.096 120.865 409.002 120.556C408.949 120.348 408.709 120.311 408.374 120.431L408.197 120.593ZM405.146 119.934C405.058 119.483 404.834 119.312 404.566 119.301L404.557 119.309C404.188 119.392 404.079 119.629 404.199 119.966L404.33 120.876L404.671 120.819C405.451 120.754 405.888 120.539 405.937 120.237C405.88 119.894 405.678 119.823 405.308 119.906L405.146 119.934ZM402.978 118.257C403.128 117.86 403.04 117.632 402.741 117.512L402.759 117.513C402.489 117.367 402.278 117.492 402.105 117.789C401.946 118.383 401.826 118.682 401.826 118.682L402.122 118.856C402.95 119.124 403.413 119.144 403.458 118.913C403.601 118.713 403.501 118.548 403.109 118.325L402.978 118.257ZM401.817 115.529C402.099 115.201 402.113 114.861 401.889 114.69L401.888 114.708C401.629 114.5 401.459 114.52 401.143 114.811L400.717 115.598L400.904 115.804C401.587 116.325 402.016 116.514 402.224 116.254C402.403 116.02 402.303 115.854 401.948 115.597L401.817 115.529ZM401.784 111.695C401.696 111.449 401.46 111.34 401.09 111.423L401.098 111.45C400.758 111.696 400.476 111.818 400.277 111.881L400.39 112.154C400.683 113.036 400.979 113.416 401.314 113.296C401.55 113.198 401.559 113.002 401.439 112.665L401.351 112.419C401.821 112.296 401.938 112.068 401.784 111.695ZM395.781 126.743C400.057 127.768 403.619 127.32 406.548 125.395L406.555 125.44C408.476 124.116 409.711 122.79 410.129 121.563L410.072 121.426C409.77 122.013 409.244 122.635 408.547 123.277L407.896 123.688C405.092 125.619 401.71 125.832 397.718 124.426C393.735 123.01 390.886 121.375 389.291 119.632C387.48 117.504 386.568 116.094 386.602 115.29C387.884 118.094 389.578 119.179 391.614 118.523C393.382 117.873 394.002 116.717 393.502 115.048C395.338 118.888 397.916 121.425 401.175 122.666C404.401 123.816 407.02 123.722 408.948 122.461L409.298 122.208C409.574 122.005 409.818 121.729 410.103 121.329C410.104 121.294 410.1 121.252 410.094 121.202C410.088 121.151 410.082 121.092 410.08 121.023C407.857 122.298 405.275 122.358 402.347 121.122C399.351 120.018 397.085 118.309 395.479 115.992L394.549 114.34L394.59 114.235C395.715 114.623 396.995 114.338 398.374 113.394C399.173 112.864 399.602 112.004 399.784 110.875C399.983 109.54 399.696 108.328 399.036 107.252C398.499 106.252 397.706 105.386 396.662 104.732C395.821 104.15 395.094 103.841 394.425 103.821C391.34 103.125 388.531 103.703 386.049 105.612C385.037 106.339 384.223 107.209 383.692 108.162C383.16 109.116 382.919 109.974 383.024 110.65C384.132 109.56 385.452 108.739 386.97 108.302C389.165 107.689 391.405 107.892 393.799 108.899C394.822 109.176 395.792 109.244 396.603 109.082C397.45 108.885 398.067 109.279 398.425 110.306C398.484 111.213 398.294 111.904 397.873 112.36C395.971 113.855 394.222 113.01 392.725 109.82C392.802 110.522 392.802 111.158 392.776 111.766C392.568 113.503 391.815 114.85 390.501 115.734C389.912 116.139 389.273 116.282 388.61 116.119C388.067 116.087 387.522 115.696 386.882 114.997L386.788 114.895C386.401 114.341 386.333 113.631 386.504 112.769C386.64 111.871 386.97 111.24 387.456 110.929C388.182 110.45 388.75 110.304 389.142 110.527C389.202 110.592 389.273 110.595 389.273 110.595L389.149 110.384C388.867 110.076 388.438 109.888 387.869 109.828C387.241 109.702 386.71 109.814 386.223 110.124C384.807 111.103 384.048 112.387 383.846 113.981C383.701 115.712 384.258 117.518 385.549 119.49C388.17 123.328 391.539 125.755 395.781 126.743Z" fill="black"/>
</g>
<g style="mix-blend-mode:multiply" opacity="0.1">
<path fill-rule="evenodd" clip-rule="evenodd" d="M329.872 247.842C330.988 254.451 329.846 260.768 326.705 267.007L326.678 266.988C323.624 272.627 319.319 277.129 313.694 280.284C307.947 283.644 302.025 284.577 295.944 283.383C289.2 282.07 283.274 278.219 278.252 271.559C276.505 269.633 274.836 266.153 273.538 261.275C272.187 256.484 270.158 253.09 267.644 250.768C264.555 248.18 261.031 247.358 256.831 248.057C253.154 248.657 250.012 250.237 247.389 252.953C244.209 246.181 245.45 238.985 251.374 231.251C259.368 220.757 269.527 215.111 281.863 214.814C293.164 214.31 302.907 216.873 311.084 222.579C316.967 226.566 321.183 230.371 323.984 233.959C327.1 237.926 329.056 242.672 329.872 247.842ZM254.742 246.188C255.467 247.174 256.129 247.293 256.956 246.617C257.591 246.264 257.552 245.619 256.919 244.737C255.875 243.576 255.493 242.987 255.493 242.987L254.678 243.383C252.983 244.996 252.335 246.082 252.827 246.745C253.129 247.404 253.722 247.187 254.479 246.628L254.742 246.188ZM262.891 245.404C263.383 246.52 264.015 246.949 264.72 246.478L264.738 246.449C265.535 246.083 265.648 245.376 265.196 244.451C264.581 243.086 264.211 242.218 264.211 242.218L263.396 242.613C261.452 243.48 260.636 244.329 260.664 245.255C261.058 246.017 261.611 246.061 262.478 245.577L262.891 245.404ZM274.394 254.271C273.949 255.535 274.099 256.255 274.884 256.622L274.911 256.641C275.586 256.933 276.138 256.524 276.664 255.643L277.204 253.248L276.419 252.881C274.467 252.012 273.2 251.936 272.855 252.774C272.605 253.388 272.895 253.873 274.022 254.183L274.394 254.271ZM277.359 264.317C277.741 264.906 278.473 264.908 279.341 264.424L279.358 264.395L280.904 262.515L280.394 261.881C279.117 259.944 278.072 259.236 277.315 259.795C276.86 260.105 276.9 260.75 277.532 261.632L277.874 262.029C276.867 262.747 276.727 263.436 277.359 264.317ZM301.429 279.103C309.608 278.463 316.088 274.651 320.894 267.562L320.911 267.532C322.819 264.786 324.144 261.85 324.773 258.855C325.511 255.934 325.404 253.718 324.652 251.807C322.674 255.578 320.078 258.765 316.591 261.183C311.641 264.63 305.886 265.801 299.293 265.207C296.508 265.216 294.181 265.948 292.183 266.902C290.238 268.223 288.436 267.62 286.79 265.267C285.888 263.09 285.768 261.154 286.459 259.478C290.174 253.958 295.116 254.669 301.226 261.901C300.334 259.771 299.884 258.065 299.625 256.817C298.699 252.026 299.642 248.049 302.295 244.571C303.385 243.001 304.888 242.164 306.72 242.004C308 241.8 309.679 242.155 311.741 243.552L312.043 243.757C313.293 244.769 314.045 246.68 314.302 249.162C314.611 251.556 314.223 253.437 313.326 254.684C312.013 256.432 310.773 257.282 309.506 257.206C309.256 256.913 309.146 256.839 309.023 257.044L309.545 257.398C310.453 258.013 311.65 258.206 313.11 257.959C314.722 257.65 315.975 256.973 317.052 255.684C319.775 252.088 320.789 247.993 319.89 243.674C319.021 239.046 316.25 234.695 311.494 230.566C302.333 222.626 292 219.045 280.67 219.858C269.409 220.554 260.864 224.656 255.243 232.142C251.435 237.104 249.414 241.465 249.308 245.268L249.61 245.472C249.783 243.694 250.514 241.756 251.967 239.32L253.167 237.825C258.718 230.457 266.942 227.085 277.775 227.625C288.661 228.077 296.892 230.068 302.265 233.421C308.231 237.464 311.609 240.536 312.129 242.578C306.814 236.215 301.902 234.742 297.395 238.158C293.479 241.359 292.781 244.925 295.28 248.762C287.753 240.281 279.463 235.735 270.572 235.11C261.611 234.602 255.302 236.963 251.558 242.011L250.853 242.935C250.341 243.535 249.873 244.579 249.58 245.782L249.84 246.576C254.351 241.471 260.718 239.273 268.824 239.985C277.097 240.48 284.031 243.158 289.703 247.951L293.192 251.551L293.162 251.861C290.23 251.729 287.237 253.576 284.462 257.259C283.079 259.125 282.551 261.694 282.958 264.896C283.474 268.626 285.078 271.568 287.592 273.89C289.651 276.069 292.266 277.511 295.387 278.554C297.834 279.306 299.899 279.468 301.429 279.103ZM291.595 294.37C295.394 294.018 298.536 292.437 301.019 289.957L301.054 289.898C304.192 296.806 302.66 303.971 296.505 311.382C288.138 321.789 277.776 326.803 265.523 326.702C254.177 326.763 244.535 323.774 236.55 317.745C230.807 313.523 226.616 309.612 223.982 305.807C221.019 301.779 219.225 297.019 218.589 291.806C217.736 285.21 219.075 278.821 222.418 272.76C225.652 267.078 230.08 262.824 235.855 259.936C241.752 256.843 247.714 256.101 253.672 257.501C260.386 259.124 266.119 263.297 270.961 270C272.761 272.291 274.167 275.759 275.356 280.562C276.404 285.148 278.311 288.748 280.865 291.262C283.791 293.863 287.313 295.013 291.595 294.37ZM293.516 296.455C292.844 295.381 292.182 295.262 291.424 295.821L291.442 295.791C290.737 296.262 290.777 296.907 291.409 297.789C292.343 298.875 292.726 299.464 292.726 299.464L293.471 299.186C295.276 297.647 295.941 296.532 295.501 295.78C295.229 295.266 294.606 295.339 293.849 295.897L293.516 296.455ZM285.46 296.89C284.94 295.755 284.266 295.463 283.591 295.623L283.573 295.653C282.706 296.137 282.593 296.844 283.115 297.651L284.047 299.972L284.862 299.577C286.764 298.846 287.714 297.965 287.635 297.127C287.265 296.258 286.712 296.214 285.845 296.698L285.46 296.89ZM278.929 293.99C279.042 292.83 278.67 292.289 277.845 292.183L277.89 292.173C277.117 291.979 276.675 292.462 276.44 293.375C276.437 295.063 276.337 295.943 276.337 295.943L277.191 296.192C279.436 296.312 280.606 296.033 280.566 295.388C280.789 294.755 280.429 294.388 279.302 294.077L278.929 293.99ZM274.219 287.583C274.704 286.51 274.515 285.598 273.84 285.306L273.85 285.354C273.065 284.987 272.652 285.161 272.057 286.159L271.517 288.555L272.122 288.964C274.174 289.86 275.371 290.053 275.716 289.215C276.009 288.466 275.649 288.098 274.592 287.67L274.219 287.583ZM271.587 277.431C271.205 276.843 270.542 276.724 269.675 277.207L269.712 277.274C269.025 278.168 268.402 278.695 267.947 279.005L268.412 279.649C269.729 281.778 270.721 282.574 271.478 282.016C272.003 281.588 271.894 281.061 271.371 280.253L270.989 279.664C272.079 279.002 272.219 278.313 271.587 277.431ZM266.599 321.661C277.957 321.32 286.555 317.583 292.588 310.377L292.635 310.491C296.553 305.603 298.754 301.2 298.983 297.645L298.75 297.323C298.387 299.097 297.487 301.124 296.174 303.326L294.821 304.883C289.103 312.014 280.799 315.001 269.896 314.125C259.01 313.22 250.809 310.92 245.669 307.436C239.733 303.084 236.517 299.998 236.068 297.838C241.133 304.362 246.084 306.027 250.731 302.829C254.714 299.839 255.495 296.329 253.136 292.257C260.273 301.133 268.398 306.021 277.359 306.982C286.18 307.724 292.657 305.601 296.632 300.875L297.337 299.951C297.892 299.215 298.318 298.307 298.763 297.043C298.743 296.948 298.704 296.841 298.657 296.713C298.609 296.581 298.553 296.429 298.503 296.248C293.8 301.223 287.393 303.229 279.26 302.046C271.044 301.26 264.25 298.346 258.7 293.348L255.282 289.63L255.312 289.321C258.381 289.546 261.386 287.872 264.201 284.381C265.844 282.402 266.345 279.815 266.048 276.687C265.659 273.002 264.135 269.991 261.774 267.607C259.767 265.341 257.21 263.608 254.171 262.62C251.684 261.677 249.662 261.379 247.98 261.805C239.813 262.165 233.184 265.711 228.255 272.552C226.21 275.206 224.757 278.096 224.064 281.006C223.371 283.917 223.337 286.367 224.049 288.087C226.093 284.401 228.843 281.277 232.343 279.032C237.415 275.833 243.145 274.769 249.791 275.728C252.53 275.73 254.998 275.217 256.913 274.206C258.898 273.078 260.7 273.681 262.276 276.151C263.028 278.515 263.013 280.483 262.265 281.996C258.509 287.324 253.58 286.334 247.72 278.942C248.38 280.749 248.802 282.436 249.141 284.068C249.778 288.827 248.792 292.941 246.099 296.227C244.899 297.722 243.396 298.559 241.634 298.601C240.257 298.905 238.634 298.259 236.573 296.862L236.27 296.657C234.936 295.464 234.294 293.627 234.147 291.219C233.89 288.737 234.296 286.827 235.303 285.655C236.796 283.864 238.118 283.07 239.246 283.38C239.438 283.511 239.618 283.468 239.618 283.468L239.166 282.996C238.259 282.382 237.061 282.188 235.601 282.436C233.949 282.553 232.697 283.229 231.689 284.401C228.804 288.011 227.76 291.962 228.317 296.337C229.105 301.035 231.696 305.428 236.23 309.737C245.326 318.045 255.351 322.076 266.599 321.661Z" fill="black"/>
</g>
</g>
<defs>
<radialGradient id="paint0_radial_7461_5428" cx="0" cy="0" r="1" gradientUnits="userSpaceOnUse" gradientTransform="rotate(42.5801) scale(457.674 518.566)">
<stop offset="0.486103" stop-color="#004280"/>
<stop offset="1" stop-color="#ED1C24"/>
</radialGradient>
</defs>
</svg>
