<svg width="43" height="49" viewBox="0 0 43 49" fill="none" xmlns="http://www.w3.org/2000/svg">
<g opacity="0.3" filter="url(#filter0_f_6825_6467)">
<ellipse cx="21.5" cy="44.5" rx="17.5" ry="0.5" fill="black"/>
</g>
<path fill-rule="evenodd" clip-rule="evenodd" d="M36.9069 18.5103C37.2948 18.315 37.7241 18.2136 38.1595 18.2145C39.2349 18.2145 40.2072 18.8069 40.6968 19.7607C41.3978 21.1258 40.8416 22.8008 39.457 23.4944L30.7321 27.8523C30.6706 27.883 30.6048 27.9048 30.5369 27.917L16.3101 30.458C16.2681 30.4654 16.2256 30.4692 16.183 30.4692H9.42897V30.576C9.42897 31.5285 8.61513 32.3034 7.61479 32.3034H4.75875C3.77255 32.3034 3 31.5446 3 30.5759V21.5498C3 20.5551 3.78898 19.7458 4.75875 19.7458H7.61486C8.5982 19.7458 9.42897 20.572 9.42897 21.5498V21.6901L15.5128 18.7591C15.6104 18.712 15.7174 18.6876 15.826 18.6876H24.7337C26.2789 18.6876 27.5361 19.9219 27.5361 21.439C27.5366 21.9086 27.4141 22.3704 27.1805 22.7794H28.3344L36.9069 18.5103ZM7.61486 30.8925C7.80023 30.8925 8.00031 30.7715 8.00031 30.576H8.00024V21.5498C8.00024 21.3515 7.80937 21.1568 7.61479 21.1568H4.75875C4.56424 21.1568 4.42866 21.3639 4.42866 21.5498V30.576C4.42866 30.7682 4.55824 30.8925 4.75875 30.8925H7.61486ZM30.1803 26.5468L38.8116 22.2357C39.493 21.8943 39.7674 21.0701 39.4228 20.3988C39.1815 19.929 38.6857 19.6254 38.1595 19.6254C37.9482 19.6251 37.7398 19.6745 37.5516 19.7694L28.826 24.1148C28.7262 24.1645 28.6161 24.1904 28.5044 24.1904H16.7866C16.392 24.1904 16.0722 23.8745 16.0722 23.4849C16.0722 23.0953 16.392 22.7794 16.7866 22.7794H24.7338C25.4913 22.7794 26.1075 22.1781 26.1075 21.439C26.1075 20.6999 25.4913 20.0986 24.7338 20.0986H15.9909L9.42897 23.2599V29.0582H16.1189L30.1803 26.5468ZM22.0625 15.8695C17.784 15.8695 14.3031 12.4318 14.3031 8.20627C14.3031 3.98064 17.7841 0.542969 22.0625 0.542969C26.341 0.542969 29.8219 3.98071 29.8219 8.20627C29.8219 12.4318 26.3411 15.8695 22.0625 15.8695ZM22.0625 14.4585C25.5533 14.4585 28.3932 11.6537 28.3932 8.20627C28.3932 4.75872 25.5533 1.95393 22.0625 1.95393C18.5718 1.95393 15.7318 4.75872 15.7318 8.20627C15.7318 11.6537 18.5718 14.4585 22.0625 14.4585ZM23.5785 6.91667H24.4993C24.6098 6.91667 24.7158 6.96057 24.7939 7.03871C24.8721 7.11685 24.916 7.22283 24.916 7.33333C24.916 7.44384 24.8721 7.54982 24.7939 7.62796C24.7158 7.7061 24.6098 7.75 24.4993 7.75H23.666C23.6139 8.32099 23.3496 8.8517 22.9253 9.23738C22.5011 9.62307 21.9477 9.83571 21.3743 9.83333H20.8243L22.7035 12.0625C22.7753 12.1465 22.8108 12.2556 22.8022 12.3657C22.7936 12.4759 22.7416 12.5782 22.6576 12.65C22.5737 12.7218 22.4646 12.7574 22.3544 12.7488C22.2442 12.7402 22.142 12.6882 22.0702 12.6042L19.5702 9.6875C19.541 9.67083 19.541 9.6375 19.541 9.6375C19.5231 9.61345 19.509 9.58674 19.4993 9.55833C19.495 9.53072 19.495 9.50261 19.4993 9.475C19.4974 9.45561 19.4974 9.43606 19.4993 9.41667C19.5023 9.36567 19.5196 9.31656 19.5493 9.275C19.5456 9.25014 19.5456 9.22486 19.5493 9.2C19.5603 9.17964 19.5729 9.16014 19.5868 9.14167C19.6027 9.11531 19.6223 9.09145 19.6452 9.07083L19.6952 9.04167C19.7192 9.02373 19.7459 9.00967 19.7743 9C19.8019 8.9957 19.83 8.9957 19.8577 9C19.877 8.99805 19.8966 8.99805 19.916 9H21.3952C21.7448 8.99859 22.0823 8.87159 22.3462 8.64215C22.6101 8.4127 22.7827 8.09608 22.8327 7.75H19.916C19.8055 7.75 19.6995 7.7061 19.6214 7.62796C19.5432 7.54982 19.4993 7.44384 19.4993 7.33333C19.4993 7.22283 19.5432 7.11685 19.6214 7.03871C19.6995 6.96057 19.8055 6.91667 19.916 6.91667H22.6868C22.5689 6.66811 22.3831 6.45797 22.1509 6.31051C21.9186 6.16306 21.6494 6.0843 21.3743 6.08333H19.916C19.8055 6.08333 19.6995 6.03943 19.6214 5.96129C19.5432 5.88315 19.4993 5.77717 19.4993 5.66667C19.4993 5.55616 19.5432 5.45018 19.6214 5.37204C19.6995 5.2939 19.8055 5.25 19.916 5.25H24.4993C24.6098 5.25 24.7158 5.2939 24.7939 5.37204C24.8721 5.45018 24.916 5.55616 24.916 5.66667C24.916 5.77717 24.8721 5.88315 24.7939 5.96129C24.7158 6.03943 24.6098 6.08333 24.4993 6.08333H23.1618C23.3564 6.32959 23.4982 6.61325 23.5785 6.91667Z" fill="url(#paint0_linear_6825_6467)"/>
<defs>
<filter id="filter0_f_6825_6467" x="0" y="40" width="43" height="9" filterUnits="userSpaceOnUse" color-interpolation-filters="sRGB">
<feFlood flood-opacity="0" result="BackgroundImageFix"/>
<feBlend mode="normal" in="SourceGraphic" in2="BackgroundImageFix" result="shape"/>
<feGaussianBlur stdDeviation="2" result="effect1_foregroundBlur_6825_6467"/>
</filter>
<linearGradient id="paint0_linear_6825_6467" x1="17" y1="-0.5" x2="29.6663" y2="14.4135" gradientUnits="userSpaceOnUse">
<stop stop-color="#95DFFF"/>
<stop offset="0.927083" stop-color="#014280"/>
</linearGradient>
</defs>
</svg>
