<svg width="43" height="48" viewBox="0 0 43 48" fill="none" xmlns="http://www.w3.org/2000/svg">
<g opacity="0.3" filter="url(#filter0_f_713_2603)">
<ellipse cx="21.5" cy="43.5" rx="17.5" ry="0.5" fill="black"/>
</g>
<path fill-rule="evenodd" clip-rule="evenodd" d="M11.3991 4.06025C11.3991 2.58445 12.5807 1.40098 14.0224 1.40098H28.9773C30.419 1.40098 31.6006 2.58445 31.6006 4.06025V30.9344C31.6006 32.4102 30.419 33.5937 28.9773 33.5937H14.0224C12.5807 33.5937 11.3991 32.4102 11.3991 30.9344V4.06025ZM14.0224 0.000976562C11.7934 0.000976562 9.99915 1.8255 9.99915 4.06025V30.9344C9.99915 33.1692 11.7934 34.9937 14.0224 34.9937H28.9773C31.2064 34.9937 33.0006 33.1692 33.0006 30.9344V4.06025C33.0006 1.8255 31.2064 0.000976562 28.9773 0.000976562H14.0224ZM18.6878 18.8095C19.4173 18.8095 19.9454 19.5054 19.7492 20.208L18.7748 23.6961C18.7413 23.8174 18.7518 23.9468 18.8044 24.061C18.857 24.1752 18.9482 24.267 19.0618 24.3197C19.1753 24.3725 19.3039 24.383 19.4244 24.3492C19.5449 24.3154 19.6495 24.2396 19.7196 24.1353L24.6327 16.7776C24.6912 16.6886 24.7245 16.5854 24.7293 16.4789C24.7341 16.3723 24.7102 16.2665 24.66 16.1725C24.6098 16.0786 24.5353 16.0001 24.4443 15.9453C24.3533 15.8906 24.2494 15.8617 24.1434 15.8616V15.8616C23.4478 15.8616 22.9535 15.1844 23.1657 14.522L24.2048 11.2764C24.2427 11.1559 24.2366 11.0257 24.1876 10.9093C24.1386 10.793 24.0499 10.698 23.9375 10.6416C23.8251 10.5851 23.6964 10.5709 23.5745 10.6015C23.4526 10.632 23.3456 10.7054 23.2727 10.8083L18.2571 17.9738C18.2017 18.0532 18.1689 18.1464 18.1624 18.2433C18.156 18.3402 18.176 18.437 18.2204 18.5232C18.2649 18.6094 18.3319 18.6816 18.4143 18.7321C18.4968 18.7826 18.5914 18.8094 18.6878 18.8095V18.8095ZM20.8353 17.749H20.6612C20.2577 17.749 20.0213 17.2949 20.2527 16.9644L20.9591 15.9553C21.1642 15.6623 21.6208 15.8887 21.5117 16.2293V16.2293C21.4863 16.3088 21.4798 16.3933 21.493 16.4758C21.5061 16.5583 21.5385 16.6365 21.5874 16.704C21.6362 16.7715 21.7003 16.8265 21.7743 16.8644C21.8483 16.9023 21.9301 16.9221 22.0132 16.9221H22.1963C22.6536 16.9221 22.9262 17.432 22.6723 17.8123L22.0482 18.7468C21.7999 19.1187 21.2223 18.8534 21.3427 18.4227V18.4227C21.3646 18.3439 21.3681 18.261 21.3529 18.1806C21.3377 18.1002 21.3043 18.0244 21.2551 17.9592C21.206 17.8939 21.1425 17.841 21.0697 17.8046C20.9969 17.7681 20.9166 17.7491 20.8353 17.749Z" fill="url(#paint0_linear_713_2603)"/>
<defs>
<filter id="filter0_f_713_2603" x="0" y="39" width="43" height="9" filterUnits="userSpaceOnUse" color-interpolation-filters="sRGB">
<feFlood flood-opacity="0" result="BackgroundImageFix"/>
<feBlend mode="normal" in="SourceGraphic" in2="BackgroundImageFix" result="shape"/>
<feGaussianBlur stdDeviation="2" result="effect1_foregroundBlur_713_2603"/>
</filter>
<linearGradient id="paint0_linear_713_2603" x1="17.7791" y1="-7.71572" x2="45.6668" y2="23.8904" gradientUnits="userSpaceOnUse">
<stop stop-color="#F36D39"/>
<stop offset="0.559247" stop-color="#014280"/>
</linearGradient>
</defs>
</svg>
