<svg width="150" height="150" viewBox="0 0 150 150" fill="none" xmlns="http://www.w3.org/2000/svg">
<circle opacity="0.1" cx="75" cy="75" r="75" fill="#D9D9D9"/>
<circle opacity="0.05" cx="75" cy="75" r="64" fill="#D9D9D9"/>
<path d="M10.3543 90.8359L11.0818 92.3845L12.7086 92.6333L11.5314 93.839L11.8092 95.5411L10.3543 94.7371L8.89934 95.5411L9.17714 93.839L8 92.6333L9.62681 92.3845L10.3543 90.8359Z" fill="#4A8CDA"/>
<path d="M30.3662 39.0801L31.0937 40.6287L32.7205 40.8775L31.5434 42.0832L31.8212 43.7853L30.3662 42.9813L28.9113 43.7853L29.1891 42.0832L28.012 40.8775L29.6388 40.6287L30.3662 39.0801Z" fill="#B8AD5D"/>
<path d="M133.954 95.541L134.681 97.0896L136.308 97.3384L135.131 98.5441L135.409 100.246L133.954 99.4422L132.499 100.246L132.777 98.5441L131.599 97.3384L133.226 97.0896L133.954 95.541Z" fill="#4A8CDA"/>
<path d="M141.016 113.186L141.744 114.734L143.37 114.983L142.193 116.189L142.471 117.891L141.016 117.087L139.561 117.891L139.839 116.189L138.662 114.983L140.289 114.734L141.016 113.186Z" fill="#B8AD5D"/>
<path d="M48.0222 142.592L48.7497 144.14L50.3765 144.389L49.1994 145.595L49.4772 147.297L48.0222 146.493L46.5673 147.297L46.8451 145.595L45.668 144.389L47.2948 144.14L48.0222 142.592Z" fill="#B8AD5D"/>
<path d="M133.954 21.4355L134.681 22.9841L136.308 23.2329L135.131 24.4386L135.409 26.1407L133.954 25.3367L132.499 26.1407L132.777 24.4386L131.599 23.2329L133.226 22.9841L133.954 21.4355Z" fill="#B8AD5D"/>
<path d="M35.074 4.9668L35.8015 6.51539L37.4283 6.76418L36.2511 7.96989L36.529 9.67199L35.074 8.86799L33.6191 9.67199L33.8969 7.96989L32.7197 6.76418L34.3465 6.51539L35.074 4.9668Z" fill="#4A8CDA"/>
<g clip-path="url(#clip0_7461_5861)">
<path d="M115 93.1525H113.61C112.075 93.1525 110.831 91.9079 110.831 90.3728V87.5931H106.661V84.8135H110.831C112.366 84.8135 113.61 86.0581 113.61 87.5931V90.3728H115V93.1525Z" fill="url(#paint0_linear_7461_5861)"/>
<path d="M71.9153 47.2881H74.6949V57.0169H71.9153V47.2881Z" fill="#FFEDC0"/>
<path d="M71.9153 41.729H74.6949V44.5087H71.9153V41.729Z" fill="#FFEDC0"/>
<path d="M55.2373 37.5591H58.017V45.8981H55.2373V37.5591Z" fill="#FFEDC0"/>
<path d="M55.2373 32H58.017V34.7797H55.2373V32Z" fill="#FFEDC0"/>
<path d="M85.8136 63.966H62.0779C61.4732 59.7687 58.2199 56.4468 54.0368 55.7546C53.6364 55.6996 53.2319 55.8218 52.9293 56.0885C52.6259 56.3552 52.4536 56.7407 52.4576 57.1444V65.6049C46.4036 68.0609 41.7326 73.0508 39.6825 79.2542H34.3898C33.6223 79.2542 33 79.8765 33 80.644V91.7626C33 92.5302 33.6223 93.1525 34.3898 93.1525H39.6825C41.7312 99.3585 46.4022 104.351 52.4576 106.809V112.61C52.4576 113.378 53.0799 114 53.8475 114H62.1864C62.954 114 63.5763 113.378 63.5763 112.61V108.441H83.0339V112.61C83.0339 113.378 83.6562 114 84.4237 114H92.7627C93.5302 114 94.1525 113.378 94.1525 112.61V106.809C102.55 103.412 108.047 95.2616 108.051 86.2033C108.051 73.9222 98.0947 63.966 85.8136 63.966Z" fill="#FFC477"/>
<path d="M85.8136 63.966H62.0779C61.4732 59.7687 58.2199 56.4468 54.0368 55.7546C53.6364 55.6996 53.2319 55.8218 52.9293 56.0885C52.6259 56.3552 52.4536 56.7407 52.4576 57.1444V65.6049C46.4036 68.0609 41.7326 73.0508 39.6825 79.2542H34.3898C33.6223 79.2542 33 79.8765 33 80.644V91.7626C33 92.5302 33.6223 93.1525 34.3898 93.1525H39.6825C41.7312 99.3585 46.4022 104.351 52.4576 106.809V112.61C52.4576 113.378 53.0799 114 53.8475 114H62.1864C62.954 114 63.5763 113.378 63.5763 112.61V108.441H83.0339V112.61C83.0339 113.378 83.6562 114 84.4237 114H92.7627C93.5302 114 94.1525 113.378 94.1525 112.61V106.809C102.55 103.412 108.047 95.2616 108.051 86.2033C108.051 73.9222 98.0947 63.966 85.8136 63.966Z" fill="url(#paint1_linear_7461_5861)"/>
<path d="M105.823 53.8515H104.633C104.534 53.454 104.364 53.0738 104.131 52.7282H105.823C106.324 52.7282 106.727 52.3393 106.727 51.8641C106.727 51.3888 106.324 51 105.832 51H98.8951C98.4028 51 98 51.3888 98 51.8641C98 52.3393 98.4028 52.7282 98.8951 52.7282H100.882C101.679 52.7109 102.422 53.1516 102.762 53.8515H98.8951C98.4028 53.8515 98 54.2403 98 54.7156C98 55.1908 98.4028 55.5796 98.8951 55.5796H102.762C102.655 55.7784 102.511 55.9598 102.359 56.124C101.965 56.4956 101.437 56.703 100.891 56.703H98.9041C98.4028 56.7116 98 57.1091 98.009 57.593C98.009 57.8263 98.1164 58.0509 98.2864 58.2151L103.245 62.7515C103.594 63.0885 104.167 63.0799 104.507 62.7429C104.857 62.4059 104.848 61.8529 104.498 61.5245C104.49 61.5159 104.481 61.5073 104.472 61.4986L101.133 58.4484C102.073 58.3879 102.95 58.0077 103.612 57.3597C104.123 56.8758 104.481 56.2536 104.642 55.5796H105.823C106.316 55.5796 106.718 55.1908 106.718 54.7156C106.718 54.2403 106.316 53.8515 105.823 53.8515Z" fill="url(#paint2_linear_7461_5861)"/>
<path d="M108.051 86.2036C108.045 95.2619 102.548 103.413 94.1524 106.815V112.61C94.1524 113.378 93.5301 114 92.7626 114H84.4236C83.6561 114 83.0338 113.378 83.0338 112.61V108.441H80.7129C89.6633 102.826 99.7396 91.7073 100.977 69.9287C101.171 70.0957 101.366 70.2897 101.546 70.4709C105.717 74.6431 108.058 80.3036 108.051 86.2036Z" fill="#FFC477"/>
<path d="M67.7458 50.0676C67.7458 53.1377 65.2566 55.6269 62.1865 55.6269C59.1164 55.6269 56.6272 53.1377 56.6272 50.0676C56.6272 46.9975 59.1164 44.5083 62.1865 44.5083C65.2566 44.5083 67.7458 46.9975 67.7458 50.0676Z" fill="#FFEDC0"/>
<path d="M62.1865 44.5083C61.7169 44.5144 61.25 44.5802 60.7966 44.7044C63.2492 45.3288 64.9661 47.537 64.9661 50.0676C64.9661 52.5982 63.2492 54.8065 60.7966 55.4308C62.8807 55.9737 65.091 55.2625 66.4666 53.6053C67.8428 51.9481 68.136 49.6448 67.2185 47.6958C66.3017 45.7468 64.3404 44.5049 62.1865 44.5083Z" fill="#FFDE55"/>
<path d="M84.4238 62.5764C84.4238 65.6465 81.9346 68.1357 78.8645 68.1357C75.7944 68.1357 73.3052 65.6465 73.3052 62.5764C73.3052 59.5063 75.7944 57.0171 78.8645 57.0171C81.9346 57.0171 84.4238 59.5063 84.4238 62.5764Z" fill="#FFEDC0"/>
<path d="M78.8644 57.0171C78.3948 57.0232 77.9279 57.089 77.4746 57.2132C79.9272 57.8376 81.6441 60.0458 81.6441 62.5764C81.6441 65.107 79.9272 67.3153 77.4746 67.9396C79.5587 68.4825 81.769 67.7713 83.1445 66.1141C84.5208 64.4569 84.814 62.1536 83.8965 60.2046C82.9796 58.2556 81.0184 57.0137 78.8644 57.0171Z" fill="#FFDE55"/>
<path d="M52.4575 79.2541C49.3874 79.2541 46.8982 76.7649 46.8982 73.6948H49.6779C49.6779 75.2299 50.9225 76.4745 52.4575 76.4745C53.9926 76.4745 55.2372 75.2299 55.2372 73.6948H58.0168C58.0168 76.7649 55.5276 79.2541 52.4575 79.2541Z" fill="#DF9337"/>
<path d="M99.7119 36.1694H102.492V41.7288H99.7119V36.1694Z" fill="#FFEDC0"/>
<path d="M105.271 37.5591H108.051V40.3387H105.271V37.5591Z" fill="#FFEDC0"/>
<path d="M105.271 32H108.051V34.7797H105.271V32Z" fill="#FFEDC0"/>
<path d="M94.1526 38.9492H96.9322V44.5085H94.1526V38.9492Z" fill="#FFEDC0"/>
<path d="M94.1526 33.3896H96.9322V36.1693H94.1526V33.3896Z" fill="#FFEDC0"/>
<path d="M60.7966 33.3896H63.5763V41.7286H60.7966V33.3896Z" fill="#FFEDC0"/>
<path d="M66.356 37.5591H69.1356V40.3387H66.356V37.5591Z" fill="#FFEDC0"/>
<path d="M66.356 32H69.1356V34.7797H66.356V32Z" fill="#FFEDC0"/>
<path d="M77.4746 44.5083H80.2543V52.8473H77.4746V44.5083Z" fill="#FFEDC0"/>
<path d="M83.0339 41.729H85.8136V44.5087H83.0339V41.729Z" fill="#FFEDC0"/>
<path d="M83.0339 36.1694H85.8136V38.9491H83.0339V36.1694Z" fill="#FFEDC0"/>
<path d="M77.4746 38.9492H80.2543V41.7289H77.4746V38.9492Z" fill="#FFEDC0"/>
<path d="M70.5254 69.5254H87.2034V72.3051H70.5254V69.5254Z" fill="#DF9337"/>
<path d="M83.0339 47.2881H85.8136V52.8474H83.0339V47.2881Z" fill="#FFEDC0"/>
<path d="M108.051 86.2036C108.045 95.2619 102.548 103.413 94.1524 106.815V112.61C94.1524 113.378 93.5301 114 92.7626 114H84.4236C83.6561 114 83.0338 113.378 83.0338 112.61V108.441H80.7129C89.6633 102.826 99.7396 91.7073 100.977 69.9287C101.171 70.0957 101.366 70.2897 101.546 70.4709C105.717 74.6431 108.058 80.3036 108.051 86.2036Z" fill="url(#paint3_linear_7461_5861)"/>
</g>
<defs>
<linearGradient id="paint0_linear_7461_5861" x1="106.672" y1="83.3757" x2="113.086" y2="94.4205" gradientUnits="userSpaceOnUse">
<stop stop-color="#FFF46B"/>
<stop offset="1" stop-color="#F3652D"/>
</linearGradient>
<linearGradient id="paint1_linear_7461_5861" x1="33.1019" y1="45.6969" x2="71.7582" y2="131.454" gradientUnits="userSpaceOnUse">
<stop stop-color="#FFF46B"/>
<stop offset="1" stop-color="#F3652D"/>
</linearGradient>
<linearGradient id="paint2_linear_7461_5861" x1="98.0119" y1="48.931" x2="108.375" y2="61.9098" gradientUnits="userSpaceOnUse">
<stop stop-color="#FFF46B"/>
<stop offset="1" stop-color="#F3652D"/>
</linearGradient>
<linearGradient id="paint3_linear_7461_5861" x1="80.75" y1="62.3299" x2="119.693" y2="103.929" gradientUnits="userSpaceOnUse">
<stop stop-color="#FFF46B"/>
<stop offset="1" stop-color="#F3652D"/>
</linearGradient>
<clipPath id="clip0_7461_5861">
<rect width="82" height="82" fill="white" transform="translate(33 32)"/>
</clipPath>
</defs>
</svg>
