<svg width="43" height="46" viewBox="0 0 43 46" fill="none" xmlns="http://www.w3.org/2000/svg">
<g opacity="0.3" filter="url(#filter0_f_713_2657)">
<ellipse cx="21.5" cy="41.5" rx="17.5" ry="0.5" fill="black"/>
</g>
<path d="M38.9348 20.6626C38.0765 18.902 36.4964 17.6913 34.6544 17.3149C34.5535 16.8154 34.4506 16.3163 34.3458 15.8177L32.2134 5.69002C32.6767 5.62299 33.1845 5.48895 33.5354 5.32956C33.6087 5.29604 35.3321 4.49607 35.3321 2.86821C35.3312 2.10779 35.0328 1.37878 34.5023 0.841084C33.9719 0.303388 33.2527 0.00090959 32.5025 0H24.9482C24.1302 0 23.4648 0.674519 23.4648 1.5037V2.36296C23.4648 3.19215 24.1302 3.86667 24.9482 3.86667H27.9156C27.9156 3.86667 27.9101 4.5747 27.9008 4.63141L25.8383 16.8862C25.7345 17.5031 25.1021 18.0444 24.485 18.0444H19.8617C19.5925 18.0444 19.3526 17.9413 19.1852 17.7544C19.0178 17.5671 18.9406 17.3145 18.9673 17.043L19.4781 11.8702C19.5201 11.4473 19.4412 11.0211 19.2509 10.6424C19.7327 10.4975 20.1556 10.1988 20.4565 9.79082C20.7575 9.38281 20.9205 8.88723 20.9213 8.37778C20.9213 7.07471 19.8752 6.01481 18.5901 6.01481H9.26546C8.6474 6.0155 8.05485 6.26467 7.61782 6.70766C7.18079 7.15066 6.93497 7.75129 6.93429 8.37778C6.93429 8.77605 7.03263 9.15111 7.20556 9.48064C6.14466 9.61769 4.97866 10.3193 4.42469 11.1957L2.01469 15.0091C1.44589 15.9096 1 17.4528 1 18.5222V21.6963C1 22.9994 2.04563 24.0593 3.33116 24.0593H4.6133C4.7252 26.8059 6.95167 29 9.68888 29C12.4257 29 14.6521 26.8059 14.7645 24.0593H27.8775C27.8898 24.0601 27.902 24.0631 27.9143 24.0631H28.3488C28.4628 26.8076 30.6884 29 33.4244 29C36.2328 29 38.5105 26.6912 38.5105 23.8444C38.5105 23.0883 38.3469 22.3725 38.0574 21.7264L38.561 21.5601C38.6476 21.5315 38.7272 21.4843 38.7943 21.4218C38.8614 21.3593 38.9145 21.2829 38.9499 21.1978C38.9853 21.1127 39.0023 21.0209 38.9997 20.9285C38.9971 20.8362 38.975 20.7455 38.9348 20.6626V20.6626ZM37.4162 20.584L30.7812 22.7751H28.5925C28.9049 20.3541 30.9529 18.4788 33.4252 18.4788C34.2089 18.476 34.9815 18.6661 35.6766 19.0328C36.3718 19.3995 36.9687 19.9318 37.4162 20.584V20.584ZM34.061 2.86907C34.061 3.64627 33.0242 4.14979 33.0158 4.15409C32.6703 4.3109 32.0341 4.44882 31.6544 4.44882H29.3991C29.3431 4.44804 29.2896 4.42516 29.2501 4.38504C29.2105 4.34492 29.1879 4.29073 29.1872 4.234V1.50456C29.1872 1.38813 29.2842 1.28975 29.3991 1.28975H32.5029C32.916 1.2902 33.312 1.45674 33.6041 1.75282C33.8962 2.0489 34.0605 2.45035 34.061 2.86907V2.86907ZM24.9482 2.57864C24.8923 2.57786 24.8388 2.55498 24.7992 2.51486C24.7597 2.47474 24.7371 2.42055 24.7363 2.36382V1.50456C24.7363 1.38813 24.8334 1.28975 24.9482 1.28975H27.9372C27.9275 1.36064 27.9156 1.4311 27.9156 1.50456V2.57864H24.9482V2.57864ZM9.26588 7.30456H18.5905C19.1746 7.30456 19.6502 7.78661 19.6502 8.37864C19.6502 8.97067 19.1746 9.45271 18.5905 9.45271H9.26588C8.68139 9.45271 8.20626 8.97067 8.20626 8.37864C8.20626 7.78661 8.68139 7.30456 9.26588 7.30456ZM2.27239 21.6972V18.5231C2.27239 17.708 2.65258 16.3912 3.08618 15.7051L5.49618 11.8917C5.88357 11.2791 6.85249 10.7416 7.57091 10.7416H17.3194C17.5886 10.7416 17.8285 10.8447 17.9959 11.0316C18.1633 11.2189 18.2404 11.4715 18.2137 11.7431L17.703 16.9158C17.6403 17.5542 17.8323 18.1596 18.2434 18.6201C18.6545 19.0807 19.2293 19.3346 19.8621 19.3346H24.485C25.7362 19.3346 26.8814 18.3551 27.0916 17.1044L29.0146 5.68013C29.138 5.71407 29.2656 5.7377 29.3991 5.7377H30.9232L33.1031 16.0875C33.1751 16.4303 33.2544 16.8153 33.332 17.1951C30.2018 17.2432 27.6312 19.6715 27.3133 22.7717H3.33201C3.05105 22.7712 2.78172 22.6578 2.58309 22.4564C2.38446 22.255 2.27273 21.982 2.27239 21.6972V21.6972ZM9.68973 27.712C7.6578 27.712 5.99674 26.0923 5.88569 24.0601H13.4933C13.3827 26.0923 11.7217 27.712 9.68973 27.712V27.712ZM37.2398 23.8453C37.2398 25.9776 35.5288 27.712 33.4252 27.712C31.3945 27.712 29.7343 26.094 29.6212 24.064H30.8821C30.9487 24.064 31.0152 24.0532 31.0792 24.0322L36.8397 22.1298C37.1029 22.6623 37.2399 23.2497 37.2398 23.8453V23.8453Z" fill="url(#paint0_linear_713_2657)"/>
<defs>
<filter id="filter0_f_713_2657" x="0" y="37" width="43" height="9" filterUnits="userSpaceOnUse" color-interpolation-filters="sRGB">
<feFlood flood-opacity="0" result="BackgroundImageFix"/>
<feBlend mode="normal" in="SourceGraphic" in2="BackgroundImageFix" result="shape"/>
<feGaussianBlur stdDeviation="2" result="effect1_foregroundBlur_713_2657"/>
</filter>
<linearGradient id="paint0_linear_713_2657" x1="13.8529" y1="-6.39517" x2="31.095" y2="32.5592" gradientUnits="userSpaceOnUse">
<stop stop-color="#FFEF37"/>
<stop offset="0.559247" stop-color="#014280"/>
</linearGradient>
</defs>
</svg>
